{
.appVersion = "3108";
.formatVersion = 3;
DisplayStrings = (

glyphs = (
{
color = 6;
glyphname = A;
kernLeft = A;
kernRight = A;
lastChange = "2022-03-18 09:39:33 +0000";
layers = (
{
anchors = (
{
name = BOTTOM;
pos = (344,0);
},
{
name = TOP;
pos = (361,707);
}
);
layerId = "6D97EE47-94AA-478E-ABFB-936E6C32B491";
shapes = (
{
closed = 1;
nodes = (
(221,0,l),
(221,30,l),
(202,30,o),
(163,33,o),
(133,46,c),
(355,589,l),
(552,46,l),
(522,33,o),
(483,30,o),
(464,30,c),
(464,0,l),
(721,0,l),
(721,30,l),
(705,30,o),
(671,33,o),
(645,46,c),
(394,737,l),
(312,707,l),
(327,665,l),
(75,45,l),
(50,33,o),
(19,30,o),
(4,30,c),
(4,0,l)
);
},
{
closed = 1;
nodes = (
(503,249,l),
(503,300,l),
(208,300,l),
(208,249,l)
);
}
);
width = 715;
}
);
unicode = 65;
},
{
color = 6;
glyphname = AE;
kernLeft = AE;
kernRight = E;
lastChange = "2022-03-18 09:39:33 +0000";
layers = (
{
anchors = (
{
name = TOP;
pos = (645,707);
}
);
layerId = "6D97EE47-94AA-478E-ABFB-936E6C32B491";
shapes = (
{
closed = 1;
nodes = (
(224,0,l),
(224,30,l),
(205,30,o),
(166,33,o),
(136,46,c),
(460,654,l),
(460,46,l),
(430,33,o),
(391,30,o),
(372,30,c),
(372,0,l),
(861,0,l),
(894,151,l),
(863,159,l),
(859,146,o),
(835,85,o),
(809,51,c),
(547,51,l),
(547,342,l),
(753,342,l),
(763,314,o),
(765,280,o),
(765,263,c),
(797,263,l),
(797,463,l),
(765,463,l),
(765,447,o),
(763,419,o),
(755,393,c),
(547,393,l),
(547,656,l),
(789,656,l),
(803,626,o),
(807,591,o),
(809,569,c),
(842,571,l),
(837,707,l),
(332,707,l),
(332,677,l),
(348,677,o),
(378,675,o),
(405,666,c),
(75,45,l),
(50,33,o),
(19,30,o),
(4,30,c),
(4,0,l)
);
},
{
closed = 1;
nodes = (
(515,249,l),
(515,300,l),
(220,300,l),
(220,249,l)
);
}
);
width = 919;
}
);
metricLeft = A;
metricRight = E;
unicode = 198;
},
{
color = 6;
glyphname = B;
kernLeft = H;
kernRight = B;
lastChange = "2022-03-18 09:39:33 +0000";
layers = (
{
layerId = "6D97EE47-94AA-478E-ABFB-936E6C32B491";
shapes = (
{
closed = 1;
nodes = (
(360,0,ls),
(547,0,o),
(620,137,o),
(595,238,cs),
(573,332,o),
(485,382,o),
(436,398,c),
(508,432,o),
(559,535,o),
(520,622,cs),
(495,678,o),
(440,721,o),
(336,721,cs),
(267,721,o),
(207,716,o),
(50,704,c),
(53,674,l),
(71,676,o),
(106,676,o),
(138,669,c),
(138,46,l),
(108,33,o),
(69,30,o),
(50,30,c),
(50,0,l)
);
},
{
closed = 1;
nodes = (
(348,33,o),
(252,46,o),
(225,69,c),
(225,349,l),
(275,349,o),
(338,354,o),
(392,334,cs),
(445,316,o),
(489,276,o),
(504,217,cs),
(524,136,o),
(487,77,o),
(415,54,cs)
);
},
{
closed = 1;
nodes = (
(225,673,l),
(331,686,o),
(404,671,o),
(439,588,cs),
(467,521,o),
(440,447,o),
(396,419,cs),
(349,388,o),
(249,394,o),
(225,395,c)
);
}
);
width = 625;
}
);
metricLeft = H;
metricRight = "=H/2";
unicode = 66;
},
{
color = 6;
glyphname = C;
kernLeft = O;
kernRight = C;
lastChange = "2022-03-18 09:39:33 +0000";
layers = (
{
anchors = (
{
name = BOTTOM;
pos = (404,0);
},
{
name = TOP;
pos = (404,707);
}
);
layerId = "6D97EE47-94AA-478E-ABFB-936E6C32B491";
shapes = (
{
closed = 1;
nodes = (
(716,161,l),
(686,176,l),
(629,87,o),
(588,56,o),
(505,38,cs),
(354,5,o),
(200,123,o),
(159,283,cs),
(114,456,o),
(192,622,o),
(340,661,cs),
(458,692,o),
(595,667,o),
(643,540,c),
(673,546,l),
(653,688,l),
(586,706,o),
(449,741,o),
(328,708,cs),
(131,656,o),
(9,453,o),
(62,257,cs),
(114,61,o),
(314,-73,o),
(638,13,c)
);
}
);
width = 741;
}
);
metricLeft = O;
metricRight = "=H/2";
unicode = 67;
},
{
color = 6;
glyphname = D;
kernLeft = H;
kernRight = O;
lastChange = "2022-03-18 09:39:33 +0000";
layers = (
{
anchors = (
{
name = TOP;
pos = (380,707);
}
);
layerId = "6D97EE47-94AA-478E-ABFB-936E6C32B491";
shapes = (
{
closed = 1;
nodes = (
(211,0,l),
(225,0,l),
(310,0,ls),
(373,0,o),
(451,7,o),
(495,19,cs),
(658,62,o),
(782,203,o),
(782,364,cs),
(782,597,o),
(590,721,o),
(332,721,cs),
(237,721,o),
(141,707,o),
(50,699,c),
(53,669,l),
(71,671,o),
(106,671,o),
(138,664,c),
(138,46,l),
(108,33,o),
(69,30,o),
(50,30,c),
(50,0,l)
);
},
{
closed = 1;
nodes = (
(302,47,o),
(259,56,o),
(225,69,c),
(225,668,l),
(255,672,o),
(283,674,o),
(310,674,cs),
(526,674,o),
(684,544,o),
(684,337,cs),
(684,157,o),
(548,47,o),
(353,47,cs)
);
}
);
width = 832;
}
);
metricLeft = H;
metricRight = O;
unicode = 68;
},
{
color = 6;
glyphname = Eth;
kernLeft = H;
kernRight = O;
lastChange = "2022-03-18 09:39:33 +0000";
layers = (
{
anchors = (
{
name = TOP;
pos = (384,707);
}
);
layerId = "6D97EE47-94AA-478E-ABFB-936E6C32B491";
shapes = (
{
closed = 1;
nodes = (
(419,344,l),
(419,386,l),
(50,386,l),
(50,344,l)
);
},
{
closed = 1;
nodes = (
(215,0,l),
(229,0,l),
(314,0,ls),
(377,0,o),
(455,7,o),
(499,19,cs),
(662,62,o),
(786,203,o),
(786,364,cs),
(786,597,o),
(594,721,o),
(336,721,cs),
(241,721,o),
(145,707,o),
(54,699,c),
(57,669,l),
(75,671,o),
(110,671,o),
(142,664,c),
(142,46,l),
(112,33,o),
(73,30,o),
(54,30,c),
(54,0,l)
);
},
{
closed = 1;
nodes = (
(306,47,o),
(263,56,o),
(229,69,c),
(229,668,l),
(259,672,o),
(287,674,o),
(314,674,cs),
(530,674,o),
(688,544,o),
(688,337,cs),
(688,157,o),
(552,47,o),
(357,47,cs)
);
}
);
width = 836;
}
);
metricLeft = D;
metricRight = D;
unicode = 208;
},
{
color = 6;
glyphname = E;
kernLeft = H;
kernRight = E;
lastChange = "2022-03-18 09:39:33 +0000";
layers = (
{
anchors = (
{
name = BOTTOM;
pos = (324,0);
},
{
name = TOP;
pos = (314,707);
}
);
layerId = "6D97EE47-94AA-478E-ABFB-936E6C32B491";
shapes = (
{
closed = 1;
nodes = (
(540,0,l),
(573,151,l),
(541,159,l),
(538,146,o),
(514,85,o),
(488,51,c),
(225,51,l),
(225,342,l),
(431,342,l),
(441,314,o),
(443,280,o),
(443,263,c),
(475,263,l),
(475,463,l),
(443,463,l),
(443,447,o),
(441,419,o),
(434,393,c),
(225,393,l),
(225,656,l),
(468,656,l),
(481,626,o),
(486,591,o),
(488,569,c),
(520,571,l),
(515,707,l),
(50,707,l),
(50,677,l),
(69,677,o),
(108,674,o),
(138,661,c),
(138,46,l),
(108,33,o),
(69,30,o),
(50,30,c),
(50,0,l)
);
}
);
width = 598;
}
);
metricLeft = H;
metricRight = "=H/2";
unicode = 69;
},
{
color = 6;
glyphname = Schwa;
kernLeft = Schwa;
kernRight = O;
lastChange = "2022-03-18 09:39:33 +0000";
layers = (
{
layerId = "6D97EE47-94AA-478E-ABFB-936E6C32B491";
shapes = (
{
closed = 1;
nodes = (
(533,-14,o),
(684,118,o),
(684,360,cs),
(684,562,o),
(527,721,o),
(324,721,cs),
(192,721,o),
(108,647,o),
(78,609,c),
(108,580,l),
(142,613,o),
(216,667,o),
(301,667,cs),
(467,667,o),
(593,507,o),
(593,319,cs),
(593,172,o),
(524,34,o),
(347,34,cs),
(223,34,o),
(143,153,o),
(143,238,c),
(619,238,l),
(628,289,l),
(42,289,l),
(22,108,o),
(168,-14,o),
(345,-14,cs)
);
}
);
width = 734;
}
);
metricRight = O;
unicode = 399;
},
{
color = 6;
glyphname = F;
kernLeft = H;
kernRight = F;
lastChange = "2022-03-18 09:39:33 +0000";
layers = (
{
layerId = "6D97EE47-94AA-478E-ABFB-936E6C32B491";
shapes = (
{
closed = 1;
nodes = (
(322,0,l),
(322,30,l),
(301,30,o),
(258,33,o),
(225,46,c),
(225,331,l),
(428,331,l),
(438,303,o),
(440,269,o),
(440,252,c),
(470,252,l),
(470,452,l),
(440,452,l),
(440,437,o),
(438,408,o),
(430,382,c),
(225,382,l),
(225,656,l),
(468,656,l),
(481,626,o),
(486,591,o),
(488,569,c),
(520,571,l),
(515,707,l),
(50,707,l),
(50,677,l),
(69,677,o),
(108,674,o),
(138,661,c),
(138,46,l),
(108,33,o),
(69,30,o),
(50,30,c),
(50,0,l)
);
}
);
width = 545;
}
);
metricLeft = H;
metricRight = "=H/2";
unicode = 70;
},
{
color = 6;
glyphname = G;
kernLeft = O;
kernRight = G;
lastChange = "2022-03-18 09:39:33 +0000";
layers = (
{
anchors = (
{
name = BOTTOM;
pos = (430,0);
},
{
name = TOP;
pos = (430,707);
}
);
layerId = "6D97EE47-94AA-478E-ABFB-936E6C32B491";
shapes = (
{
closed = 1;
nodes = (
(541,-22,o),
(636,11,o),
(731,16,c),
(731,51,l),
(721,56,o),
(709,66,o),
(705,75,c),
(705,220,l),
(716,227,o),
(744,236,o),
(760,236,c),
(760,268,l),
(530,268,l),
(530,236,l),
(548,236,o),
(588,233,o),
(618,220,c),
(618,69,l),
(383,-49,o),
(200,122,o),
(159,281,cs),
(114,454,o),
(191,620,o),
(340,659,cs),
(458,691,o),
(617,666,o),
(665,538,c),
(695,544,l),
(674,686,l),
(609,705,o),
(449,739,o),
(327,707,cs),
(131,654,o),
(10,452,o),
(62,256,cs),
(106,87,o),
(249,-3,o),
(415,-13,cs)
);
}
);
width = 800;
}
);
metricLeft = O;
metricRight = "=H-10";
unicode = 71;
},
{
color = 6;
glyphname = H;
kernLeft = H;
kernRight = H;
lastChange = "2022-03-18 09:39:33 +0000";
layers = (
{
anchors = (
{
name = BOTTOM;
pos = (669,0);
},
{
name = TOP;
pos = (425,707);
}
);
layerId = "6D97EE47-94AA-478E-ABFB-936E6C32B491";
shapes = (
{
closed = 1;
nodes = (
(313,0,l),
(313,30,l),
(294,30,o),
(255,33,o),
(225,46,c),
(225,348,l),
(625,348,l),
(625,46,l),
(595,33,o),
(556,30,o),
(537,30,c),
(537,0,l),
(800,0,l),
(800,30,l),
(781,30,o),
(742,33,o),
(712,46,c),
(712,661,l),
(742,674,o),
(781,677,o),
(800,677,c),
(800,707,l),
(537,707,l),
(537,677,l),
(556,677,o),
(595,674,o),
(625,661,c),
(625,399,l),
(225,399,l),
(225,661,l),
(255,674,o),
(294,677,o),
(313,677,c),
(313,707,l),
(50,707,l),
(50,677,l),
(69,677,o),
(108,674,o),
(138,661,c),
(138,46,l),
(108,33,o),
(69,30,o),
(50,30,c),
(50,0,l)
);
}
);
width = 850;
}
);
unicode = 72;
},
{
color = 3;
glyphname = Hbar;
kernLeft = H;
kernRight = H;
lastChange = "2022-03-18 09:39:33 +0000";
layers = (
{
layerId = "6D97EE47-94AA-478E-ABFB-936E6C32B491";
shapes = (
{
closed = 1;
nodes = (
(796,499,l),
(796,541,l),
(42,541,l),
(42,499,l)
);
},
{
pos = (-7,0);
ref = I;
},
{
closed = 1;
nodes = (
(640,328,l),
(640,379,l),
(196,379,l),
(196,328,l)
);
},
{
pos = (480,0);
ref = I;
}
);
width = 834;
}
);
unicode = 294;
},
{
color = 6;
glyphname = I;
kernLeft = H;
kernRight = H;
lastChange = "2022-03-18 09:39:33 +0000";
layers = (
{
anchors = (
{
name = BOTTOM;
pos = (182,0);
},
{
name = TOP;
pos = (181,707);
}
);
layerId = "6D97EE47-94AA-478E-ABFB-936E6C32B491";
shapes = (
{
closed = 1;
nodes = (
(313,0,l),
(313,30,l),
(294,30,o),
(255,33,o),
(225,46,c),
(225,661,l),
(255,674,o),
(294,677,o),
(313,677,c),
(313,707,l),
(50,707,l),
(50,677,l),
(69,677,o),
(108,674,o),
(138,661,c),
(138,46,l),
(108,33,o),
(69,30,o),
(50,30,c),
(50,0,l)
);
}
);
width = 363;
}
);
metricLeft = H;
metricRight = H;
unicode = 73;
},
{
color = 6;
glyphname = J;
kernLeft = J;
kernRight = H;
lastChange = "2022-03-18 09:39:33 +0000";
layers = (
{
anchors = (
{
name = TOP;
pos = (220,707);
}
);
layerId = "6D97EE47-94AA-478E-ABFB-936E6C32B491";
shapes = (
{
closed = 1;
nodes = (
(92,-271,o),
(221,-175,o),
(264,0,c),
(264,661,l),
(294,674,o),
(333,677,o),
(352,677,c),
(352,707,l),
(88,707,l),
(88,677,l),
(107,677,o),
(146,674,o),
(176,661,c),
(176,20,ls),
(175,-6,o),
(173,-33,o),
(166,-59,cs),
(141,-154,o),
(83,-230,o),
(46,-263,c),
(68,-286,l)
);
}
);
width = 402;
}
);
metricRight = H;
unicode = 74;
},
{
color = 6;
glyphname = K;
kernLeft = H;
kernRight = K;
lastChange = "2022-03-18 09:39:33 +0000";
layers = (
{
anchors = (
{
name = BOTTOM;
pos = (356,0);
}
);
layerId = "6D97EE47-94AA-478E-ABFB-936E6C32B491";
shapes = (
{
closed = 1;
nodes = (
(712,0,l),
(623,27,o),
(591,68,o),
(538,127,cs),
(475,197,o),
(374,333,o),
(331,392,c),
(581,661,l),
(611,674,o),
(649,677,o),
(668,677,c),
(668,707,l),
(440,707,l),
(440,677,l),
(455,677,o),
(487,674,o),
(512,661,c),
(243,373,l),
(275,331,o),
(418,117,o),
(469,65,cs),
(525,7,o),
(568,-29,o),
(705,-30,c)
);
},
{
closed = 1;
nodes = (
(317,0,l),
(317,30,l),
(297,30,o),
(256,33,o),
(225,46,c),
(225,661,l),
(255,674,o),
(294,677,o),
(313,677,c),
(313,707,l),
(50,707,l),
(50,677,l),
(69,677,o),
(108,674,o),
(138,661,c),
(138,46,l),
(108,33,o),
(69,30,o),
(50,30,c),
(50,0,l)
);
}
);
width = 706;
}
);
metricLeft = H;
unicode = 75;
},
{
color = 6;
glyphname = L;
kernLeft = H;
kernRight = E;
lastChange = "2022-03-18 09:39:33 +0000";
layers = (
{
anchors = (
{
name = BOTTOM;
pos = (313,0);
},
{
name = TOP;
pos = (182,707);
}
);
layerId = "6D97EE47-94AA-478E-ABFB-936E6C32B491";
shapes = (
{
closed = 1;
nodes = (
(540,0,l),
(586,148,l),
(555,158,l),
(547,139,o),
(516,77,o),
(493,51,c),
(225,51,l),
(225,661,l),
(255,674,o),
(294,677,o),
(313,677,c),
(313,707,l),
(50,707,l),
(50,677,l),
(69,677,o),
(108,674,o),
(138,661,c),
(138,46,l),
(108,33,o),
(69,30,o),
(50,30,c),
(50,0,l)
);
}
);
width = 590;
}
);
metricLeft = H;
unicode = 76;
},
{
color = 3;
glyphname = Lslash;
kernLeft = H;
kernRight = E;
lastChange = "2022-03-18 09:39:33 +0000";
layers = (
{
layerId = "6D97EE47-94AA-478E-ABFB-936E6C32B491";
shapes = (
{
closed = 1;
nodes = (
(406,427,l),
(387,465,l),
(52,301,l),
(71,263,l)
);
},
{
ref = L;
}
);
width = 590;
}
);
metricLeft = L;
metricRight = L;
unicode = 321;
},
{
color = 6;
glyphname = M;
kernLeft = M;
kernRight = M;
lastChange = "2022-03-18 09:39:33 +0000";
layers = (
{
layerId = "6D97EE47-94AA-478E-ABFB-936E6C32B491";
shapes = (
{
closed = 1;
nodes = (
(272,0,l),
(272,30,l),
(253,30,o),
(214,33,o),
(184,46,c),
(209,604,l),
(193,602,l),
(439,0,l),
(722,577,l),
(705,580,l),
(725,46,l),
(695,33,o),
(657,30,o),
(638,30,c),
(638,0,l),
(901,0,l),
(901,30,l),
(882,30,o),
(843,33,o),
(813,46,c),
(789,661,l),
(819,674,o),
(857,677,o),
(876,677,c),
(876,707,l),
(729,707,l),
(449,136,l),
(479,135,l),
(245,707,l),
(67,707,l),
(67,677,l),
(86,677,o),
(125,674,o),
(155,661,c),
(128,46,l),
(98,33,o),
(59,30,o),
(40,30,c),
(40,0,l)
);
}
);
width = 951;
}
);
metricLeft = "=H-10";
metricRight = H;
unicode = 77;
},
{
color = 6;
glyphname = N;
kernRight = H;
lastChange = "2022-03-18 09:39:33 +0000";
layers = (
{
anchors = (
{
name = BOTTOM;
pos = (407,0);
},
{
name = TOP;
pos = (407,707);
}
);
layerId = "6D97EE47-94AA-478E-ABFB-936E6C32B491";
shapes = (
{
closed = 1;
nodes = (
(678,-14,l),
(678,661,l),
(708,674,o),
(747,677,o),
(766,677,c),
(766,707,l),
(534,707,l),
(534,677,l),
(553,677,o),
(592,674,o),
(622,661,c),
(622,111,l),
(644,118,l),
(199,707,l),
(40,707,l),
(40,677,l),
(59,677,o),
(98,674,o),
(128,661,c),
(128,46,l),
(98,33,o),
(59,30,o),
(40,30,c),
(40,0,l),
(272,0,l),
(272,30,l),
(253,30,o),
(214,33,o),
(184,46,c),
(184,618,l),
(162,611,l),
(633,-14,l)
);
}
);
width = 806;
}
);
metricLeft = "=H-10";
metricRight = "=H-10";
unicode = 78;
},
{
color = 6;
glyphname = Nhookleft;
kernRight = H;
lastChange = "2022-03-18 09:39:33 +0000";
layers = (
{
layerId = "6D97EE47-94AA-478E-ABFB-936E6C32B491";
shapes = (
{
closed = 1;
nodes = (
(21,-239,o),
(64,-234,o),
(101,-209,cs),
(145,-179,o),
(165,-134,o),
(170,-92,cs),
(175,-53,o),
(173,89,o),
(173,141,cs),
(173,619,l),
(151,612,l),
(623,-14,l),
(667,-14,l),
(667,661,l),
(697,674,o),
(736,677,o),
(755,677,c),
(755,707,l),
(523,707,l),
(523,677,l),
(542,677,o),
(581,674,o),
(611,661,c),
(611,112,l),
(633,119,l),
(190,707,l),
(29,707,l),
(29,677,l),
(48,677,o),
(87,674,o),
(117,661,c),
(117,2,ls),
(119,-80,o),
(113,-109,o),
(91,-131,cs),
(66,-156,o),
(14,-159,o),
(-34,-147,c),
(-28,-229,l)
);
}
);
width = 795;
}
);
metricRight = N;
unicode = 413;
},
{
color = 6;
glyphname = Eng;
kernRight = H;
lastChange = "2022-03-18 09:39:33 +0000";
layers = (
{
layerId = "6D97EE47-94AA-478E-ABFB-936E6C32B491";
shapes = (
{
closed = 1;
nodes = (
(526,-239,o),
(569,-234,o),
(606,-209,cs),
(650,-179,o),
(666,-129,o),
(671,-92,cs),
(676,-53,o),
(678,89,o),
(678,141,cs),
(678,662,l),
(708,674,o),
(745,677,o),
(764,677,c),
(764,707,l),
(536,707,l),
(536,677,l),
(555,677,o),
(592,674,o),
(622,662,c),
(622,112,l),
(644,119,l),
(201,707,l),
(40,707,l),
(40,677,l),
(59,677,o),
(98,674,o),
(128,661,c),
(128,46,l),
(98,33,o),
(59,30,o),
(40,30,c),
(40,0,l),
(272,0,l),
(272,30,l),
(253,30,o),
(214,33,o),
(184,46,c),
(184,619,l),
(162,612,l),
(622,2,l),
(624,-80,o),
(618,-109,o),
(596,-131,cs),
(571,-155,o),
(519,-159,o),
(471,-147,c),
(477,-229,l)
);
}
);
width = 804;
}
);
metricLeft = N;
metricRight = N;
unicode = 330;
},
{
color = 6;
glyphname = O;
kernLeft = O;
kernRight = O;
lastChange = "2022-03-18 09:39:33 +0000";
layers = (
{
anchors = (
{
name = BOTTOM;
pos = (438,0);
},
{
name = TOP;
pos = (428,707);
}
);
layerId = "6D97EE47-94AA-478E-ABFB-936E6C32B491";
shapes = (
{
closed = 1;
nodes = (
(625,-14,o),
(794,155,o),
(794,360,cs),
(794,562,o),
(627,721,o),
(424,721,cs),
(218,721,o),
(50,553,o),
(50,348,cs),
(50,146,o),
(215,-14,o),
(419,-14,cs)
);
},
{
closed = 1;
nodes = (
(276,41,o),
(141,215,o),
(141,390,cs),
(141,544,o),
(248,667,o),
(395,667,cs),
(566,667,o),
(702,496,o),
(702,319,cs),
(702,165,o),
(596,41,o),
(449,41,cs)
);
}
);
width = 844;
}
);
unicode = 79;
},
{
color = 6;
glyphname = Oslash;
kernLeft = O;
kernRight = O;
lastChange = "2022-03-18 09:39:33 +0000";
layers = (
{
anchors = (
{
name = BOTTOM;
pos = (438,0);
},
{
name = TOP;
pos = (428,707);
}
);
layerId = "6D97EE47-94AA-478E-ABFB-936E6C32B491";
shapes = (
{
closed = 1;
nodes = (
(699,778,l),
(660,799,l),
(154,-78,l),
(192,-100,l)
);
},
{
closed = 1;
nodes = (
(625,-14,o),
(794,155,o),
(794,360,cs),
(794,562,o),
(627,721,o),
(424,721,cs),
(218,721,o),
(50,553,o),
(50,348,cs),
(50,146,o),
(215,-14,o),
(419,-14,cs)
);
},
{
closed = 1;
nodes = (
(276,41,o),
(141,215,o),
(141,390,cs),
(141,544,o),
(248,667,o),
(395,667,cs),
(566,667,o),
(702,496,o),
(702,319,cs),
(702,165,o),
(596,41,o),
(449,41,cs)
);
}
);
width = 844;
}
);
metricLeft = O;
metricRight = O;
unicode = 216;
},
{
color = 6;
glyphname = OE;
kernLeft = O;
kernRight = E;
lastChange = "2022-03-18 09:39:33 +0000";
layers = (
{
anchors = (
{
name = BOTTOM;
pos = (774,0);
},
{
name = TOP;
pos = (764,707);
}
);
layerId = "6D97EE47-94AA-478E-ABFB-936E6C32B491";
shapes = (
{
closed = 1;
nodes = (
(459,-14,o),
(490,-9,o),
(521,0,c),
(990,0,l),
(1023,151,l),
(991,159,l),
(988,146,o),
(964,85,o),
(938,51,c),
(675,51,l),
(675,342,l),
(881,342,l),
(891,314,o),
(893,280,o),
(893,263,c),
(925,263,l),
(925,463,l),
(893,463,l),
(893,447,o),
(891,419,o),
(884,393,c),
(675,393,l),
(675,656,l),
(918,656,l),
(931,626,o),
(936,591,o),
(938,569,c),
(970,571,l),
(965,707,l),
(526,707,l),
(493,716,o),
(459,721,o),
(424,721,cs),
(218,721,o),
(50,553,o),
(50,348,cs),
(50,149,o),
(213,-14,o),
(419,-14,cs)
);
},
{
closed = 1;
nodes = (
(276,41,o),
(141,216,o),
(141,390,cs),
(141,548,o),
(250,669,o),
(406,669,cs),
(471,669,o),
(536,646,o),
(588,606,c),
(588,84,l),
(547,57,o),
(498,41,o),
(449,41,cs)
);
}
);
width = 1048;
}
);
metricLeft = O;
metricRight = E;
unicode = 338;
},
{
color = 6;
glyphname = P;
kernLeft = H;
kernRight = P;
lastChange = "2022-03-18 09:39:33 +0000";
layers = (
{
layerId = "6D97EE47-94AA-478E-ABFB-936E6C32B491";
shapes = (
{
closed = 1;
nodes = (
(322,0,l),
(322,30,l),
(301,30,o),
(258,33,o),
(225,46,c),
(225,671,l),
(238,673,o),
(251,674,o),
(264,674,cs),
(386,674,o),
(487,591,o),
(487,470,cs),
(487,381,o),
(423,309,o),
(282,300,c),
(287,268,l),
(474,261,o),
(580,375,o),
(580,491,cs),
(580,605,o),
(473,721,o),
(311,721,cs),
(236,721,o),
(178,712,o),
(51,702,c),
(54,672,l),
(69,675,o),
(110,673,o),
(138,667,c),
(138,46,l),
(108,33,o),
(69,30,o),
(50,30,c),
(50,0,l)
);
}
);
width = 630;
}
);
metricLeft = H;
metricRight = O;
unicode = 80;
},
{
color = 6;
glyphname = Thorn;
kernLeft = H;
kernRight = Thorn;
lastChange = "2022-03-18 09:39:33 +0000";
layers = (
{
anchors = (
{
name = BOTTOM;
pos = (182,0);
},
{
name = TOP;
pos = (181,707);
}
);
layerId = "6D97EE47-94AA-478E-ABFB-936E6C32B491";
shapes = (
{
closed = 1;
nodes = (
(313,0,l),
(313,30,l),
(294,30,o),
(255,33,o),
(225,46,c),
(225,512,l),
(236,514,o),
(248,515,o),
(260,515,cs),
(351,515,o),
(444,456,o),
(444,339,cs),
(444,260,o),
(389,200,o),
(266,194,c),
(270,163,l),
(441,155,o),
(532,258,o),
(532,358,cs),
(532,477,o),
(420,561,o),
(282,561,cs),
(263,561,o),
(246,559,o),
(225,556,c),
(225,661,l),
(255,674,o),
(294,677,o),
(313,677,c),
(313,707,l),
(50,707,l),
(50,677,l),
(69,677,o),
(108,674,o),
(138,661,c),
(138,46,l),
(108,33,o),
(69,30,o),
(50,30,c),
(50,0,l)
);
}
);
width = 582;
}
);
metricLeft = H;
metricRight = P;
unicode = 222;
},
{
color = 6;
glyphname = Q;
kernLeft = O;
kernRight = O;
lastChange = "2022-03-18 09:39:33 +0000";
layers = (
{
layerId = "6D97EE47-94AA-478E-ABFB-936E6C32B491";
shapes = (
{
closed = 1;
nodes = (
(853,-168,l),
(743,-158,o),
(631,-90,o),
(543,7,c),
(689,58,o),
(795,197,o),
(795,359,cs),
(795,561,o),
(627,721,o),
(424,721,cs),
(219,721,o),
(50,553,o),
(50,348,cs),
(50,149,o),
(213,-14,o),
(419,-14,cs),
(428,-14,o),
(436,-14,o),
(445,-13,c),
(561,-136,o),
(685,-190,o),
(850,-200,c)
);
},
{
closed = 1;
nodes = (
(276,41,o),
(141,216,o),
(141,390,cs),
(141,543,o),
(247,667,o),
(395,667,cs),
(566,667,o),
(702,496,o),
(702,319,cs),
(702,165,o),
(597,41,o),
(449,41,cs)
);
}
);
width = 833;
}
);
metricLeft = O;
unicode = 81;
},
{
color = 6;
glyphname = R;
kernLeft = H;
kernRight = R;
lastChange = "2022-03-18 09:39:33 +0000";
layers = (
{
anchors = (
{
name = BOTTOM;
pos = (356,0);
},
{
name = TOP;
pos = (287,707);
}
);
layerId = "6D97EE47-94AA-478E-ABFB-936E6C32B491";
shapes = (
{
closed = 1;
nodes = (
(317,0,l),
(317,30,l),
(297,30,o),
(256,33,o),
(225,46,c),
(225,317,l),
(526,343,o),
(570,519,o),
(532,613,cs),
(478,748,o),
(306,726,o),
(50,704,c),
(53,674,l),
(71,676,o),
(106,676,o),
(138,669,c),
(138,46,l),
(108,33,o),
(69,30,o),
(50,30,c),
(50,0,l)
);
},
{
closed = 1;
nodes = (
(713,0,l),
(626,33,o),
(590,65,o),
(541,128,cs),
(482,203,o),
(413,311,o),
(379,376,c),
(296,352,l),
(325,307,o),
(418,129,o),
(466,73,cs),
(519,12,o),
(566,-20,o),
(704,-29,c)
);
},
{
closed = 1;
nodes = (
(225,677,l),
(356,691,o),
(420,653,o),
(450,572,cs),
(485,477,o),
(406,361,o),
(225,353,c)
);
}
);
width = 707;
}
);
metricLeft = H;
unicode = 82;
},
{
color = 6;
glyphname = S;
kernLeft = S;
kernRight = S;
lastChange = "2022-03-18 09:39:33 +0000";
layers = (
{
anchors = (
{
name = BOTTOM;
pos = (282,0);
},
{
name = TOP;
pos = (292,707);
}
);
layerId = "6D97EE47-94AA-478E-ABFB-936E6C32B491";
shapes = (
{
closed = 1;
nodes = (
(401,-14,o),
(503,50,o),
(503,168,cs),
(503,400,o),
(179,402,o),
(179,560,cs),
(179,626,o),
(244,675,o),
(321,675,cs),
(405,675,o),
(445,620,o),
(456,536,c),
(489,540,l),
(467,702,l),
(441,707,o),
(389,721,o),
(328,721,cs),
(197,721,o),
(91,660,o),
(91,537,cs),
(91,334,o),
(412,316,o),
(412,155,cs),
(412,79,o),
(350,33,o),
(262,33,cs),
(154,33,o),
(105,106,o),
(79,221,c),
(46,215,l),
(77,23,l),
(83,15,o),
(178,-14,o),
(272,-14,cs)
);
}
);
width = 554;
}
);
unicode = 83;
},
{
color = 6;
glyphname = Germandbls;
kernLeft = H;
kernRight = B;
lastChange = "2022-03-18 09:39:33 +0000";
layers = (
{
layerId = "6D97EE47-94AA-478E-ABFB-936E6C32B491";
shapes = (
{
closed = 1;
nodes = (
(638,-14,o),
(713,67,o),
(713,170,cs),
(713,290,o),
(596,386,o),
(476,472,c),
(479,425,l),
(604,625,l),
(533,692,o),
(465,721,o),
(374,721,cs),
(314,721,o),
(246,698,o),
(199,653,cs),
(120,577,o),
(116,472,o),
(116,379,cs),
(116,46,l),
(86,33,o),
(47,30,o),
(28,30,c),
(28,0,l),
(283,0,l),
(283,30,l),
(266,30,o),
(231,33,o),
(204,46,c),
(204,418,ls),
(204,561,o),
(219,671,o),
(350,671,cs),
(434,671,o),
(493,616,o),
(539,555,c),
(543,605,l),
(415,397,l),
(536,305,o),
(638,232,o),
(638,141,cs),
(638,80,o),
(588,32,o),
(520,32,cs),
(438,32,o),
(381,110,o),
(359,219,c),
(325,212,l),
(355,24,l),
(384,6,o),
(458,-14,o),
(504,-14,cs)
);
}
);
width = 738;
}
);
metricRight = B;
unicode = 7838;
},
{
color = 6;
glyphname = T;
kernLeft = T;
kernRight = T;
lastChange = "2022-03-18 09:39:33 +0000";
layers = (
{
anchors = (
{
name = BOTTOM;
pos = (319,0);
},
{
name = TOP;
pos = (319,707);
}
);
layerId = "6D97EE47-94AA-478E-ABFB-936E6C32B491";
shapes = (
{
closed = 1;
nodes = (
(450,0,l),
(450,30,l),
(431,30,o),
(392,33,o),
(362,46,c),
(362,656,l),
(567,656,l),
(573,610,o),
(572,570,o),
(571,531,c),
(602,528,l),
(628,707,l),
(10,707,l),
(10,531,l),
(42,531,l),
(48,571,o),
(54,612,o),
(66,656,c),
(275,656,l),
(275,46,l),
(245,33,o),
(206,30,o),
(187,30,c),
(187,0,l)
);
}
);
width = 638;
}
);
unicode = 84;
},
{
color = 3;
glyphname = Tbar;
kernLeft = T;
kernRight = T;
lastChange = "2022-03-18 09:39:33 +0000";
layers = (
{
layerId = "6D97EE47-94AA-478E-ABFB-936E6C32B491";
shapes = (
{
closed = 1;
nodes = (
(494,339,l),
(494,381,l),
(144,381,l),
(144,339,l)
);
},
{
ref = T;
}
);
width = 638;
}
);
metricLeft = T;
metricRight = T;
unicode = 358;
},
{
color = 6;
glyphname = U;
kernLeft = U;
kernRight = U;
lastChange = "2022-03-18 09:39:33 +0000";
layers = (
{
anchors = (
{
name = BOTTOM;
pos = (437,0);
},
{
name = TOP;
pos = (436,707);
}
);
layerId = "6D97EE47-94AA-478E-ABFB-936E6C32B491";
shapes = (
{
closed = 1;
nodes = (
(506,-14,o),
(647,15,o),
(688,139,cs),
(708,199,o),
(706,306,o),
(706,393,cs),
(706,661,l),
(736,674,o),
(775,677,o),
(794,677,c),
(794,707,l),
(562,707,l),
(562,677,l),
(581,677,o),
(620,674,o),
(650,661,c),
(650,400,ls),
(650,305,o),
(653,218,o),
(637,162,cs),
(611,76,o),
(528,38,o),
(433,38,cs),
(335,38,o),
(263,97,o),
(240,166,cs),
(223,220,o),
(225,338,o),
(225,389,cs),
(225,661,l),
(255,674,o),
(294,677,o),
(313,677,c),
(313,707,l),
(50,707,l),
(50,677,l),
(69,677,o),
(108,674,o),
(138,661,c),
(138,384,ls),
(138,281,o),
(139,192,o),
(163,134,cs),
(213,18,o),
(340,-14,o),
(423,-14,cs)
);
}
);
width = 834;
}
);
metricLeft = H;
metricRight = "=H-10";
unicode = 85;
},
{
color = 6;
glyphname = V;
kernRight = V;
lastChange = "2022-03-18 09:39:33 +0000";
layers = (
{
layerId = "6D97EE47-94AA-478E-ABFB-936E6C32B491";
shapes = (
{
closed = 1;
nodes = (
(376,-14,l),
(652,661,l),
(676,674,o),
(707,677,o),
(722,677,c),
(722,707,l),
(509,707,l),
(509,677,l),
(528,677,o),
(567,674,o),
(597,661,c),
(363,91,l),
(390,91,l),
(177,661,l),
(207,674,o),
(246,677,o),
(265,677,c),
(265,707,l),
(4,707,l),
(4,677,l),
(21,677,o),
(56,674,o),
(83,661,c),
(335,-14,l)
);
}
);
width = 726;
}
);
unicode = 86;
},
{
color = 6;
glyphname = W;
kernRight = W;
lastChange = "2022-03-18 09:39:33 +0000";
layers = (
{
layerId = "6D97EE47-94AA-478E-ABFB-936E6C32B491";
shapes = (
{
closed = 1;
nodes = (
(296,-14,l),
(513,518,l),
(486,518,l),
(694,-14,l),
(735,-14,l),
(901,661,l),
(926,674,o),
(958,677,o),
(973,677,c),
(973,707,l),
(761,707,l),
(761,677,l),
(780,677,o),
(819,674,o),
(848,661,c),
(715,117,l),
(737,118,l),
(540,619,l),
(499,619,l),
(291,109,l),
(314,108,l),
(171,661,l),
(200,674,o),
(239,677,o),
(258,677,c),
(258,707,l),
(4,707,l),
(4,677,l),
(20,677,o),
(54,674,o),
(80,662,c),
(255,-14,l)
);
}
);
width = 949;
}
);
metricLeft = V;
unicode = 87;
},
{
color = 6;
glyphname = X;
kernRight = X;
lastChange = "2022-03-18 09:39:33 +0000";
layers = (
{
layerId = "6D97EE47-94AA-478E-ABFB-936E6C32B491";
shapes = (
{
closed = 1;
nodes = (
(671,0,l),
(671,30,l),
(654,30,o),
(620,33,o),
(594,46,c),
(194,661,l),
(224,674,o),
(263,677,o),
(282,677,c),
(282,707,l),
(12,707,l),
(12,677,l),
(28,677,o),
(62,674,o),
(88,662,c),
(488,46,l),
(458,33,o),
(420,30,o),
(401,30,c),
(401,0,l)
);
},
{
closed = 1;
nodes = (
(227,0,l),
(227,30,l),
(208,30,o),
(169,33,o),
(139,46,c),
(334,325,l),
(303,372,l),
(76,46,l),
(51,33,o),
(19,30,o),
(4,30,c),
(4,0,l)
);
},
{
closed = 1;
nodes = (
(578,661,l),
(603,674,o),
(634,677,o),
(649,677,c),
(649,707,l),
(427,707,l),
(427,677,l),
(446,677,o),
(485,674,o),
(515,661,c),
(333,402,l),
(365,357,l)
);
}
);
width = 675;
}
);
unicode = 88;
},
{
color = 6;
glyphname = Y;
kernRight = V;
lastChange = "2022-03-18 09:39:33 +0000";
layers = (
{
anchors = (
{
name = TOP;
pos = (339,707);
}
);
layerId = "6D97EE47-94AA-478E-ABFB-936E6C32B491";
shapes = (
{
closed = 1;
nodes = (
(466,0,l),
(466,30,l),
(447,30,o),
(408,33,o),
(378,46,c),
(378,303,l),
(577,662,l),
(602,674,o),
(633,677,o),
(648,677,c),
(648,707,l),
(431,707,l),
(431,677,l),
(450,677,o),
(489,674,o),
(519,661,c),
(331,325,l),
(367,325,l),
(181,661,l),
(211,674,o),
(249,677,o),
(268,677,c),
(268,707,l),
(4,707,l),
(4,677,l),
(20,677,o),
(54,674,o),
(80,661,c),
(291,280,l),
(291,46,l),
(261,33,o),
(222,30,o),
(203,30,c),
(203,0,l)
);
}
);
width = 652;
}
);
unicode = 89;
},
{
color = 6;
glyphname = Z;
kernRight = Z;
lastChange = "2022-03-18 09:39:33 +0000";
layers = (
{
anchors = (
{
name = TOP;
pos = (289,707);
}
);
layerId = "6D97EE47-94AA-478E-ABFB-936E6C32B491";
shapes = (
{
closed = 1;
nodes = (
(556,0,l),
(595,167,l),
(564,175,l),
(560,161,o),
(531,90,o),
(500,51,c),
(139,51,l),
(555,669,l),
(538,707,l),
(43,707,l),
(36,536,l),
(68,534,l),
(76,574,o),
(82,613,o),
(94,656,c),
(440,656,l),
(25,38,l),
(40,0,l)
);
}
);
width = 620;
}
);
metricLeft = "=H/2";
metricRight = "=H/2";
unicode = 90;
},
{
color = 6;
glyphname = K.ss01;
kernRight = K.ss01;
lastChange = "2022-03-18 09:39:33 +0000";
layers = (
{
anchors = (
{
name = BOTTOM;
pos = (356,0);
}
);
layerId = "6D97EE47-94AA-478E-ABFB-936E6C32B491";
shapes = (
{
closed = 1;
nodes = (
(857,-184,l),
(768,-157,o),
(736,-116,o),
(683,-57,cs),
(620,13,o),
(374,333,o),
(331,392,c),
(581,661,l),
(611,674,o),
(649,677,o),
(668,677,c),
(668,707,l),
(440,707,l),
(440,677,l),
(455,677,o),
(487,674,o),
(512,661,c),
(243,373,l),
(275,331,o),
(563,-67,o),
(614,-119,cs),
(670,-177,o),
(713,-213,o),
(850,-214,c)
);
},
{
closed = 1;
nodes = (
(317,0,l),
(317,30,l),
(297,30,o),
(256,33,o),
(225,46,c),
(225,661,l),
(255,674,o),
(294,677,o),
(313,677,c),
(313,707,l),
(50,707,l),
(50,677,l),
(69,677,o),
(108,674,o),
(138,661,c),
(138,46,l),
(108,33,o),
(69,30,o),
(50,30,c),
(50,0,l)
);
}
);
width = 657;
}
);
metricLeft = K;
},
{
color = 6;
glyphname = Q.ss01;
kernRight = Q.ss01;
lastChange = "2022-03-18 09:39:33 +0000";
layers = (
{
layerId = "6D97EE47-94AA-478E-ABFB-936E6C32B491";
shapes = (
{
closed = 1;
nodes = (
(625,-14,o),
(795,154,o),
(795,359,cs),
(795,561,o),
(627,721,o),
(424,721,cs),
(219,721,o),
(50,553,o),
(50,348,cs),
(50,149,o),
(213,-14,o),
(419,-14,cs)
);
},
{
closed = 1;
nodes = (
(276,41,o),
(141,216,o),
(141,390,cs),
(141,543,o),
(247,667,o),
(395,667,cs),
(566,667,o),
(702,496,o),
(702,319,cs),
(702,165,o),
(597,41,o),
(449,41,cs)
);
},
{
closed = 1;
nodes = (
(1166,-251,o),
(1314,-221,o),
(1456,-126,c),
(1437,-101,l),
(1361,-149,o),
(1279,-178,o),
(1134,-175,cs),
(986,-172,o),
(620,1,o),
(534,34,c),
(385,0,l),
(475,-16,o),
(854,-206,o),
(997,-227,cs)
);
}
);
width = 849;
}
);
metricLeft = O;
},
{
color = 6;
glyphname = R.ss01;
kernLeft = H;
kernRight = R.ss01;
lastChange = "2022-03-18 09:39:33 +0000";
layers = (
{
anchors = (
{
name = BOTTOM;
pos = (356,0);
},
{
name = TOP;
pos = (287,707);
}
);
layerId = "6D97EE47-94AA-478E-ABFB-936E6C32B491";
shapes = (
{
closed = 1;
nodes = (
(317,0,l),
(317,30,l),
(297,30,o),
(256,33,o),
(225,46,c),
(225,317,l),
(526,343,o),
(570,519,o),
(532,613,cs),
(478,748,o),
(306,726,o),
(50,704,c),
(53,672,l),
(71,673,o),
(108,675,o),
(138,665,c),
(138,46,l),
(108,33,o),
(69,30,o),
(50,30,c),
(50,0,l)
);
},
{
closed = 1;
nodes = (
(837,-185,l),
(750,-152,o),
(714,-120,o),
(665,-57,cs),
(607,17,o),
(416,311,o),
(379,376,c),
(296,352,l),
(325,307,o),
(542,-56,o),
(590,-112,cs),
(643,-173,o),
(690,-205,o),
(828,-214,c)
);
},
{
closed = 1;
nodes = (
(225,677,l),
(356,691,o),
(420,653,o),
(450,572,cs),
(485,477,o),
(406,361,o),
(225,353,c)
);
}
);
width = 637;
}
);
metricLeft = R;
},
{
color = 6;
glyphname = Y.ss01;
kernRight = V;
lastChange = "2022-03-18 09:39:33 +0000";
layers = (
{
anchors = (
{
name = TOP;
pos = (301,707);
}
);
layerId = "6D97EE47-94AA-478E-ABFB-936E6C32B491";
shapes = (
{
closed = 1;
nodes = (
(430,0,l),
(430,30,l),
(411,30,o),
(372,33,o),
(342,46,c),
(342,245,ls),
(342,447,o),
(426,624,o),
(582,700,c),
(570,728,l),
(446,678,o),
(359,587,o),
(308,470,c),
(256,598,o),
(150,690,o),
(16,728,c),
(4,698,l),
(150,628,o),
(254,435,o),
(254,249,cs),
(254,46,l),
(224,33,o),
(185,30,o),
(166,30,c),
(166,0,l)
);
}
);
width = 586;
}
);
metricLeft = Y;
metricRight = Y;
},
{
color = 6;
glyphname = Z.ss01;
kernRight = Z;
lastChange = "2022-03-18 09:39:33 +0000";
layers = (
{
anchors = (
{
name = TOP;
pos = (279,707);
}
);
layerId = "6D97EE47-94AA-478E-ABFB-936E6C32B491";
shapes = (
{
closed = 1;
nodes = (
(522,0,l),
(561,167,l),
(530,175,l),
(527,164,o),
(508,118,o),
(486,80,c),
(125,80,l),
(521,669,l),
(504,707,l),
(43,707,l),
(36,536,l),
(68,534,l),
(74,565,o),
(79,596,o),
(87,629,c),
(422,629,l),
(25,38,l),
(40,0,l)
);
}
);
width = 586;
}
);
metricLeft = Z;
metricRight = Z;
},
{
color = 6;
glyphname = A.ss10;
lastChange = "2022-03-18 09:39:33 +0000";
layers = (
{
layerId = "6D97EE47-94AA-478E-ABFB-936E6C32B491";
shapes = (
{
closed = 1;
nodes = (
(1305,-440,l),
(1305,1117,l),
(100,1117,l),
(100,-440,l)
);
},
{
closed = 1;
nodes = (
(180,1037,l),
(1225,1037,l),
(1225,-360,l),
(180,-360,l)
);
},
{
closed = 1;
nodes = (
(1201,-336,l),
(1201,1013,l),
(204,1013,l),
(204,-336,l)
);
},
{
closed = 1;
nodes = (
(344,30,l),
(359,30,o),
(390,33,o),
(415,45,c),
(667,665,l),
(652,707,l),
(734,737,l),
(985,46,l),
(1011,33,o),
(1045,30,o),
(1061,30,c),
(1061,0,l),
(804,0,l),
(804,30,l),
(823,30,o),
(862,33,o),
(892,46,c),
(818,249,l),
(556,249,l),
(473,46,l),
(503,33,o),
(542,30,o),
(561,30,c),
(561,0,l),
(344,0,l)
);
},
{
closed = 1;
nodes = (
(800,300,l),
(695,589,l),
(577,300,l)
);
}
);
width = 1405;
}
);
},
{
color = 6;
glyphname = B.ss10;
lastChange = "2022-03-18 09:39:33 +0000";
layers = (
{
layerId = "6D97EE47-94AA-478E-ABFB-936E6C32B491";
shapes = (
{
closed = 1;
nodes = (
(1138,-440,l),
(1138,1117,l),
(100,1117,l),
(100,-440,l)
);
},
{
closed = 1;
nodes = (
(781,77,o),
(818,136,o),
(798,217,cs),
(783,276,o),
(739,316,o),
(686,334,cs),
(632,354,o),
(569,349,o),
(519,349,c),
(519,69,l),
(546,46,o),
(642,33,o),
(709,54,cs)
);
},
{
closed = 1;
nodes = (
(180,1037,l),
(1058,1037,l),
(1058,-360,l),
(180,-360,l)
);
},
{
closed = 1;
nodes = (
(1034,-336,l),
(1034,1013,l),
(204,1013,l),
(204,-336,l)
);
},
{
closed = 1;
nodes = (
(344,30,l),
(363,30,o),
(402,33,o),
(432,46,c),
(432,669,l),
(400,676,o),
(365,676,o),
(347,674,c),
(344,704,l),
(501,716,o),
(561,721,o),
(630,721,cs),
(734,721,o),
(789,678,o),
(814,622,cs),
(853,535,o),
(802,432,o),
(730,398,c),
(779,382,o),
(867,332,o),
(889,238,cs),
(914,137,o),
(841,0,o),
(654,0,cs),
(344,0,l)
);
},
{
closed = 1;
nodes = (
(543,394,o),
(643,388,o),
(690,419,cs),
(734,447,o),
(761,521,o),
(733,588,cs),
(698,671,o),
(625,686,o),
(519,673,c),
(519,395,l)
);
}
);
width = 1238;
}
);
},
{
color = 6;
glyphname = C.ss10;
lastChange = "2022-03-18 09:39:33 +0000";
layers = (
{
layerId = "6D97EE47-94AA-478E-ABFB-936E6C32B491";
shapes = (
{
closed = 1;
nodes = (
(1255,-440,l),
(1255,1117,l),
(100,1117,l),
(100,-440,l)
);
},
{
closed = 1;
nodes = (
(609,-73,o),
(409,61,o),
(357,257,cs),
(304,453,o),
(426,656,o),
(623,708,cs),
(744,741,o),
(881,706,o),
(948,688,c),
(968,546,l),
(938,540,l),
(890,667,o),
(753,692,o),
(635,661,cs),
(487,622,o),
(409,456,o),
(454,283,cs),
(495,123,o),
(649,5,o),
(800,38,cs),
(883,56,o),
(924,87,o),
(981,176,c),
(1011,161,l),
(933,13,l)
);
},
{
closed = 1;
nodes = (
(180,1037,l),
(1175,1037,l),
(1175,-360,l),
(180,-360,l)
);
},
{
closed = 1;
nodes = (
(1151,-336,l),
(1151,1013,l),
(204,1013,l),
(204,-336,l)
);
}
);
width = 1355;
}
);
},
{
color = 6;
glyphname = D.ss10;
lastChange = "2022-03-18 09:39:33 +0000";
layers = (
{
layerId = "6D97EE47-94AA-478E-ABFB-936E6C32B491";
shapes = (
{
closed = 1;
nodes = (
(1320,-440,l),
(1320,1117,l),
(100,1117,l),
(100,-440,l)
);
},
{
closed = 1;
nodes = (
(180,1037,l),
(1240,1037,l),
(1240,-360,l),
(180,-360,l)
);
},
{
closed = 1;
nodes = (
(1216,-336,l),
(1216,1013,l),
(204,1013,l),
(204,-336,l)
);
},
{
closed = 1;
nodes = (
(344,30,l),
(363,30,o),
(402,33,o),
(432,46,c),
(432,664,l),
(400,671,o),
(365,671,o),
(347,669,c),
(344,699,l),
(435,707,o),
(531,721,o),
(626,721,cs),
(884,721,o),
(1076,597,o),
(1076,364,cs),
(1076,203,o),
(952,62,o),
(789,19,cs),
(745,7,o),
(667,0,o),
(604,0,cs),
(344,0,l)
);
},
{
closed = 1;
nodes = (
(842,47,o),
(978,157,o),
(978,337,cs),
(978,544,o),
(820,674,o),
(604,674,cs),
(577,674,o),
(549,672,o),
(519,668,c),
(519,69,l),
(553,56,o),
(596,47,o),
(647,47,cs)
);
}
);
width = 1420;
}
);
},
{
color = 6;
glyphname = E.ss10;
lastChange = "2022-03-18 09:39:33 +0000";
layers = (
{
layerId = "6D97EE47-94AA-478E-ABFB-936E6C32B491";
shapes = (
{
closed = 1;
nodes = (
(1111,-440,l),
(1111,1117,l),
(100,1117,l),
(100,-440,l)
);
},
{
closed = 1;
nodes = (
(180,1037,l),
(1031,1037,l),
(1031,-360,l),
(180,-360,l)
);
},
{
closed = 1;
nodes = (
(1007,-336,l),
(1007,1013,l),
(204,1013,l),
(204,-336,l)
);
},
{
closed = 1;
nodes = (
(344,30,l),
(363,30,o),
(402,33,o),
(432,46,c),
(432,661,l),
(402,674,o),
(363,677,o),
(344,677,c),
(344,707,l),
(809,707,l),
(814,571,l),
(782,569,l),
(780,592,o),
(775,626,o),
(762,656,c),
(519,656,l),
(519,393,l),
(728,393,l),
(735,419,o),
(737,447,o),
(737,463,c),
(769,463,l),
(769,263,l),
(737,263,l),
(737,280,o),
(735,314,o),
(725,342,c),
(519,342,l),
(519,51,l),
(782,51,l),
(808,85,o),
(832,146,o),
(835,159,c),
(867,151,l),
(834,0,l),
(344,0,l)
);
}
);
width = 1211;
}
);
},
{
color = 6;
glyphname = F.ss10;
lastChange = "2022-03-18 09:39:33 +0000";
layers = (
{
layerId = "6D97EE47-94AA-478E-ABFB-936E6C32B491";
shapes = (
{
closed = 1;
nodes = (
(1058,-440,l),
(1058,1117,l),
(100,1117,l),
(100,-440,l)
);
},
{
closed = 1;
nodes = (
(180,1037,l),
(978,1037,l),
(978,-360,l),
(180,-360,l)
);
},
{
closed = 1;
nodes = (
(954,-336,l),
(954,1013,l),
(204,1013,l),
(204,-336,l)
);
},
{
closed = 1;
nodes = (
(344,30,l),
(363,30,o),
(402,33,o),
(432,46,c),
(432,661,l),
(402,674,o),
(363,677,o),
(344,677,c),
(344,707,l),
(809,707,l),
(814,571,l),
(782,569,l),
(780,592,o),
(775,626,o),
(762,656,c),
(519,656,l),
(519,382,l),
(724,382,l),
(732,408,o),
(734,437,o),
(734,452,c),
(764,452,l),
(764,252,l),
(734,252,l),
(734,269,o),
(732,303,o),
(722,331,c),
(519,331,l),
(519,46,l),
(552,33,o),
(595,30,o),
(616,30,c),
(616,0,l),
(344,0,l)
);
}
);
width = 1158;
}
);
},
{
color = 6;
glyphname = G.ss10;
lastChange = "2022-03-18 09:39:33 +0000";
layers = (
{
anchors = (
{
name = BOTTOM;
pos = (724,0);
},
{
name = TOP;
pos = (724,707);
}
);
layerId = "6D97EE47-94AA-478E-ABFB-936E6C32B491";
shapes = (
{
closed = 1;
nodes = (
(1298,-440,l),
(1298,1117,l),
(100,1117,l),
(100,-440,l)
);
},
{
closed = 1;
nodes = (
(543,-3,o),
(400,87,o),
(356,256,cs),
(304,452,o),
(425,654,o),
(621,707,cs),
(743,739,o),
(903,705,o),
(968,686,c),
(989,544,l),
(959,538,l),
(911,666,o),
(752,691,o),
(634,659,cs),
(485,620,o),
(408,454,o),
(453,281,cs),
(494,122,o),
(677,-49,o),
(912,69,c),
(912,220,l),
(882,233,o),
(842,236,o),
(824,236,c),
(824,268,l),
(1054,268,l),
(1054,236,l),
(1038,236,o),
(1010,227,o),
(999,220,c),
(999,75,l),
(1003,66,o),
(1015,56,o),
(1025,51,c),
(1025,16,l),
(930,11,o),
(835,-22,o),
(709,-13,cs)
);
},
{
closed = 1;
nodes = (
(180,1037,l),
(1218,1037,l),
(1218,-360,l),
(180,-360,l)
);
},
{
closed = 1;
nodes = (
(1194,-336,l),
(1194,1013,l),
(204,1013,l),
(204,-336,l)
);
}
);
width = 1398;
}
);
},
{
color = 6;
glyphname = H.ss10;
lastChange = "2022-03-18 09:39:33 +0000";
layers = (
{
layerId = "6D97EE47-94AA-478E-ABFB-936E6C32B491";
shapes = (
{
closed = 1;
nodes = (
(1338,-440,l),
(1338,1117,l),
(100,1117,l),
(100,-440,l)
);
},
{
closed = 1;
nodes = (
(180,1037,l),
(1258,1037,l),
(1258,-360,l),
(180,-360,l)
);
},
{
closed = 1;
nodes = (
(1234,-336,l),
(1234,1013,l),
(204,1013,l),
(204,-336,l)
);
},
{
closed = 1;
nodes = (
(344,30,l),
(363,30,o),
(402,33,o),
(432,46,c),
(432,661,l),
(402,674,o),
(363,677,o),
(344,677,c),
(344,707,l),
(607,707,l),
(607,677,l),
(588,677,o),
(549,674,o),
(519,661,c),
(519,399,l),
(919,399,l),
(919,661,l),
(889,674,o),
(850,677,o),
(831,677,c),
(831,707,l),
(1094,707,l),
(1094,677,l),
(1075,677,o),
(1036,674,o),
(1006,661,c),
(1006,46,l),
(1036,33,o),
(1075,30,o),
(1094,30,c),
(1094,0,l),
(831,0,l),
(831,30,l),
(850,30,o),
(889,33,o),
(919,46,c),
(919,348,l),
(519,348,l),
(519,46,l),
(549,33,o),
(588,30,o),
(607,30,c),
(607,0,l),
(344,0,l)
);
}
);
width = 1438;
}
);
},
{
color = 6;
glyphname = I.ss10;
lastChange = "2022-03-18 09:39:33 +0000";
layers = (
{
anchors = (
{
name = BOTTOM;
pos = (476,0);
},
{
name = TOP;
pos = (475,707);
}
);
layerId = "6D97EE47-94AA-478E-ABFB-936E6C32B491";
shapes = (
{
closed = 1;
nodes = (
(851,-440,l),
(851,1117,l),
(100,1117,l),
(100,-440,l)
);
},
{
closed = 1;
nodes = (
(180,1037,l),
(771,1037,l),
(771,-360,l),
(180,-360,l)
);
},
{
closed = 1;
nodes = (
(747,-336,l),
(747,1013,l),
(204,1013,l),
(204,-336,l)
);
},
{
closed = 1;
nodes = (
(344,30,l),
(363,30,o),
(402,33,o),
(432,46,c),
(432,661,l),
(402,674,o),
(363,677,o),
(344,677,c),
(344,707,l),
(607,707,l),
(607,677,l),
(588,677,o),
(549,674,o),
(519,661,c),
(519,46,l),
(549,33,o),
(588,30,o),
(607,30,c),
(607,0,l),
(344,0,l)
);
}
);
width = 951;
}
);
},
{
color = 6;
glyphname = J.ss10;
lastChange = "2022-03-18 09:39:33 +0000";
layers = (
{
layerId = "6D97EE47-94AA-478E-ABFB-936E6C32B491";
shapes = (
{
closed = 1;
nodes = (
(894,-440,l),
(894,1117,l),
(100,1117,l),
(100,-440,l)
);
},
{
closed = 1;
nodes = (
(344,-163,l),
(381,-130,o),
(439,-54,o),
(464,41,cs),
(471,67,o),
(474,94,o),
(474,120,cs),
(474,661,l),
(444,674,o),
(405,677,o),
(386,677,c),
(386,707,l),
(650,707,l),
(650,677,l),
(631,677,o),
(592,674,o),
(562,661,c),
(562,100,l),
(519,-75,o),
(390,-171,o),
(366,-186,c)
);
},
{
closed = 1;
nodes = (
(180,1037,l),
(814,1037,l),
(814,-360,l),
(180,-360,l)
);
},
{
closed = 1;
nodes = (
(790,-336,l),
(790,1013,l),
(204,1013,l),
(204,-336,l)
);
}
);
width = 994;
}
);
},
{
color = 6;
glyphname = K.ss10;
lastChange = "2022-03-18 09:39:33 +0000";
layers = (
{
anchors = (
{
name = BOTTOM;
pos = (650,0);
}
);
layerId = "6D97EE47-94AA-478E-ABFB-936E6C32B491";
shapes = (
{
closed = 1;
nodes = (
(1250,-440,l),
(1250,1117,l),
(100,1117,l),
(100,-440,l)
);
},
{
closed = 1;
nodes = (
(344,30,l),
(363,30,o),
(402,33,o),
(432,46,c),
(432,661,l),
(402,674,o),
(363,677,o),
(344,677,c),
(344,707,l),
(607,707,l),
(607,677,l),
(588,677,o),
(549,674,o),
(519,661,c),
(519,46,l),
(550,33,o),
(591,30,o),
(611,30,c),
(611,0,l),
(344,0,l)
);
},
{
closed = 1;
nodes = (
(180,1037,l),
(1170,1037,l),
(1170,-360,l),
(180,-360,l)
);
},
{
closed = 1;
nodes = (
(1146,-336,l),
(1146,1013,l),
(204,1013,l),
(204,-336,l)
);
},
{
closed = 1;
nodes = (
(862,-29,o),
(819,7,o),
(763,65,cs),
(712,117,o),
(569,331,o),
(537,373,c),
(806,661,l),
(781,674,o),
(749,677,o),
(734,677,c),
(734,707,l),
(962,707,l),
(962,677,l),
(943,677,o),
(905,674,o),
(875,661,c),
(625,392,l),
(668,333,o),
(769,197,o),
(832,127,cs),
(885,68,o),
(917,27,o),
(1006,0,c),
(999,-30,l)
);
}
);
width = 1350;
}
);
},
{
color = 6;
glyphname = L.ss10;
lastChange = "2022-03-18 09:39:33 +0000";
layers = (
{
layerId = "6D97EE47-94AA-478E-ABFB-936E6C32B491";
shapes = (
{
closed = 1;
nodes = (
(1124,-440,l),
(1124,1117,l),
(100,1117,l),
(100,-440,l)
);
},
{
closed = 1;
nodes = (
(180,1037,l),
(1044,1037,l),
(1044,-360,l),
(180,-360,l)
);
},
{
closed = 1;
nodes = (
(1020,-336,l),
(1020,1013,l),
(204,1013,l),
(204,-336,l)
);
},
{
closed = 1;
nodes = (
(344,30,l),
(363,30,o),
(402,33,o),
(432,46,c),
(432,661,l),
(402,674,o),
(363,677,o),
(344,677,c),
(344,707,l),
(607,707,l),
(607,677,l),
(588,677,o),
(549,674,o),
(519,661,c),
(519,51,l),
(787,51,l),
(810,77,o),
(841,139,o),
(849,158,c),
(880,148,l),
(834,0,l),
(344,0,l)
);
}
);
width = 1224;
}
);
},
{
color = 6;
glyphname = M.ss10;
lastChange = "2022-03-18 09:39:33 +0000";
layers = (
{
layerId = "6D97EE47-94AA-478E-ABFB-936E6C32B491";
shapes = (
{
closed = 1;
nodes = (
(1447,-440,l),
(1447,1117,l),
(100,1117,l),
(100,-440,l)
);
},
{
closed = 1;
nodes = (
(180,1037,l),
(1367,1037,l),
(1367,-360,l),
(180,-360,l)
);
},
{
closed = 1;
nodes = (
(1343,-336,l),
(1343,1013,l),
(204,1013,l),
(204,-336,l)
);
},
{
closed = 1;
nodes = (
(342,30,l),
(361,30,o),
(400,33,o),
(430,46,c),
(457,661,l),
(427,674,o),
(388,677,o),
(369,677,c),
(369,707,l),
(547,707,l),
(782,133,l),
(750,134,l),
(1031,707,l),
(1178,707,l),
(1178,677,l),
(1159,677,o),
(1121,674,o),
(1091,661,c),
(1115,46,l),
(1145,33,o),
(1184,30,o),
(1203,30,c),
(1203,0,l),
(939,0,l),
(939,30,l),
(958,30,o),
(997,33,o),
(1027,46,c),
(1008,544,l),
(741,0,l),
(509,568,l),
(486,46,l),
(516,33,o),
(555,30,o),
(574,30,c),
(574,0,l),
(342,0,l)
);
}
);
width = 1547;
}
);
},
{
color = 6;
glyphname = N.ss10;
lastChange = "2022-03-18 09:39:33 +0000";
layers = (
{
layerId = "6D97EE47-94AA-478E-ABFB-936E6C32B491";
shapes = (
{
closed = 1;
nodes = (
(1314,-440,l),
(1314,1117,l),
(100,1117,l),
(100,-440,l)
);
},
{
closed = 1;
nodes = (
(180,1037,l),
(1234,1037,l),
(1234,-360,l),
(180,-360,l)
);
},
{
closed = 1;
nodes = (
(1210,-336,l),
(1210,1013,l),
(204,1013,l),
(204,-336,l)
);
},
{
closed = 1;
nodes = (
(488,582,l),
(488,46,l),
(518,33,o),
(557,30,o),
(576,30,c),
(576,0,l),
(344,0,l),
(344,30,l),
(363,30,o),
(402,33,o),
(432,46,c),
(432,661,l),
(402,674,o),
(363,677,o),
(344,677,c),
(344,707,l),
(503,707,l),
(926,147,l),
(926,661,l),
(896,674,o),
(857,677,o),
(838,677,c),
(838,707,l),
(1070,707,l),
(1070,677,l),
(1051,677,o),
(1012,674,o),
(982,661,c),
(982,-14,l),
(937,-14,l)
);
}
);
width = 1414;
}
);
},
{
color = 6;
glyphname = O.ss10;
lastChange = "2022-03-18 09:39:33 +0000";
layers = (
{
layerId = "6D97EE47-94AA-478E-ABFB-936E6C32B491";
shapes = (
{
closed = 1;
nodes = (
(1332,-440,l),
(1332,1117,l),
(100,1117,l),
(100,-440,l)
);
},
{
closed = 1;
nodes = (
(180,1037,l),
(1252,1037,l),
(1252,-360,l),
(180,-360,l)
);
},
{
closed = 1;
nodes = (
(1228,-336,l),
(1228,1013,l),
(204,1013,l),
(204,-336,l)
);
},
{
closed = 1;
nodes = (
(509,-14,o),
(344,146,o),
(344,348,cs),
(344,553,o),
(512,721,o),
(718,721,cs),
(921,721,o),
(1088,562,o),
(1088,360,cs),
(1088,155,o),
(919,-14,o),
(713,-14,cs)
);
},
{
closed = 1;
nodes = (
(890,41,o),
(996,165,o),
(996,319,cs),
(996,496,o),
(860,667,o),
(689,667,cs),
(542,667,o),
(435,544,o),
(435,390,cs),
(435,215,o),
(570,41,o),
(743,41,cs)
);
}
);
width = 1432;
}
);
},
{
color = 6;
glyphname = P.ss10;
lastChange = "2022-03-18 09:39:33 +0000";
layers = (
{
layerId = "6D97EE47-94AA-478E-ABFB-936E6C32B491";
shapes = (
{
closed = 1;
nodes = (
(1118,-440,l),
(1118,1117,l),
(100,1117,l),
(100,-440,l)
);
},
{
closed = 1;
nodes = (
(180,1037,l),
(1038,1037,l),
(1038,-360,l),
(180,-360,l)
);
},
{
closed = 1;
nodes = (
(1014,-336,l),
(1014,1013,l),
(204,1013,l),
(204,-336,l)
);
},
{
closed = 1;
nodes = (
(344,30,l),
(363,30,o),
(402,33,o),
(432,46,c),
(432,667,l),
(404,673,o),
(363,675,o),
(348,672,c),
(345,702,l),
(472,712,o),
(530,721,o),
(605,721,cs),
(767,721,o),
(874,605,o),
(874,491,cs),
(874,375,o),
(768,261,o),
(581,268,c),
(576,300,l),
(717,309,o),
(781,381,o),
(781,470,cs),
(781,591,o),
(680,674,o),
(558,674,cs),
(545,674,o),
(532,673,o),
(519,671,c),
(519,46,l),
(552,33,o),
(595,30,o),
(616,30,c),
(616,0,l),
(344,0,l)
);
}
);
width = 1218;
}
);
},
{
color = 6;
glyphname = Q.ss10;
lastChange = "2022-03-18 09:39:33 +0000";
layers = (
{
layerId = "6D97EE47-94AA-478E-ABFB-936E6C32B491";
shapes = (
{
closed = 1;
nodes = (
(1391,-440,l),
(1391,1117,l),
(100,1117,l),
(100,-440,l)
);
},
{
closed = 1;
nodes = (
(979,-190,o),
(855,-136,o),
(739,-13,c),
(730,-14,o),
(722,-14,o),
(713,-14,cs),
(507,-14,o),
(344,149,o),
(344,348,cs),
(344,553,o),
(513,721,o),
(718,721,cs),
(921,721,o),
(1089,561,o),
(1089,359,cs),
(1089,197,o),
(983,58,o),
(837,7,c),
(925,-90,o),
(1037,-158,o),
(1147,-168,c),
(1144,-200,l)
);
},
{
closed = 1;
nodes = (
(891,41,o),
(996,165,o),
(996,319,cs),
(996,496,o),
(860,667,o),
(689,667,cs),
(541,667,o),
(435,543,o),
(435,390,cs),
(435,216,o),
(570,41,o),
(743,41,cs)
);
},
{
closed = 1;
nodes = (
(180,1037,l),
(1311,1037,l),
(1311,-360,l),
(180,-360,l)
);
},
{
closed = 1;
nodes = (
(1287,-336,l),
(1287,1013,l),
(204,1013,l),
(204,-336,l)
);
}
);
width = 1491;
}
);
},
{
color = 6;
glyphname = R.ss10;
lastChange = "2022-03-18 09:39:33 +0000";
layers = (
{
layerId = "6D97EE47-94AA-478E-ABFB-936E6C32B491";
shapes = (
{
closed = 1;
nodes = (
(1251,-440,l),
(1251,1117,l),
(100,1117,l),
(100,-440,l)
);
},
{
closed = 1;
nodes = (
(180,1037,l),
(1171,1037,l),
(1171,-360,l),
(180,-360,l)
);
},
{
closed = 1;
nodes = (
(1147,-336,l),
(1147,1013,l),
(204,1013,l),
(204,-336,l)
);
},
{
closed = 1;
nodes = (
(860,-20,o),
(813,12,o),
(760,73,cs),
(718,122,o),
(641,265,o),
(603,330,c),
(578,324,o),
(550,320,o),
(519,317,c),
(519,46,l),
(550,33,o),
(591,30,o),
(611,30,c),
(611,0,l),
(344,0,l),
(344,30,l),
(363,30,o),
(402,33,o),
(432,46,c),
(432,669,l),
(400,676,o),
(365,676,o),
(347,674,c),
(344,704,l),
(600,726,o),
(772,748,o),
(826,613,cs),
(855,540,o),
(835,418,o),
(684,355,c),
(721,289,o),
(782,195,o),
(835,128,cs),
(884,65,o),
(920,33,o),
(1007,0,c),
(998,-29,l)
);
},
{
closed = 1;
nodes = (
(700,361,o),
(779,477,o),
(744,572,cs),
(714,653,o),
(650,691,o),
(519,677,c),
(519,353,l)
);
}
);
width = 1351;
}
);
},
{
color = 6;
glyphname = S.ss10;
lastChange = "2022-03-18 09:39:33 +0000";
layers = (
{
layerId = "6D97EE47-94AA-478E-ABFB-936E6C32B491";
shapes = (
{
closed = 1;
nodes = (
(1045,-440,l),
(1045,1117,l),
(100,1117,l),
(100,-440,l)
);
},
{
closed = 1;
nodes = (
(180,1037,l),
(965,1037,l),
(965,-360,l),
(180,-360,l)
);
},
{
closed = 1;
nodes = (
(941,-336,l),
(941,1013,l),
(204,1013,l),
(204,-336,l)
);
},
{
closed = 1;
nodes = (
(476,-14,o),
(381,15,o),
(375,23,c),
(344,215,l),
(377,221,l),
(403,106,o),
(452,33,o),
(560,33,cs),
(648,33,o),
(710,79,o),
(710,155,cs),
(710,316,o),
(389,334,o),
(389,537,cs),
(389,660,o),
(495,721,o),
(626,721,cs),
(687,721,o),
(739,707,o),
(765,702,c),
(787,540,l),
(754,536,l),
(743,620,o),
(703,675,o),
(619,675,cs),
(542,675,o),
(477,626,o),
(477,560,cs),
(477,402,o),
(801,400,o),
(801,168,cs),
(801,50,o),
(699,-14,o),
(570,-14,cs)
);
}
);
width = 1145;
}
);
},
{
color = 6;
glyphname = T.ss10;
lastChange = "2022-03-18 09:39:33 +0000";
layers = (
{
layerId = "6D97EE47-94AA-478E-ABFB-936E6C32B491";
shapes = (
{
closed = 1;
nodes = (
(1206,-440,l),
(1206,1117,l),
(100,1117,l),
(100,-440,l)
);
},
{
closed = 1;
nodes = (
(180,1037,l),
(1126,1037,l),
(1126,-360,l),
(180,-360,l)
);
},
{
closed = 1;
nodes = (
(1102,-336,l),
(1102,1013,l),
(204,1013,l),
(204,-336,l)
);
},
{
closed = 1;
nodes = (
(521,30,l),
(540,30,o),
(579,33,o),
(609,46,c),
(609,656,l),
(400,656,l),
(388,612,o),
(382,571,o),
(376,531,c),
(344,531,l),
(344,707,l),
(962,707,l),
(936,528,l),
(905,531,l),
(906,570,o),
(907,610,o),
(901,656,c),
(696,656,l),
(696,46,l),
(727,33,o),
(766,30,o),
(785,30,c),
(785,0,l),
(521,0,l)
);
}
);
width = 1306;
}
);
},
{
color = 6;
glyphname = U.ss10;
lastChange = "2022-03-18 09:39:33 +0000";
layers = (
{
anchors = (
{
name = BOTTOM;
pos = (731,0);
},
{
name = TOP;
pos = (730,707);
}
);
layerId = "6D97EE47-94AA-478E-ABFB-936E6C32B491";
shapes = (
{
closed = 1;
nodes = (
(1332,-440,l),
(1332,1117,l),
(100,1117,l),
(100,-440,l)
);
},
{
closed = 1;
nodes = (
(180,1037,l),
(1252,1037,l),
(1252,-360,l),
(180,-360,l)
);
},
{
closed = 1;
nodes = (
(1228,-336,l),
(1228,1013,l),
(204,1013,l),
(204,-336,l)
);
},
{
closed = 1;
nodes = (
(634,-14,o),
(507,18,o),
(457,134,cs),
(433,192,o),
(432,281,o),
(432,384,cs),
(432,661,l),
(402,674,o),
(363,677,o),
(344,677,c),
(344,707,l),
(607,707,l),
(607,677,l),
(588,677,o),
(549,674,o),
(519,661,c),
(519,389,ls),
(519,338,o),
(517,220,o),
(534,166,cs),
(557,97,o),
(629,38,o),
(727,38,cs),
(822,38,o),
(905,76,o),
(931,162,cs),
(947,218,o),
(944,305,o),
(944,400,cs),
(944,661,l),
(914,674,o),
(875,677,o),
(856,677,c),
(856,707,l),
(1088,707,l),
(1088,677,l),
(1069,677,o),
(1030,674,o),
(1000,661,c),
(1000,393,ls),
(1000,306,o),
(1002,199,o),
(982,139,cs),
(941,15,o),
(800,-14,o),
(717,-14,cs)
);
}
);
width = 1432;
}
);
},
{
color = 6;
glyphname = V.ss10;
lastChange = "2022-03-18 09:39:33 +0000";
layers = (
{
layerId = "6D97EE47-94AA-478E-ABFB-936E6C32B491";
shapes = (
{
closed = 1;
nodes = (
(1306,-440,l),
(1306,1117,l),
(100,1117,l),
(100,-440,l)
);
},
{
closed = 1;
nodes = (
(180,1037,l),
(1226,1037,l),
(1226,-360,l),
(180,-360,l)
);
},
{
closed = 1;
nodes = (
(1202,-336,l),
(1202,1013,l),
(204,1013,l),
(204,-336,l)
);
},
{
closed = 1;
nodes = (
(423,661,l),
(396,674,o),
(361,677,o),
(344,677,c),
(344,707,l),
(605,707,l),
(605,677,l),
(586,677,o),
(547,674,o),
(517,661,c),
(717,124,l),
(937,661,l),
(907,674,o),
(868,677,o),
(849,677,c),
(849,707,l),
(1062,707,l),
(1062,677,l),
(1047,677,o),
(1016,674,o),
(992,661,c),
(716,-14,l),
(675,-14,l)
);
}
);
width = 1406;
}
);
},
{
color = 6;
glyphname = W.ss10;
lastChange = "2022-03-18 09:39:33 +0000";
layers = (
{
layerId = "6D97EE47-94AA-478E-ABFB-936E6C32B491";
shapes = (
{
closed = 1;
nodes = (
(1557,-440,l),
(1557,1117,l),
(100,1117,l),
(100,-440,l)
);
},
{
closed = 1;
nodes = (
(180,1037,l),
(1477,1037,l),
(1477,-360,l),
(180,-360,l)
);
},
{
closed = 1;
nodes = (
(1453,-336,l),
(1453,1013,l),
(204,1013,l),
(204,-336,l)
);
},
{
closed = 1;
nodes = (
(420,661,l),
(394,674,o),
(360,677,o),
(344,677,c),
(344,707,l),
(598,707,l),
(598,677,l),
(579,677,o),
(540,674,o),
(511,661,c),
(645,143,l),
(839,619,l),
(880,619,l),
(1064,152,l),
(1188,661,l),
(1159,674,o),
(1120,677,o),
(1101,677,c),
(1101,707,l),
(1313,707,l),
(1313,677,l),
(1298,677,o),
(1266,674,o),
(1241,661,c),
(1075,-14,l),
(1034,-14,l),
(839,484,l),
(636,-14,l),
(595,-14,l)
);
}
);
width = 1657;
}
);
},
{
color = 6;
glyphname = X.ss10;
lastChange = "2022-03-18 09:39:33 +0000";
layers = (
{
layerId = "6D97EE47-94AA-478E-ABFB-936E6C32B491";
shapes = (
{
closed = 1;
nodes = (
(1255,-440,l),
(1255,1117,l),
(100,1117,l),
(100,-440,l)
);
},
{
closed = 1;
nodes = (
(180,1037,l),
(1175,1037,l),
(1175,-360,l),
(180,-360,l)
);
},
{
closed = 1;
nodes = (
(1151,-336,l),
(1151,1013,l),
(204,1013,l),
(204,-336,l)
);
},
{
closed = 1;
nodes = (
(344,30,l),
(359,30,o),
(391,33,o),
(416,46,c),
(629,352,l),
(428,662,l),
(402,674,o),
(368,677,o),
(352,677,c),
(352,707,l),
(622,707,l),
(622,677,l),
(603,677,o),
(564,674,o),
(534,661,c),
(688,424,l),
(855,661,l),
(825,674,o),
(786,677,o),
(767,677,c),
(767,707,l),
(989,707,l),
(989,677,l),
(974,677,o),
(942,674,o),
(918,661,c),
(719,377,l),
(934,46,l),
(960,33,o),
(994,30,o),
(1011,30,c),
(1011,0,l),
(741,0,l),
(741,30,l),
(760,30,o),
(798,33,o),
(828,46,c),
(660,305,l),
(479,46,l),
(509,33,o),
(548,30,o),
(567,30,c),
(567,0,l),
(344,0,l)
);
}
);
width = 1355;
}
);
},
{
color = 6;
glyphname = Y.ss10;
lastChange = "2022-03-18 09:39:33 +0000";
layers = (
{
layerId = "6D97EE47-94AA-478E-ABFB-936E6C32B491";
shapes = (
{
closed = 1;
nodes = (
(1232,-440,l),
(1232,1117,l),
(100,1117,l),
(100,-440,l)
);
},
{
closed = 1;
nodes = (
(180,1037,l),
(1152,1037,l),
(1152,-360,l),
(180,-360,l)
);
},
{
closed = 1;
nodes = (
(1128,-336,l),
(1128,1013,l),
(204,1013,l),
(204,-336,l)
);
},
{
closed = 1;
nodes = (
(542,30,l),
(561,30,o),
(600,33,o),
(630,46,c),
(630,282,l),
(420,661,l),
(394,674,o),
(360,677,o),
(344,677,c),
(344,707,l),
(608,707,l),
(608,677,l),
(589,677,o),
(551,674,o),
(521,661,c),
(689,357,l),
(859,661,l),
(829,674,o),
(790,677,o),
(771,677,c),
(771,707,l),
(988,707,l),
(988,677,l),
(973,677,o),
(942,674,o),
(917,662,c),
(718,303,l),
(718,46,l),
(748,33,o),
(787,30,o),
(806,30,c),
(806,0,l),
(542,0,l)
);
}
);
width = 1332;
}
);
},
{
color = 6;
glyphname = Z.ss10;
lastChange = "2022-03-18 09:39:33 +0000";
layers = (
{
layerId = "6D97EE47-94AA-478E-ABFB-936E6C32B491";
shapes = (
{
closed = 1;
nodes = (
(1158,-440,l),
(1158,1117,l),
(100,1117,l),
(100,-440,l)
);
},
{
closed = 1;
nodes = (
(180,1037,l),
(1078,1037,l),
(1078,-360,l),
(180,-360,l)
);
},
{
closed = 1;
nodes = (
(1054,-336,l),
(1054,1013,l),
(204,1013,l),
(204,-336,l)
);
},
{
closed = 1;
nodes = (
(344,38,l),
(759,656,l),
(413,656,l),
(401,613,o),
(395,574,o),
(387,534,c),
(355,536,l),
(362,707,l),
(857,707,l),
(874,669,l),
(458,51,l),
(819,51,l),
(850,90,o),
(879,161,o),
(883,175,c),
(914,167,l),
(875,0,l),
(359,0,l)
);
}
);
width = 1258;
}
);
},
{
color = 6;
glyphname = T_T.liga;
kernRight = T;
lastChange = "2022-03-18 09:39:33 +0000";
layers = (
{
layerId = "6D97EE47-94AA-478E-ABFB-936E6C32B491";
shapes = (
{
closed = 1;
nodes = (
(451,0,l),
(451,30,l),
(432,30,o),
(393,33,o),
(363,46,c),
(363,656,l),
(548,656,l),
(548,531,l),
(580,531,l),
(586,571,o),
(592,612,o),
(604,656,c),
(774,656,l),
(774,46,l),
(744,33,o),
(705,30,o),
(686,30,c),
(686,0,l),
(949,0,l),
(949,30,l),
(930,30,o),
(891,33,o),
(861,46,c),
(861,656,l),
(1068,656,l),
(1074,610,o),
(1073,570,o),
(1072,531,c),
(1103,528,l),
(1129,707,l),
(10,707,l),
(10,531,l),
(42,531,l),
(48,571,o),
(54,612,o),
(66,656,c),
(275,656,l),
(275,46,l),
(245,33,o),
(206,30,o),
(187,30,c),
(187,0,l)
);
}
);
width = 1139;
}
);
metricLeft = T;
metricRight = T;
},
{
color = 6;
glyphname = T_h.liga;
kernRight = h;
lastChange = "2022-03-18 09:39:33 +0000";
layers = (
{
anchors = (
{
name = BOTTOM;
pos = (319,0);
},
{
name = TOP;
pos = (319,707);
}
);
layerId = "6D97EE47-94AA-478E-ABFB-936E6C32B491";
shapes = (
{
closed = 1;
nodes = (
(451,0,l),
(451,30,l),
(432,30,o),
(393,33,o),
(363,46,c),
(363,656,l),
(653,656,l),
(653,707,l),
(10,707,l),
(10,531,l),
(42,531,l),
(48,571,o),
(54,612,o),
(66,656,c),
(275,656,l),
(275,46,l),
(245,33,o),
(206,30,o),
(187,30,c),
(187,0,l)
);
},
{
closed = 1;
nodes = (
(760,0,l),
(760,30,l),
(743,30,o),
(708,33,o),
(681,46,c),
(681,340,l),
(712,364,o),
(761,402,o),
(804,402,cs),
(826,402,o),
(846,398,o),
(860,387,cs),
(898,358,o),
(900,327,o),
(900,276,cs),
(900,46,l),
(873,33,o),
(838,30,o),
(821,30,c),
(821,0,l),
(1060,0,l),
(1060,30,l),
(1043,30,o),
(1008,33,o),
(981,46,c),
(981,314,ls),
(981,374,o),
(968,419,o),
(917,447,cs),
(898,458,o),
(876,464,o),
(852,464,cs),
(794,464,o),
(725,416,o),
(681,384,c),
(681,789,l),
(600,765,l),
(600,46,l),
(573,33,o),
(538,30,o),
(521,30,c),
(521,0,l)
);
}
);
width = 1082;
}
);
metricLeft = T;
metricRight = h;
},
{
color = 6;
glyphname = a;
kernLeft = a;
kernRight = a;
lastChange = "2022-03-18 09:39:33 +0000";
layers = (
{
anchors = (
{
name = BOTTOM;
pos = (222,0);
},
{
name = TOP;
pos = (211,456);
}
);
layerId = "6D97EE47-94AA-478E-ABFB-936E6C32B491";
shapes = (
{
closed = 1;
nodes = (
(197,-9,o),
(231,19,o),
(274,44,c),
(279,14,o),
(301,-9,o),
(333,-9,cs),
(370,-9,o),
(397,4,o),
(421,21,c),
(409,47,l),
(400,44,o),
(391,42,o),
(382,42,cs),
(375,42,o),
(368,43,o),
(362,47,cs),
(348,57,o),
(349,73,o),
(349,106,cs),
(349,363,ls),
(349,432,o),
(302,464,o),
(233,464,cs),
(136,464,o),
(52,405,o),
(55,299,c),
(135,331,l),
(127,381,o),
(160,420,o),
(208,420,cs),
(234,420,o),
(252,407,o),
(260,394,cs),
(269,379,o),
(270,365,o),
(270,339,cs),
(270,261,l),
(215,242,o),
(69,190,o),
(46,178,c),
(37,161,o),
(32,135,o),
(32,110,cs),
(32,39,o),
(82,-9,o),
(152,-9,cs)
);
},
{
closed = 1;
nodes = (
(130,53,o),
(100,96,o),
(114,155,c),
(130,164,o),
(209,196,o),
(270,217,c),
(270,79,l),
(232,60,o),
(203,53,o),
(182,53,cs)
);
}
);
width = 443;
}
);
metricRight = "=n";
unicode = 97;
},
{
color = 6;
glyphname = ae;
kernLeft = a;
kernRight = ae;
lastChange = "2022-03-18 09:39:33 +0000";
layers = (
{
anchors = (
{
name = TOP;
pos = (484,456);
}
);
layerId = "6D97EE47-94AA-478E-ABFB-936E6C32B491";
shapes = (
{
closed = 1;
nodes = (
(539,-8,o),
(606,46,o),
(637,91,c),
(616,109,l),
(591,86,o),
(552,65,o),
(507,65,cs),
(417,65,o),
(351,145,o),
(344,242,c),
(344,261,ls),
(344,339,o),
(391,414,o),
(459,414,cs),
(495,414,o),
(539,394,o),
(551,344,c),
(333,270,l),
(335,227,l),
(638,320,l),
(644,404,o),
(567,464,o),
(485,464,cs),
(430,464,o),
(380,442,o),
(342,403,c),
(327,445,o),
(287,464,o),
(233,464,cs),
(136,464,o),
(52,405,o),
(55,299,c),
(135,331,l),
(127,381,o),
(160,420,o),
(208,420,cs),
(234,420,o),
(252,407,o),
(260,394,cs),
(269,379,o),
(270,365,o),
(270,339,cs),
(271,211,ls),
(271,167,o),
(284,120,o),
(316,71,cs),
(348,22,o),
(401,-8,o),
(462,-8,cs)
);
},
{
closed = 1;
nodes = (
(198,-9,o),
(285,43,o),
(327,67,c),
(309,98,l),
(270,79,ls),
(232,60,o),
(203,53,o),
(182,53,cs),
(130,53,o),
(100,88,o),
(114,147,c),
(131,157,o),
(220,192,o),
(282,213,c),
(277,255,l),
(229,239,o),
(70,183,o),
(46,170,c),
(37,153,o),
(32,135,o),
(32,110,cs),
(32,39,o),
(82,-9,o),
(152,-9,cs)
);
}
);
width = 660;
}
);
metricLeft = a;
metricRight = e;
unicode = 230;
},
{
color = 6;
glyphname = b;
kernLeft = b;
kernRight = o;
lastChange = "2022-03-18 09:39:33 +0000";
layers = (
{
layerId = "6D97EE47-94AA-478E-ABFB-936E6C32B491";
shapes = (
{
closed = 1;
nodes = (
(285,-8,o),
(340,8,o),
(384,39,cs),
(447,84,o),
(494,171,o),
(494,261,cs),
(494,298,o),
(486,335,o),
(468,371,cs),
(441,425,o),
(389,464,o),
(331,464,cs),
(277,464,o),
(217,429,o),
(168,375,c),
(168,334,l),
(202,368,o),
(245,395,o),
(288,395,cs),
(330,395,o),
(368,366,o),
(392,325,cs),
(409,296,o),
(419,256,o),
(419,215,cs),
(419,158,o),
(400,100,o),
(355,69,cs),
(328,50,o),
(298,42,o),
(271,42,cs),
(233,42,o),
(198,58,o),
(176,83,c),
(176,775,l),
(156,789,l),
(24,734,l),
(33,708,l),
(52,711,o),
(77,711,o),
(95,704,c),
(95,23,l),
(142,-2,o),
(181,-8,o),
(229,-8,cs)
);
}
);
width = 518;
}
);
metricLeft = "=n-2";
metricRight = o;
unicode = 98;
},
{
color = 6;
glyphname = c;
kernLeft = o;
kernRight = c;
lastChange = "2022-03-18 09:39:33 +0000";
layers = (
{
anchors = (
{
name = BOTTOM;
pos = (240,0);
},
{
name = TOP;
pos = (240,456);
}
);
layerId = "6D97EE47-94AA-478E-ABFB-936E6C32B491";
shapes = (
{
closed = 1;
nodes = (
(307,-9,o),
(376,30,o),
(405,73,c),
(384,92,l),
(362,72,o),
(330,59,o),
(295,59,cs),
(264,59,o),
(230,66,o),
(195,88,cs),
(138,124,o),
(110,186,o),
(110,261,cs),
(110,318,o),
(132,373,o),
(177,399,cs),
(241,433,o),
(310,398,o),
(350,337,c),
(412,396,l),
(394,424,o),
(350,464,o),
(257,464,cs),
(209,464,o),
(164,447,o),
(129,421,cs),
(75,381,o),
(34,311,o),
(34,221,cs),
(34,138,o),
(68,53,o),
(151,11,cs),
(178,-3,o),
(207,-9,o),
(235,-9,cs)
);
}
);
width = 434;
}
);
metricLeft = o;
metricRight = "=o-2";
unicode = 99;
},
{
color = 6;
glyphname = d;
kernLeft = o;
kernRight = d;
lastChange = "2022-03-18 09:39:33 +0000";
layers = (
{
layerId = "6D97EE47-94AA-478E-ABFB-936E6C32B491";
shapes = (
{
closed = 1;
nodes = (
(529,52,l),
(517,79,l),
(497,72,o),
(468,63,o),
(440,66,c),
(440,775,l),
(420,789,l),
(288,734,l),
(297,708,l),
(317,711,o),
(341,711,o),
(359,704,c),
(362,67,ls),
(362,44,o),
(364,7,o),
(408,-8,c)
);
},
{
closed = 1;
nodes = (
(285,-8,o),
(323,27,o),
(370,84,c),
(370,126,l),
(339,79,o),
(300,62,o),
(263,62,cs),
(171,62,o),
(107,149,o),
(107,249,cs),
(107,347,o),
(166,412,o),
(254,412,cs),
(302,412,o),
(345,387,o),
(370,342,c),
(376,439,l),
(341,456,o),
(308,464,o),
(275,464,cs),
(144,464,o),
(34,339,o),
(34,202,cs),
(34,82,o),
(109,-8,o),
(217,-8,cs)
);
}
);
width = 551;
}
);
metricLeft = o;
metricRight = n;
unicode = 100;
},
{
color = 6;
glyphname = eth;
kernLeft = o;
kernRight = o;
lastChange = "2022-03-18 09:39:33 +0000";
layers = (
{
layerId = "6D97EE47-94AA-478E-ABFB-936E6C32B491";
shapes = (
{
closed = 1;
nodes = (
(295,-8,o),
(324,-3,o),
(352,9,cs),
(440,46,o),
(491,131,o),
(496,231,cs),
(503,369,o),
(453,493,o),
(394,572,cs),
(318,673,o),
(190,738,o),
(77,770,c),
(65,737,l),
(182,697,o),
(281,629,o),
(329,551,cs),
(378,471,o),
(418,357,o),
(407,204,cs),
(400,121,o),
(367,52,o),
(304,38,cs),
(297,36,o),
(289,36,o),
(282,36,cs),
(213,36,o),
(147,103,o),
(128,198,cs),
(124,217,o),
(122,236,o),
(122,254,cs),
(122,337,o),
(163,404,o),
(225,418,cs),
(233,420,o),
(240,421,o),
(248,421,cs),
(330,421,o),
(420,322,o),
(429,243,c),
(468,328,l),
(427,409,o),
(354,464,o),
(263,464,cs),
(235,464,o),
(206,459,o),
(178,447,cs),
(90,411,o),
(34,321,o),
(34,226,cs),
(34,197,o),
(39,167,o),
(50,139,cs),
(87,47,o),
(175,-8,o),
(266,-8,cs)
);
},
{
closed = 1;
nodes = (
(442,665,l),
(430,714,l),
(151,579,l),
(163,529,l)
);
}
);
width = 521;
}
);
metricLeft = o;
metricRight = o;
unicode = 240;
},
{
color = 3;
glyphname = dcroat;
kernLeft = o;
kernRight = d;
lastChange = "2022-03-18 09:39:33 +0000";
layers = (
{
layerId = "6D97EE47-94AA-478E-ABFB-936E6C32B491";
shapes = (
{
closed = 1;
nodes = (
(529,558,l),
(529,596,l),
(229,596,l),
(229,558,l)
);
},
{
ref = d;
}
);
width = 541;
}
);
unicode = 273;
},
{
color = 6;
glyphname = e;
kernLeft = o;
kernRight = e;
lastChange = "2022-03-18 09:39:33 +0000";
layers = (
{
anchors = (
{
name = BOTTOM;
pos = (230,0);
},
{
name = TOP;
pos = (232,456);
}
);
layerId = "6D97EE47-94AA-478E-ABFB-936E6C32B491";
shapes = (
{
closed = 1;
nodes = (
(302,-8,o),
(369,46,o),
(400,91,c),
(379,109,l),
(354,86,o),
(315,65,o),
(270,65,cs),
(175,65,o),
(107,154,o),
(107,259,cs),
(107,338,o),
(153,412,o),
(224,412,cs),
(275,412,o),
(318,368,o),
(318,318,c),
(103,301,l),
(103,262,l),
(407,278,l),
(418,380,o),
(348,464,o),
(248,464,cs),
(130,465,o),
(34,361,o),
(34,215,cs),
(34,96,o),
(113,-8,o),
(225,-8,cs)
);
}
);
width = 430;
}
);
metricLeft = c;
metricRight = c;
unicode = 101;
},
{
color = 3;
glyphname = eogonek;
kernLeft = o;
kernRight = e;
lastChange = "2022-03-18 09:39:33 +0000";
layers = (
{
layerId = "6D97EE47-94AA-478E-ABFB-936E6C32B491";
shapes = (
{
closed = 1;
nodes = (
(289,0,l),
(308,18,l),
(291,30,l),
(250,0,l)
);
},
{
pos = (137,0);
ref = ogonekcomb;
},
{
ref = e;
}
);
width = 430;
}
);
metricLeft = e;
metricRight = e;
unicode = 281;
},
{
color = 6;
glyphname = schwa;
kernLeft = o;
kernRight = o;
lastChange = "2022-03-18 09:39:33 +0000";
layers = (
{
anchors = (
{
name = BOTTOM;
pos = (211,456);
},
{
name = TOP;
pos = (209,0);
}
);
layerId = "6D97EE47-94AA-478E-ABFB-936E6C32B491";
shapes = (
{
closed = 1;
nodes = (
(250,-8,o),
(289,12,o),
(329,50,cs),
(373,91,o),
(407,160,o),
(407,242,cs),
(407,363,o),
(326,465,o),
(216,465,cs),
(139,465,o),
(72,411,o),
(41,366,c),
(62,348,l),
(87,371,o),
(128,394,o),
(173,394,cs),
(272,394,o),
(334,305,o),
(334,198,cs),
(334,117,o),
(287,45,o),
(217,45,cs),
(164,45,o),
(119,91,o),
(123,149,c),
(338,166,l),
(338,205,l),
(34,189,l),
(33,179,o),
(32,170,o),
(32,161,cs),
(32,56,o),
(110,-8,o),
(189,-8,cs)
);
}
);
width = 431;
}
);
metricRight = o;
unicode = 601;
},
{
color = 6;
glyphname = f;
kernLeft = f;
kernRight = f;
lastChange = "2022-03-18 09:39:33 +0000";
layers = (
{
layerId = "6D97EE47-94AA-478E-ABFB-936E6C32B491";
shapes = (
{
closed = 1;
nodes = (
(283,0,l),
(283,30,l),
(263,30,o),
(220,33,o),
(188,46,c),
(188,400,l),
(334,400,l),
(334,456,l),
(186,456,l),
(187,504,o),
(177,636,o),
(225,689,cs),
(274,744,o),
(355,738,o),
(404,684,c),
(474,752,l),
(418,807,o),
(286,823,o),
(189,729,cs),
(110,653,o),
(107,548,o),
(107,456,c),
(57,456,l),
(46,400,l),
(107,400,l),
(107,46,l),
(80,33,o),
(45,30,o),
(28,30,c),
(28,0,l)
);
}
);
width = 364;
}
);
unicode = 102;
},
{
color = 6;
glyphname = g;
kernLeft = g;
kernRight = g;
lastChange = "2022-03-18 09:39:33 +0000";
layers = (
{
anchors = (
{
name = TOP;
pos = (231,456);
}
);
layerId = "6D97EE47-94AA-478E-ABFB-936E6C32B491";
shapes = (
{
closed = 1;
nodes = (
(363,-312,o),
(487,-232,o),
(487,-122,cs),
(487,-104,o),
(483,-87,o),
(474,-69,cs),
(424,31,o),
(290,13,o),
(237,14,cs),
(183,15,o),
(153,29,o),
(147,54,cs),
(141,79,o),
(191,126,o),
(218,139,c),
(173,152,l),
(138,130,o),
(61,75,o),
(61,28,cs),
(61,-16,o),
(154,-37,o),
(233,-44,cs),
(318,-51,o),
(406,-60,o),
(406,-148,cs),
(406,-192,o),
(381,-233,o),
(313,-255,cs),
(293,-262,o),
(273,-264,o),
(253,-264,cs),
(199,-264,o),
(150,-243,o),
(128,-207,cs),
(122,-196,o),
(118,-182,o),
(118,-166,cs),
(118,-123,o),
(144,-79,o),
(208,-36,c),
(163,-24,l),
(112,-74,o),
(28,-118,o),
(28,-187,cs),
(28,-200,o),
(31,-214,o),
(38,-228,cs),
(70,-292,o),
(160,-312,o),
(237,-312,cs)
);
},
{
closed = 1;
nodes = (
(248,116,o),
(269,120,o),
(289,129,cs),
(355,157,o),
(396,222,o),
(396,292,cs),
(396,313,o),
(392,336,o),
(383,356,cs),
(357,423,o),
(292,464,o),
(224,464,cs),
(203,464,o),
(182,461,o),
(162,452,cs),
(97,426,o),
(56,358,o),
(56,288,cs),
(56,267,o),
(59,246,o),
(68,225,cs),
(94,157,o),
(159,116,o),
(226,116,cs)
);
},
{
closed = 1;
nodes = (
(194,152,o),
(148,213,o),
(137,268,cs),
(127,331,o),
(146,401,o),
(202,414,cs),
(258,427,o),
(304,366,o),
(315,309,cs),
(327,248,o),
(305,178,o),
(250,164,cs)
);
},
{
closed = 1;
nodes = (
(494,415,l),
(327,396,l),
(349,352,l),
(486,351,l)
);
}
);
width = 512;
}
);
unicode = 103;
},
{
color = 6;
glyphname = h;
kernRight = n;
lastChange = "2022-03-18 09:39:33 +0000";
layers = (
{
anchors = (
{
name = TOP;
pos = (278,707);
}
);
layerId = "6D97EE47-94AA-478E-ABFB-936E6C32B491";
shapes = (
{
closed = 1;
nodes = (
(267,0,l),
(267,30,l),
(250,30,o),
(215,33,o),
(188,46,c),
(188,775,l),
(168,789,l),
(36,734,l),
(45,708,l),
(64,711,o),
(89,711,o),
(107,704,c),
(107,46,l),
(80,33,o),
(45,30,o),
(28,30,c),
(28,0,l)
);
},
{
closed = 1;
nodes = (
(567,0,l),
(567,30,l),
(550,30,o),
(515,33,o),
(488,46,c),
(488,314,ls),
(488,374,o),
(475,419,o),
(424,447,cs),
(405,458,o),
(383,464,o),
(359,464,cs),
(298,464,o),
(224,411,o),
(181,378,c),
(181,335,l),
(211,358,o),
(265,402,o),
(311,402,cs),
(333,402,o),
(353,398,o),
(367,387,cs),
(405,358,o),
(407,327,o),
(407,276,cs),
(407,46,l),
(380,33,o),
(345,30,o),
(328,30,c),
(328,0,l)
);
}
);
width = 589;
}
);
metricLeft = "=n+2";
metricRight = n;
unicode = 104;
},
{
color = 3;
glyphname = hbar;
kernRight = n;
lastChange = "2022-03-18 09:39:33 +0000";
layers = (
{
layerId = "6D97EE47-94AA-478E-ABFB-936E6C32B491";
shapes = (
{
closed = 1;
nodes = (
(329,557,l),
(329,595,l),
(29,595,l),
(29,557,l)
);
},
{
ref = h;
}
);
width = 589;
}
);
metricLeft = h;
metricRight = h;
unicode = 295;
},
{
color = 3;
glyphname = hcaron;
kernRight = n;
lastChange = "2022-03-18 09:39:33 +0000";
layers = (
{
layerId = "6D97EE47-94AA-478E-ABFB-936E6C32B491";
shapes = (
{
closed = 1;
nodes = (
(627,0,l),
(627,30,l),
(610,30,o),
(575,33,o),
(548,46,c),
(548,314,ls),
(548,374,o),
(535,419,o),
(484,447,cs),
(465,458,o),
(443,464,o),
(419,464,cs),
(358,464,o),
(284,411,o),
(241,378,c),
(241,335,l),
(271,358,o),
(325,402,o),
(371,402,cs),
(393,402,o),
(413,398,o),
(427,387,cs),
(465,358,o),
(467,327,o),
(467,276,cs),
(467,46,l),
(440,33,o),
(405,30,o),
(388,30,c),
(388,0,l)
);
},
{
closed = 1;
nodes = (
(327,0,l),
(327,30,l),
(310,30,o),
(275,33,o),
(248,46,c),
(248,735,l),
(228,749,l),
(96,694,l),
(105,668,l),
(124,671,o),
(149,671,o),
(167,664,c),
(167,46,l),
(140,33,o),
(105,30,o),
(88,30,c),
(88,0,l)
);
},
{
angle = 180;
pos = (374,1743);
ref = circumflexcomb.case;
}
);
width = 649;
}
);
metricLeft = h;
metricRight = h;
unicode = 543;
},
{
color = 3;
glyphname = hcircumflex;
kernRight = n;
lastChange = "2022-03-18 09:39:33 +0000";
layers = (
{
layerId = "6D97EE47-94AA-478E-ABFB-936E6C32B491";
shapes = (
{
closed = 1;
nodes = (
(328,0,l),
(328,30,l),
(311,30,o),
(276,33,o),
(249,46,c),
(249,755,l),
(229,769,l),
(97,714,l),
(106,688,l),
(125,691,o),
(150,691,o),
(168,684,c),
(168,46,l),
(141,33,o),
(106,30,o),
(89,30,c),
(89,0,l)
);
},
{
closed = 1;
nodes = (
(628,0,l),
(628,30,l),
(611,30,o),
(576,33,o),
(549,46,c),
(549,314,ls),
(549,374,o),
(536,419,o),
(485,447,cs),
(466,458,o),
(444,464,o),
(420,464,cs),
(359,464,o),
(285,411,o),
(242,378,c),
(242,335,l),
(272,358,o),
(326,402,o),
(372,402,cs),
(394,402,o),
(414,398,o),
(428,387,cs),
(466,358,o),
(468,327,o),
(468,276,cs),
(468,46,l),
(441,33,o),
(406,30,o),
(389,30,c),
(389,0,l)
);
},
{
pos = (28,0);
ref = circumflexcomb.case;
}
);
width = 650;
}
);
metricLeft = h;
metricRight = h;
unicode = 293;
},
{
color = 6;
glyphname = idotless;
kernLeft = i;
kernRight = i;
lastChange = "2022-03-18 09:39:33 +0000";
layers = (
{
anchors = (
{
name = BOTTOM;
pos = (148,0);
},
{
name = TOP;
pos = (147,456);
}
);
layerId = "6D97EE47-94AA-478E-ABFB-936E6C32B491";
shapes = (
{
closed = 1;
nodes = (
(267,0,l),
(267,30,l),
(250,30,o),
(215,33,o),
(188,46,c),
(188,456,l),
(168,470,l),
(36,415,l),
(45,389,l),
(64,392,o),
(89,392,o),
(107,385,c),
(107,46,l),
(80,33,o),
(45,30,o),
(28,30,c),
(28,0,l)
);
}
);
width = 289;
}
);
metricLeft = "=n+2";
metricRight = n;
unicode = 305;
},
{
color = 6;
glyphname = jdotless;
kernLeft = j;
kernRight = j;
lastChange = "2022-03-18 09:39:33 +0000";
layers = (
{
anchors = (
{
name = TOP;
pos = (137,456);
}
);
layerId = "6D97EE47-94AA-478E-ABFB-936E6C32B491";
shapes = (
{
closed = 1;
nodes = (
(17,-270,o),
(140,-182,o),
(178,-20,c),
(178,456,l),
(158,470,l),
(26,415,l),
(35,389,l),
(54,392,o),
(79,392,o),
(97,385,c),
(97,13,ls),
(96,-16,o),
(94,-46,o),
(89,-69,cs),
(67,-159,o),
(12,-231,o),
(-22,-262,c),
(-5,-284,l)
);
}
);
width = 238;
}
);
unicode = 567;
},
{
color = 6;
glyphname = k;
kernLeft = h;
kernRight = k;
lastChange = "2022-03-18 09:39:33 +0000";
layers = (
{
anchors = (
{
name = BOTTOM;
pos = (283,0);
}
);
layerId = "6D97EE47-94AA-478E-ABFB-936E6C32B491";
shapes = (
{
closed = 1;
nodes = (
(270,0,l),
(270,30,l),
(253,30,o),
(216,33,o),
(188,46,c),
(188,775,l),
(168,789,l),
(36,734,l),
(45,708,l),
(64,711,o),
(89,711,o),
(107,704,c),
(107,46,l),
(80,33,o),
(45,30,o),
(28,30,c),
(28,0,l)
);
},
{
closed = 1;
nodes = (
(534,-2,l),
(481,17,o),
(459,42,o),
(424,81,cs),
(383,127,o),
(317,214,o),
(285,258,c),
(441,413,l),
(465,423,o),
(493,426,o),
(507,426,c),
(507,456,l),
(286,456,l),
(286,426,l),
(303,426,o),
(338,423,o),
(365,410,c),
(365,408,l),
(366,408,l),
(202,246,l),
(224,216,o),
(323,68,o),
(358,31,cs),
(396,-6,o),
(429,-28,o),
(529,-31,c)
);
}
);
width = 544;
}
);
metricLeft = "=n+2";
unicode = 107;
},
{
color = 6;
glyphname = kgreenlandic;
kernLeft = n;
kernRight = k;
lastChange = "2022-03-18 09:39:33 +0000";
layers = (
{
layerId = "6D97EE47-94AA-478E-ABFB-936E6C32B491";
shapes = (
{
closed = 1;
nodes = (
(534,-2,l),
(481,17,o),
(459,42,o),
(424,81,cs),
(383,127,o),
(317,214,o),
(285,258,c),
(441,413,l),
(465,423,o),
(493,426,o),
(507,426,c),
(507,456,l),
(286,456,l),
(286,426,l),
(303,426,o),
(338,423,o),
(365,410,c),
(365,408,l),
(202,246,l),
(224,216,o),
(323,68,o),
(358,31,cs),
(396,-6,o),
(429,-28,o),
(529,-31,c)
);
},
{
closed = 1;
nodes = (
(267,0,l),
(267,30,l),
(250,30,o),
(215,33,o),
(188,46,c),
(188,456,l),
(168,470,l),
(36,415,l),
(45,389,l),
(64,392,o),
(89,392,o),
(107,385,c),
(107,46,l),
(80,33,o),
(45,30,o),
(28,30,c),
(28,0,l)
);
}
);
width = 544;
}
);
metricLeft = k;
metricRight = k;
unicode = 312;
},
{
color = 6;
glyphname = l;
kernLeft = h;
kernRight = n;
lastChange = "2022-03-18 09:39:33 +0000";
layers = (
{
anchors = (
{
name = BOTTOM;
pos = (147,0);
},
{
name = TOP;
pos = (118,739);
}
);
layerId = "6D97EE47-94AA-478E-ABFB-936E6C32B491";
shapes = (
{
closed = 1;
nodes = (
(267,0,l),
(267,30,l),
(250,30,o),
(215,33,o),
(188,46,c),
(188,775,l),
(168,789,l),
(36,734,l),
(45,708,l),
(64,711,o),
(89,711,o),
(107,704,c),
(107,46,l),
(80,33,o),
(45,30,o),
(28,30,c),
(28,0,l)
);
}
);
width = 289;
}
);
metricLeft = "=n+2";
metricRight = n;
unicode = 108;
},
{
color = 3;
glyphname = lslash;
kernLeft = h;
kernRight = n;
lastChange = "2022-03-18 09:39:33 +0000";
layers = (
{
layerId = "6D97EE47-94AA-478E-ABFB-936E6C32B491";
shapes = (
{
closed = 1;
nodes = (
(282,471,l),
(264,504,l),
(22,386,l),
(40,353,l)
);
},
{
pos = (3,0);
ref = l;
}
);
width = 298;
}
);
metricLeft = "=l-6";
metricRight = "=l-6";
unicode = 322;
},
{
color = 6;
glyphname = m;
kernLeft = n;
kernRight = n;
lastChange = "2022-03-18 09:39:33 +0000";
layers = (
{
layerId = "6D97EE47-94AA-478E-ABFB-936E6C32B491";
shapes = (
{
closed = 1;
nodes = (
(840,0,l),
(840,30,l),
(823,30,o),
(788,33,o),
(761,46,c),
(761,314,ls),
(761,374,o),
(748,419,o),
(697,447,cs),
(678,458,o),
(656,464,o),
(632,464,cs),
(567,464,o),
(498,413,o),
(457,383,c),
(466,346,l),
(495,369,o),
(538,402,o),
(584,402,cs),
(606,402,o),
(626,398,o),
(640,387,cs),
(678,358,o),
(680,327,o),
(680,276,cs),
(680,46,l),
(656,33,o),
(624,30,o),
(609,30,c),
(609,0,l)
);
},
{
closed = 1;
nodes = (
(257,0,l),
(257,30,l),
(242,30,o),
(210,33,o),
(186,46,c),
(186,456,l),
(166,470,l),
(34,415,l),
(43,389,l),
(62,392,o),
(87,392,o),
(105,385,c),
(105,46,l),
(78,33,o),
(43,30,o),
(26,30,c),
(26,0,l)
);
},
{
closed = 1;
nodes = (
(545,0,l),
(545,30,l),
(530,30,o),
(498,33,o),
(474,46,c),
(474,314,ls),
(474,370,o),
(461,418,o),
(410,447,cs),
(390,458,o),
(369,464,o),
(345,464,cs),
(288,464,o),
(223,420,o),
(178,387,c),
(178,344,l),
(209,368,o),
(256,402,o),
(296,402,cs),
(318,402,o),
(338,398,o),
(352,387,cs),
(390,358,o),
(392,327,o),
(392,276,cs),
(392,46,l),
(368,33,o),
(336,30,o),
(321,30,c),
(321,0,l)
);
}
);
width = 862;
}
);
metricLeft = n;
metricRight = n;
unicode = 109;
},
{
color = 6;
glyphname = n;
kernLeft = n;
kernRight = n;
lastChange = "2022-03-18 09:39:33 +0000";
layers = (
{
anchors = (
{
name = BOTTOM;
pos = (292,0);
},
{
name = TOP;
pos = (282,456);
}
);
layerId = "6D97EE47-94AA-478E-ABFB-936E6C32B491";
shapes = (
{
closed = 1;
nodes = (
(558,0,l),
(558,30,l),
(541,30,o),
(506,33,o),
(479,46,c),
(479,314,ls),
(479,374,o),
(466,419,o),
(415,447,cs),
(396,458,o),
(374,464,o),
(350,464,cs),
(291,464,o),
(223,416,o),
(178,384,c),
(179,340,l),
(209,364,o),
(259,402,o),
(301,402,cs),
(324,402,o),
(344,398,o),
(358,387,cs),
(396,358,o),
(398,327,o),
(398,276,cs),
(398,46,l),
(374,33,o),
(342,30,o),
(327,30,c),
(327,0,l)
);
},
{
closed = 1;
nodes = (
(265,0,l),
(265,30,l),
(248,30,o),
(213,33,o),
(186,46,c),
(186,456,l),
(166,470,l),
(34,415,l),
(43,389,l),
(62,392,o),
(87,392,o),
(105,385,c),
(105,46,l),
(78,33,o),
(43,30,o),
(26,30,c),
(26,0,l)
);
}
);
width = 580;
}
);
unicode = 110;
},
{
color = 6;
glyphname = nhookleft;
kernLeft = nhookleft;
kernRight = n;
lastChange = "2022-03-18 09:39:33 +0000";
layers = (
{
layerId = "6D97EE47-94AA-478E-ABFB-936E6C32B491";
shapes = (
{
closed = 1;
nodes = (
(-11,-247,o),
(49,-235,o),
(91,-210,cs),
(133,-185,o),
(162,-147,o),
(174,-110,cs),
(179,-94,o),
(183,-70,o),
(184,-52,cs),
(185,-35,o),
(186,-4,o),
(186,10,cs),
(186,456,l),
(166,470,l),
(34,415,l),
(43,389,l),
(62,392,o),
(87,392,o),
(105,385,c),
(105,0,ls),
(105,-75,o),
(107,-155,o),
(65,-175,cs),
(28,-193,o),
(-19,-168,o),
(-47,-143,c),
(-68,-235,l)
);
},
{
closed = 1;
nodes = (
(558,0,l),
(558,30,l),
(541,30,o),
(506,33,o),
(479,46,c),
(479,314,ls),
(479,374,o),
(466,419,o),
(415,447,cs),
(396,458,o),
(374,464,o),
(350,464,cs),
(291,464,o),
(223,416,o),
(178,384,c),
(179,340,l),
(209,364,o),
(259,402,o),
(301,402,cs),
(324,402,o),
(344,398,o),
(358,387,cs),
(396,358,o),
(398,327,o),
(398,276,cs),
(398,46,l),
(374,33,o),
(342,30,o),
(327,30,c),
(327,0,l)
);
}
);
width = 580;
}
);
metricRight = n;
unicode = 626;
},
{
color = 6;
glyphname = eng;
kernLeft = n;
kernRight = n;
lastChange = "2022-03-18 09:39:33 +0000";
layers = (
{
layerId = "6D97EE47-94AA-478E-ABFB-936E6C32B491";
shapes = (
{
closed = 1;
nodes = (
(282,-247,o),
(342,-235,o),
(384,-210,cs),
(426,-185,o),
(455,-147,o),
(467,-110,cs),
(472,-94,o),
(476,-64,o),
(477,-46,cs),
(478,-29,o),
(479,6,o),
(479,10,cs),
(479,314,ls),
(479,374,o),
(466,419,o),
(415,447,cs),
(396,458,o),
(374,464,o),
(350,464,cs),
(277,464,o),
(190,391,o),
(151,364,c),
(168,332,l),
(196,354,o),
(253,402,o),
(301,402,cs),
(324,402,o),
(344,398,o),
(358,387,cs),
(396,358,o),
(398,327,o),
(398,276,cs),
(398,0,ls),
(398,-75,o),
(400,-155,o),
(358,-175,cs),
(321,-193,o),
(274,-168,o),
(246,-143,c),
(225,-235,l)
);
},
{
closed = 1;
nodes = (
(265,0,l),
(265,30,l),
(248,30,o),
(213,33,o),
(186,46,c),
(186,456,l),
(166,470,l),
(34,415,l),
(43,389,l),
(62,392,o),
(87,392,o),
(105,385,c),
(105,46,l),
(78,33,o),
(43,30,o),
(26,30,c),
(26,0,l)
);
}
);
width = 529;
}
);
metricLeft = n;
metricRight = "=n+28";
unicode = 331;
},
{
color = 6;
glyphname = o;
kernLeft = o;
kernRight = o;
lastChange = "2022-03-18 09:39:33 +0000";
layers = (
{
anchors = (
{
name = BOTTOM;
pos = (270,0);
},
{
name = CENTER;
pos = (264,222);
},
{
name = TOP;
pos = (265,456);
}
);
layerId = "6D97EE47-94AA-478E-ABFB-936E6C32B491";
shapes = (
{
closed = 1;
nodes = (
(295,-8,o),
(324,-3,o),
(352,9,cs),
(440,46,o),
(496,136,o),
(496,231,cs),
(496,259,o),
(490,289,o),
(479,317,cs),
(443,409,o),
(354,464,o),
(263,464,cs),
(235,464,o),
(206,459,o),
(178,447,cs),
(90,411,o),
(34,321,o),
(34,226,cs),
(34,197,o),
(39,167,o),
(50,139,cs),
(87,47,o),
(175,-8,o),
(266,-8,cs)
);
},
{
closed = 1;
nodes = (
(213,36,o),
(147,103,o),
(128,198,cs),
(124,217,o),
(122,236,o),
(122,254,cs),
(122,337,o),
(163,404,o),
(225,418,cs),
(233,420,o),
(240,421,o),
(248,421,cs),
(316,421,o),
(382,353,o),
(402,258,cs),
(405,240,o),
(407,222,o),
(407,204,cs),
(407,121,o),
(367,52,o),
(304,38,cs),
(297,36,o),
(289,36,o),
(282,36,cs)
);
}
);
width = 520;
}
);
unicode = 111;
},
{
color = 3;
glyphname = oogonek;
kernLeft = o;
kernRight = o;
lastChange = "2022-03-18 09:39:33 +0000";
layers = (
{
layerId = "6D97EE47-94AA-478E-ABFB-936E6C32B491";
shapes = (
{
closed = 1;
nodes = (
(340,0,l),
(359,18,l),
(342,30,l),
(301,0,l)
);
},
{
alignment = -1;
pos = (188,0);
ref = ogonekcomb;
},
{
ref = o;
}
);
width = 520;
}
);
metricLeft = o;
metricRight = o;
unicode = 491;
},
{
color = 3;
glyphname = oslash;
kernLeft = o;
kernRight = o;
lastChange = "2022-03-18 09:39:33 +0000";
layers = (
{
layerId = "6D97EE47-94AA-478E-ABFB-936E6C32B491";
shapes = (
{
closed = 1;
nodes = (
(448,503,l),
(413,522,l),
(84,-50,l),
(119,-69,l)
);
},
{
ref = o;
}
);
width = 520;
}
);
metricLeft = o;
metricRight = o;
unicode = 248;
},
{
color = 3;
glyphname = oslashacute;
kernLeft = o;
kernRight = o;
lastChange = "2022-03-18 09:39:33 +0000";
layers = (
{
layerId = "6D97EE47-94AA-478E-ABFB-936E6C32B491";
shapes = (
{
closed = 1;
nodes = (
(448,503,l),
(413,522,l),
(84,-50,l),
(119,-69,l)
);
},
{
ref = o;
},
{
pos = (215,0);
ref = acutecomb;
}
);
width = 520;
}
);
unicode = 511;
},
{
color = 6;
glyphname = oe;
kernLeft = o;
kernRight = e;
lastChange = "2022-03-18 09:39:33 +0000";
layers = (
{
anchors = (
{
name = TOP;
pos = (265,456);
}
);
layerId = "6D97EE47-94AA-478E-ABFB-936E6C32B491";
shapes = (
{
closed = 1;
nodes = (
(295,-8,o),
(324,-3,o),
(352,9,cs),
(400,29,o),
(439,66,o),
(464,110,c),
(446,178,o),
(465,281,o),
(479,317,c),
(443,409,o),
(354,464,o),
(263,464,cs),
(235,464,o),
(206,459,o),
(178,447,cs),
(90,411,o),
(34,321,o),
(34,226,cs),
(34,197,o),
(39,167,o),
(50,139,cs),
(87,47,o),
(175,-8,o),
(266,-8,cs)
);
},
{
closed = 1;
nodes = (
(213,36,o),
(147,103,o),
(128,198,cs),
(124,217,o),
(122,236,o),
(122,254,cs),
(122,337,o),
(163,404,o),
(225,418,cs),
(233,420,o),
(240,421,o),
(248,421,cs),
(316,421,o),
(382,353,o),
(402,258,cs),
(405,240,o),
(407,222,o),
(407,204,cs),
(407,121,o),
(367,52,o),
(304,38,cs),
(297,36,o),
(289,36,o),
(282,36,cs)
);
},
{
closed = 1;
nodes = (
(627,-45,o),
(733,30,o),
(774,90,c),
(753,108,l),
(713,72,o),
(641,42,o),
(565,89,cs),
(463,153,o),
(448,344,o),
(553,400,cs),
(622,436,o),
(686,387,o),
(686,322,c),
(471,300,l),
(471,261,l),
(775,282,l),
(787,394,o),
(711,463,o),
(626,464,cs),
(578,464,o),
(526,444,o),
(485,406,cs),
(443,366,o),
(409,300,o),
(407,221,cs),
(406,144,o),
(435,54,o),
(519,11,cs)
);
}
);
width = 798;
}
);
metricLeft = o;
metricRight = e;
unicode = 339;
},
{
color = 6;
glyphname = p;
kernLeft = p;
kernRight = o;
lastChange = "2022-03-18 09:39:33 +0000";
layers = (
{
layerId = "6D97EE47-94AA-478E-ABFB-936E6C32B491";
shapes = (
{
closed = 1;
nodes = (
(275,-276,l),
(275,-246,l),
(256,-246,o),
(218,-243,o),
(188,-230,c),
(188,456,l),
(168,470,l),
(36,415,l),
(45,389,l),
(64,392,o),
(89,392,o),
(107,385,c),
(107,-230,l),
(80,-243,o),
(45,-246,o),
(28,-246,c),
(28,-276,l)
);
},
{
closed = 1;
nodes = (
(296,-8,o),
(351,8,o),
(395,39,cs),
(458,84,o),
(505,171,o),
(505,261,cs),
(505,298,o),
(497,335,o),
(479,371,cs),
(452,425,o),
(400,464,o),
(342,464,cs),
(287,464,o),
(226,428,o),
(176,372,c),
(176,331,l),
(210,366,o),
(255,395,o),
(299,395,cs),
(341,395,o),
(380,366,o),
(403,325,cs),
(420,296,o),
(430,256,o),
(430,215,cs),
(430,158,o),
(411,100,o),
(366,69,cs),
(339,50,o),
(309,42,o),
(282,42,cs),
(237,42,o),
(196,64,o),
(176,99,c),
(176,-1,l),
(197,-6,o),
(218,-8,o),
(240,-8,cs)
);
}
);
width = 529;
}
);
metricLeft = "=n+2";
metricRight = o;
unicode = 112;
},
{
color = 6;
glyphname = thorn;
kernLeft = thorn;
kernRight = o;
lastChange = "2022-03-18 09:39:33 +0000";
layers = (
{
layerId = "6D97EE47-94AA-478E-ABFB-936E6C32B491";
shapes = (
{
closed = 1;
nodes = (
(265,-281,l),
(265,-251,l),
(248,-251,o),
(213,-248,o),
(186,-235,c),
(186,775,l),
(166,789,l),
(34,734,l),
(43,708,l),
(62,711,o),
(87,711,o),
(105,704,c),
(105,-235,l),
(78,-248,o),
(43,-251,o),
(26,-251,c),
(26,-281,l)
);
},
{
closed = 1;
nodes = (
(231,4,o),
(307,20,o),
(370,61,cs),
(460,118,o),
(514,264,o),
(454,383,cs),
(401,487,o),
(257,508,o),
(157,411,c),
(157,374,l),
(222,426,o),
(332,414,o),
(380,333,cs),
(419,266,o),
(421,135,o),
(345,86,cs),
(273,40,o),
(189,67,o),
(157,123,c),
(158,21,l)
);
}
);
width = 503;
}
);
metricLeft = n;
metricRight = o;
unicode = 254;
},
{
color = 6;
glyphname = q;
kernLeft = o;
kernRight = n;
lastChange = "2022-03-18 09:39:33 +0000";
layers = (
{
layerId = "6D97EE47-94AA-478E-ABFB-936E6C32B491";
shapes = (
{
closed = 1;
nodes = (
(508,-276,l),
(508,-246,l),
(491,-246,o),
(456,-243,o),
(429,-230,c),
(429,473,l),
(404,480,l),
(370,434,l),
(348,434,l),
(348,-230,l),
(318,-243,o),
(280,-246,o),
(261,-246,c),
(261,-276,l)
);
},
{
closed = 1;
nodes = (
(285,-8,o),
(323,27,o),
(370,84,c),
(370,127,l),
(302,23,o),
(198,62,o),
(153,114,cs),
(83,197,o),
(95,346,o),
(175,390,cs),
(252,433,o),
(340,406,o),
(370,325,c),
(370,434,l),
(292,480,o),
(224,470,o),
(152,424,cs),
(12,334,o),
(4,140,o),
(87,49,cs),
(123,11,o),
(171,-8,o),
(217,-8,cs)
);
}
);
width = 520;
}
);
metricLeft = o;
metricRight = "=n-10";
unicode = 113;
},
{
color = 6;
glyphname = r;
kernLeft = n;
kernRight = r;
lastChange = "2022-03-18 09:39:33 +0000";
layers = (
{
anchors = (
{
name = BOTTOM;
pos = (137,0);
},
{
name = TOP;
pos = (189,456);
}
);
layerId = "6D97EE47-94AA-478E-ABFB-936E6C32B491";
shapes = (
{
closed = 1;
nodes = (
(265,0,l),
(265,30,l),
(246,30,o),
(208,33,o),
(178,46,c),
(178,456,l),
(158,470,l),
(26,415,l),
(35,389,l),
(54,392,o),
(79,392,o),
(97,385,c),
(97,46,l),
(73,33,o),
(41,30,o),
(26,30,c),
(26,0,l)
);
},
{
closed = 1;
nodes = (
(176,294,o),
(201,363,o),
(249,377,cs),
(284,388,o),
(311,372,o),
(326,359,c),
(370,450,l),
(350,462,o),
(325,466,o),
(296,463,cs),
(221,454,o),
(172,343,o),
(130,288,c),
(156,264,l)
);
}
);
width = 376;
}
);
metricLeft = n;
unicode = 114;
},
{
color = 6;
glyphname = s;
kernLeft = s;
kernRight = s;
lastChange = "2022-03-18 09:39:33 +0000";
layers = (
{
anchors = (
{
name = BOTTOM;
pos = (179,0);
},
{
name = TOP;
pos = (203,456);
}
);
layerId = "6D97EE47-94AA-478E-ABFB-936E6C32B491";
shapes = (
{
closed = 1;
nodes = (
(279,-8,o),
(344,43,o),
(336,141,cs),
(331,199,o),
(279,234,o),
(240,258,cs),
(207,279,o),
(163,298,o),
(148,327,cs),
(129,366,o),
(145,404,o),
(186,416,cs),
(195,418,o),
(204,419,o),
(213,419,cs),
(229,419,o),
(244,414,o),
(257,406,cs),
(275,394,o),
(292,371,o),
(297,332,c),
(327,337,l),
(312,451,l),
(300,453,o),
(262,464,o),
(218,464,cs),
(205,464,o),
(192,463,o),
(178,461,cs),
(108,448,o),
(63,400,o),
(63,335,cs),
(63,258,o),
(146,210,o),
(186,184,cs),
(223,161,o),
(260,142,o),
(260,103,cs),
(260,68,o),
(235,42,o),
(197,38,cs),
(160,32,o),
(128,42,o),
(103,71,cs),
(87,88,o),
(73,122,o),
(67,154,c),
(34,148,l),
(55,18,l),
(80,3,o),
(138,-8,o),
(184,-8,cs)
);
}
);
width = 371;
}
);
unicode = 115;
},
{
color = 6;
glyphname = germandbls;
kernLeft = f;
kernRight = s;
lastChange = "2022-03-18 09:39:33 +0000";
layers = (
{
layerId = "6D97EE47-94AA-478E-ABFB-936E6C32B491";
shapes = (
{
closed = 1;
nodes = (
(531,-8,o),
(595,43,o),
(587,141,cs),
(582,200,o),
(535,253,o),
(498,283,cs),
(467,308,o),
(420,346,o),
(392,374,cs),
(371,395,o),
(359,409,o),
(359,432,cs),
(359,453,o),
(369,471,o),
(389,494,cs),
(406,513,o),
(442,547,o),
(493,588,c),
(498,606,o),
(502,623,o),
(502,646,cs),
(502,665,o),
(498,684,o),
(491,701,cs),
(461,773,o),
(395,797,o),
(351,797,cs),
(290,797,o),
(227,772,o),
(179,719,cs),
(109,642,o),
(107,538,o),
(107,456,c),
(57,456,l),
(46,400,l),
(107,400,l),
(107,46,l),
(80,33,o),
(45,30,o),
(28,30,c),
(28,0,l),
(259,0,l),
(259,30,l),
(244,30,o),
(212,33,o),
(188,46,c),
(187,537,ls),
(187,602,o),
(190,653,o),
(223,694,cs),
(247,724,o),
(281,742,o),
(322,739,cs),
(362,736,o),
(399,713,o),
(416,673,cs),
(421,661,o),
(423,650,o),
(423,639,cs),
(423,612,o),
(422,600,o),
(417,586,c),
(386,558,o),
(350,523,o),
(330,495,cs),
(310,466,o),
(300,443,o),
(299,419,cs),
(298,396,o),
(301,374,o),
(320,344,cs),
(348,300,o),
(396,259,o),
(437,223,cs),
(480,185,o),
(514,153,o),
(514,103,cs),
(514,68,o),
(485,41,o),
(448,37,cs),
(413,33,o),
(391,41,o),
(365,69,cs),
(349,86,o),
(339,122,o),
(333,154,c),
(300,148,l),
(322,18,l),
(346,3,o),
(389,-8,o),
(435,-8,cs)
);
}
);
width = 622;
}
);
metricLeft = f;
metricRight = s;
unicode = 223;
},
{
color = 6;
glyphname = longs;
kernLeft = f;
kernRight = longs;
lastChange = "2022-03-18 09:39:33 +0000";
layers = (
{
layerId = "6D97EE47-94AA-478E-ABFB-936E6C32B491";
shapes = (
{
closed = 1;
nodes = (
(275,0,l),
(275,30,l),
(256,30,o),
(218,33,o),
(188,46,c),
(188,489,ls),
(188,601,o),
(189,649,o),
(225,689,cs),
(274,744,o),
(355,738,o),
(404,684,c),
(474,752,l),
(418,807,o),
(286,823,o),
(189,729,cs),
(110,653,o),
(107,548,o),
(107,456,c),
(47,456,l),
(36,400,l),
(107,400,l),
(107,46,l),
(80,33,o),
(45,30,o),
(28,30,c),
(28,0,l)
);
}
);
width = 304;
}
);
metricLeft = f;
metricRight = "=f-60";
unicode = 383;
},
{
color = 6;
glyphname = t;
kernLeft = t;
kernRight = t;
lastChange = "2022-03-18 09:39:33 +0000";
layers = (
{
anchors = (
{
name = BOTTOM;
pos = (168,0);
}
);
layerId = "6D97EE47-94AA-478E-ABFB-936E6C32B491";
shapes = (
{
closed = 1;
nodes = (
(212,-8,o),
(275,24,o),
(295,41,c),
(281,66,l),
(262,56,o),
(200,39,o),
(175,56,cs),
(156,68,o),
(154,85,o),
(154,127,cs),
(154,400,l),
(293,400,l),
(293,456,l),
(154,456,l),
(154,533,l),
(134,542,l),
(106,507,o),
(59,454,o),
(20,431,c),
(20,400,l),
(73,400,l),
(73,102,ls),
(73,34,o),
(104,-8,o),
(158,-8,cs)
);
}
);
width = 309;
}
);
unicode = 116;
},
{
color = 3;
glyphname = tbar;
kernLeft = t;
kernRight = t;
lastChange = "2022-03-18 09:39:33 +0000";
layers = (
{
layerId = "6D97EE47-94AA-478E-ABFB-936E6C32B491";
shapes = (
{
closed = 1;
nodes = (
(272,233,l),
(272,271,l),
(25,271,l),
(25,233,l)
);
},
{
ref = t;
}
);
width = 309;
}
);
metricLeft = t;
metricRight = t;
unicode = 359;
},
{
color = 6;
glyphname = u;
kernLeft = u;
kernRight = n;
lastChange = "2022-03-18 09:39:33 +0000";
layers = (
{
anchors = (
{
name = BOTTOM;
pos = (287,0);
},
{
name = TOP;
pos = (287,456);
}
);
layerId = "6D97EE47-94AA-478E-ABFB-936E6C32B491";
shapes = (
{
closed = 1;
nodes = (
(281,-8,o),
(343,35,o),
(387,68,c),
(388,108,l),
(357,84,o),
(312,53,o),
(275,53,cs),
(252,53,o),
(232,58,o),
(218,69,cs),
(180,98,o),
(178,128,o),
(178,179,cs),
(178,456,l),
(158,470,l),
(26,415,l),
(35,389,l),
(54,392,o),
(79,392,o),
(97,385,c),
(97,141,ls),
(97,82,o),
(110,37,o),
(161,8,cs),
(180,-3,o),
(202,-8,o),
(226,-8,cs)
);
},
{
closed = 1;
nodes = (
(549,52,l),
(537,79,l),
(517,72,o),
(488,63,o),
(460,66,c),
(460,456,l),
(440,470,l),
(308,415,l),
(317,389,l),
(336,392,o),
(360,392,o),
(378,385,c),
(380,92,l),
(380,69,ls),
(380,47,o),
(381,8,o),
(426,-8,c)
);
}
);
width = 571;
}
);
metricLeft = n;
metricRight = n;
unicode = 117;
},
{
color = 3;
glyphname = uogonek;
kernLeft = u;
kernRight = n;
lastChange = "2022-03-18 09:39:33 +0000";
layers = (
{
layerId = "6D97EE47-94AA-478E-ABFB-936E6C32B491";
shapes = (
{
closed = 1;
nodes = (
(438,-1,o),
(446,6,o),
(463,17,cs),
(479,27,o),
(496,36,o),
(519,46,c),
(440,30,l),
(399,0,l),
(404,0,l),
(416,-21,l)
);
},
{
alignment = -1;
pos = (286,0);
ref = ogonekcomb;
},
{
ref = u;
}
);
width = 571;
}
);
metricLeft = u;
metricRight = u;
unicode = 371;
},
{
color = 6;
glyphname = v;
kernLeft = v;
kernRight = v;
lastChange = "2022-03-18 09:39:33 +0000";
layers = (
{
layerId = "6D97EE47-94AA-478E-ABFB-936E6C32B491";
shapes = (
{
closed = 1;
nodes = (
(269,-14,l),
(441,411,l),
(463,423,o),
(489,426,o),
(502,426,c),
(502,456,l),
(316,456,l),
(316,426,l),
(331,426,o),
(363,423,o),
(387,410,c),
(387,409,l),
(268,115,l),
(156,409,l),
(156,410,l),
(180,423,o),
(212,426,o),
(227,426,c),
(227,456,l),
(10,456,l),
(10,426,l),
(23,426,o),
(50,423,o),
(71,411,c),
(235,-14,l)
);
}
);
width = 512;
}
);
unicode = 118;
},
{
color = 6;
glyphname = w;
kernLeft = v;
kernRight = v;
lastChange = "2022-03-18 09:39:33 +0000";
layers = (
{
anchors = (
{
name = TOP;
pos = (376,456);
}
);
layerId = "6D97EE47-94AA-478E-ABFB-936E6C32B491";
shapes = (
{
closed = 1;
nodes = (
(252,-14,l),
(363,274,l),
(467,-14,l),
(502,-14,l),
(647,410,l),
(669,423,o),
(697,426,o),
(710,426,c),
(710,456,l),
(526,456,l),
(526,426,l),
(541,426,o),
(573,423,o),
(597,410,c),
(500,125,l),
(397,407,l),
(363,407,l),
(254,122,l),
(155,410,l),
(179,423,o),
(211,426,o),
(226,426,c),
(226,456,l),
(10,456,l),
(10,426,l),
(23,426,o),
(51,423,o),
(73,410,c),
(218,-14,l)
);
}
);
width = 720;
}
);
metricLeft = v;
metricRight = v;
unicode = 119;
},
{
color = 6;
glyphname = x;
kernLeft = x;
kernRight = x;
lastChange = "2022-03-18 09:39:33 +0000";
layers = (
{
layerId = "6D97EE47-94AA-478E-ABFB-936E6C32B491";
shapes = (
{
closed = 1;
nodes = (
(477,0,l),
(477,30,l),
(464,30,o),
(437,33,o),
(416,45,c),
(170,410,l),
(192,423,o),
(220,426,o),
(233,426,c),
(233,456,l),
(15,456,l),
(15,426,l),
(27,426,o),
(53,423,o),
(75,412,c),
(322,46,l),
(300,33,o),
(272,30,o),
(259,30,c),
(259,0,l)
);
},
{
closed = 1;
nodes = (
(185,0,l),
(185,30,l),
(173,30,o),
(146,33,o),
(126,46,c),
(236,192,l),
(210,231,l),
(70,44,l),
(49,33,o),
(22,30,o),
(10,30,c),
(10,0,l)
);
},
{
closed = 1;
nodes = (
(407,411,l),
(428,423,o),
(455,426,o),
(467,426,c),
(467,456,l),
(292,456,l),
(292,426,l),
(304,426,o),
(331,423,o),
(351,410,c),
(248,274,l),
(274,236,l)
);
}
);
width = 487;
}
);
metricLeft = v;
metricRight = v;
unicode = 120;
},
{
color = 6;
glyphname = y;
kernLeft = y;
kernRight = y;
lastChange = "2022-03-18 09:39:33 +0000";
layers = (
{
anchors = (
{
name = TOP;
pos = (268,456);
}
);
layerId = "6D97EE47-94AA-478E-ABFB-936E6C32B491";
shapes = (
{
closed = 1;
nodes = (
(133,-264,o),
(150,-245,o),
(175,-208,cs),
(203,-167,o),
(242,-81,o),
(257,-43,cs),
(440,409,l),
(462,423,o),
(490,426,o),
(503,426,c),
(503,456,l),
(316,456,l),
(316,426,l),
(331,426,o),
(363,423,o),
(387,410,c),
(387,409,l),
(268,116,l),
(155,408,l),
(156,410,l),
(180,423,o),
(212,426,o),
(227,426,c),
(227,456,l),
(10,456,l),
(10,426,l),
(23,426,o),
(50,423,o),
(71,411,c),
(225,11,l),
(202,-35,o),
(169,-94,o),
(143,-124,cs),
(118,-156,o),
(86,-183,o),
(52,-204,c),
(109,-279,l)
);
}
);
width = 513;
}
);
metricLeft = v;
metricRight = v;
unicode = 121;
},
{
color = 6;
glyphname = z;
kernLeft = z;
kernRight = z;
lastChange = "2022-03-18 09:39:33 +0000";
layers = (
{
anchors = (
{
name = TOP;
pos = (217,456);
}
);
layerId = "6D97EE47-94AA-478E-ABFB-936E6C32B491";
shapes = (
{
closed = 1;
nodes = (
(388,0,l),
(423,150,l),
(395,158,l),
(391,145,o),
(367,86,o),
(341,50,c),
(145,50,l),
(401,431,l),
(391,456,l),
(56,456,l),
(50,302,l),
(79,300,l),
(86,335,o),
(91,369,o),
(102,406,c),
(290,406,l),
(34,24,l),
(44,0,l)
);
}
);
width = 457;
}
);
unicode = 122;
},
{
color = 6;
glyphname = a.sc;
kernLeft = a.sc;
kernRight = a.sc;
lastChange = "2022-03-18 09:39:33 +0000";
layers = (
{
anchors = (
{
name = BOTTOM;
pos = (279,0);
},
{
name = TOP;
pos = (293,509);
}
);
layerId = "6D97EE47-94AA-478E-ABFB-936E6C32B491";
shapes = (
{
closed = 1;
nodes = (
(209,0,l),
(209,27,l),
(192,27,o),
(157,30,o),
(130,41,c),
(178,159,l),
(365,159,l),
(408,41,l),
(381,30,o),
(346,27,o),
(329,27,c),
(329,0,l),
(556,0,l),
(556,27,l),
(541,27,o),
(511,30,o),
(487,41,c),
(310,530,l),
(240,505,l),
(251,475,l),
(75,40,l),
(50,30,o),
(19,27,o),
(4,27,c),
(4,0,l)
);
},
{
closed = 1;
nodes = (
(277,404,l),
(349,205,l),
(196,205,l)
);
}
);
width = 550;
}
);
metricLeft = A;
metricRight = A;
unicode = 7424;
},
{
color = 6;
glyphname = b.sc;
kernLeft = h.sc;
kernRight = b.sc;
lastChange = "2022-03-18 09:39:33 +0000";
layers = (
{
layerId = "6D97EE47-94AA-478E-ABFB-936E6C32B491";
shapes = (
{
closed = 1;
nodes = (
(299,0,ls),
(435,0,o),
(496,101,o),
(476,180,cs),
(461,239,o),
(407,275,o),
(371,291,c),
(421,323,o),
(447,389,o),
(422,443,cs),
(401,491,o),
(350,517,o),
(282,517,cs),
(213,517,o),
(148,511,o),
(89,505,cs),
(50,502,l),
(52,475,l),
(69,477,o),
(102,477,o),
(129,469,c),
(129,41,l),
(102,30,o),
(67,27,o),
(50,27,c),
(50,0,l)
);
},
{
closed = 1;
nodes = (
(298,38,o),
(232,41,o),
(210,56,c),
(210,252,l),
(245,253,o),
(286,251,o),
(319,238,cs),
(357,225,o),
(384,196,o),
(392,161,cs),
(405,110,o),
(384,65,o),
(336,50,cs)
);
},
{
closed = 1;
nodes = (
(210,473,l),
(286,481,o),
(328,460,o),
(348,413,cs),
(363,374,o),
(351,330,o),
(320,310,cs),
(293,292,o),
(238,288,o),
(210,290,c)
);
}
);
width = 505;
}
);
metricLeft = B;
metricRight = B;
unicode = 665;
},
{
color = 6;
glyphname = c.sc;
kernLeft = o.sc;
kernRight = c.sc;
lastChange = "2022-03-18 09:39:33 +0000";
layers = (
{
anchors = (
{
name = BOTTOM;
pos = (299,0);
},
{
name = TOP;
pos = (329,509);
}
);
layerId = "6D97EE47-94AA-478E-ABFB-936E6C32B491";
shapes = (
{
closed = 1;
nodes = (
(534,124,l),
(507,139,l),
(466,73,o),
(434,49,o),
(377,38,cs),
(281,19,o),
(174,98,o),
(146,207,cs),
(113,336,o),
(167,440,o),
(265,465,cs),
(360,489,o),
(449,450,o),
(473,373,c),
(503,379,l),
(486,491,l),
(443,503,o),
(342,532,o),
(252,508,cs),
(106,469,o),
(21,323,o),
(59,184,cs),
(104,20,o),
(268,-45,o),
(474,11,c)
);
}
);
width = 559;
}
);
metricLeft = C;
metricRight = C;
unicode = 7428;
},
{
color = 6;
glyphname = d.sc;
kernLeft = h.sc;
kernRight = o.sc;
lastChange = "2022-03-18 09:39:33 +0000";
layers = (
{
anchors = (
{
name = TOP;
pos = (300,494);
}
);
layerId = "6D97EE47-94AA-478E-ABFB-936E6C32B491";
shapes = (
{
closed = 1;
nodes = (
(188,0,l),
(210,0,l),
(266,0,ls),
(315,0,o),
(368,5,o),
(395,13,cs),
(521,46,o),
(605,151,o),
(605,264,cs),
(605,283,o),
(602,304,o),
(596,325,cs),
(572,410,o),
(506,472,o),
(418,499,cs),
(372,513,o),
(325,517,o),
(278,517,cs),
(207,517,o),
(129,507,o),
(62,501,cs),
(50,500,l),
(52,473,l),
(68,475,o),
(102,475,o),
(129,467,c),
(129,41,l),
(102,30,o),
(67,27,o),
(50,27,c),
(50,0,l)
);
},
{
closed = 1;
nodes = (
(276,42,o),
(241,49,o),
(210,61,c),
(210,471,l),
(228,473,o),
(245,474,o),
(263,474,cs),
(390,474,o),
(481,405,o),
(507,302,cs),
(512,282,o),
(515,264,o),
(515,245,cs),
(515,156,o),
(467,74,o),
(382,51,cs),
(358,45,o),
(334,42,o),
(311,42,cs)
);
}
);
width = 655;
}
);
metricLeft = D;
metricRight = D;
unicode = 7429;
},
{
color = 6;
glyphname = e.sc;
kernLeft = h.sc;
kernRight = e.sc;
lastChange = "2022-03-18 09:39:33 +0000";
layers = (
{
anchors = (
{
name = BOTTOM;
pos = (275,0);
},
{
name = TOP;
pos = (263,509);
}
);
layerId = "6D97EE47-94AA-478E-ABFB-936E6C32B491";
shapes = (
{
closed = 1;
nodes = (
(435,0,l),
(465,137,l),
(437,144,l),
(434,133,o),
(412,77,o),
(388,46,c),
(210,46,l),
(210,233,l),
(333,233,l),
(342,212,o),
(342,185,o),
(342,172,c),
(370,172,l),
(370,341,l),
(342,341,l),
(342,327,o),
(342,301,o),
(333,279,c),
(210,279,l),
(210,463,l),
(379,463,l),
(389,438,o),
(392,410,o),
(394,391,c),
(422,393,l),
(418,509,l),
(50,509,l),
(50,482,l),
(67,482,o),
(102,479,o),
(129,468,c),
(129,41,l),
(102,30,o),
(67,27,o),
(50,27,c),
(50,0,l)
);
}
);
width = 490;
}
);
metricLeft = E;
metricRight = E;
unicode = 7431;
},
{
color = 6;
glyphname = f.sc;
kernLeft = h.sc;
kernRight = f.sc;
lastChange = "2022-03-18 09:39:33 +0000";
layers = (
{
layerId = "6D97EE47-94AA-478E-ABFB-936E6C32B491";
shapes = (
{
closed = 1;
nodes = (
(298,0,l),
(298,27,l),
(279,27,o),
(240,30,o),
(210,41,c),
(210,221,l),
(328,221,l),
(337,199,o),
(337,173,o),
(337,160,c),
(364,160,l),
(364,329,l),
(337,329,l),
(337,315,o),
(337,289,o),
(328,267,c),
(210,267,l),
(210,463,l),
(379,463,l),
(389,438,o),
(392,410,o),
(394,391,c),
(422,393,l),
(418,509,l),
(50,509,l),
(50,482,l),
(67,482,o),
(102,479,o),
(129,468,c),
(129,41,l),
(102,30,o),
(67,27,o),
(50,27,c),
(50,0,l)
);
}
);
width = 447;
}
);
metricLeft = F;
metricRight = F;
unicode = 42800;
},
{
color = 6;
glyphname = g.sc;
kernLeft = o.sc;
kernRight = g.sc;
lastChange = "2022-03-18 09:39:33 +0000";
layers = (
{
anchors = (
{
name = BOTTOM;
pos = (324,11);
},
{
name = TOP;
pos = (324,509);
}
);
layerId = "6D97EE47-94AA-478E-ABFB-936E6C32B491";
shapes = (
{
closed = 1;
nodes = (
(406,-13,o),
(476,12,o),
(543,13,c),
(543,46,l),
(535,48,o),
(523,55,o),
(520,59,c),
(520,164,l),
(538,175,o),
(561,178,o),
(573,178,c),
(573,205,l),
(374,205,l),
(374,178,l),
(389,178,o),
(420,175,o),
(443,164,c),
(443,56,l),
(289,-17,o),
(174,102,o),
(146,207,cs),
(116,323,o),
(168,439,o),
(265,465,cs),
(364,491,o),
(462,451,o),
(487,373,c),
(518,379,l),
(501,491,l),
(460,504,o),
(341,531,o),
(252,507,cs),
(110,469,o),
(21,324,o),
(59,185,cs),
(88,73,o),
(186,1,o),
(314,-7,cs)
);
}
);
width = 613;
}
);
metricLeft = G;
metricRight = G;
unicode = 610;
},
{
color = 6;
glyphname = h.sc;
kernLeft = h.sc;
kernRight = h.sc;
lastChange = "2022-03-18 09:39:33 +0000";
layers = (
{
anchors = (
{
name = BOTTOM;
pos = (515,0);
},
{
name = TOP;
pos = (342,509);
}
);
layerId = "6D97EE47-94AA-478E-ABFB-936E6C32B491";
shapes = (
{
closed = 1;
nodes = (
(289,0,l),
(289,27,l),
(272,27,o),
(237,30,o),
(210,41,c),
(210,235,l),
(474,235,l),
(474,41,l),
(447,30,o),
(412,27,o),
(395,27,c),
(395,0,l),
(634,0,l),
(634,27,l),
(617,27,o),
(582,30,o),
(555,41,c),
(555,468,l),
(582,479,o),
(617,482,o),
(634,482,c),
(634,509,l),
(395,509,l),
(395,482,l),
(412,482,o),
(447,479,o),
(474,468,c),
(474,281,l),
(210,281,l),
(210,468,l),
(237,479,o),
(272,482,o),
(289,482,c),
(289,509,l),
(50,509,l),
(50,482,l),
(67,482,o),
(102,479,o),
(129,468,c),
(129,41,l),
(102,30,o),
(67,27,o),
(50,27,c),
(50,0,l)
);
}
);
width = 684;
}
);
metricLeft = H;
metricRight = H;
unicode = 668;
},
{
color = 6;
glyphname = i.sc;
kernLeft = h.sc;
kernRight = h.sc;
lastChange = "2022-03-18 09:39:33 +0000";
layers = (
{
anchors = (
{
name = BOTTOM;
pos = (170,0);
},
{
name = TOP;
pos = (170,509);
}
);
layerId = "6D97EE47-94AA-478E-ABFB-936E6C32B491";
shapes = (
{
closed = 1;
nodes = (
(289,0,l),
(289,27,l),
(272,27,o),
(237,30,o),
(210,41,c),
(210,468,l),
(237,479,o),
(272,482,o),
(289,482,c),
(289,509,l),
(50,509,l),
(50,482,l),
(67,482,o),
(102,479,o),
(129,468,c),
(129,41,l),
(102,30,o),
(67,27,o),
(50,27,c),
(50,0,l)
);
}
);
width = 339;
}
);
metricLeft = I;
metricRight = I;
unicode = 618;
},
{
color = 6;
glyphname = j.sc;
kernLeft = j.sc;
kernRight = h.sc;
lastChange = "2022-03-18 09:39:33 +0000";
layers = (
{
anchors = (
{
name = TOP;
pos = (171,509);
}
);
layerId = "6D97EE47-94AA-478E-ABFB-936E6C32B491";
shapes = (
{
closed = 1;
nodes = (
(82,-237,o),
(186,-142,o),
(211,0,c),
(211,468,l),
(238,479,o),
(273,482,o),
(290,482,c),
(290,509,l),
(51,509,l),
(51,482,l),
(68,482,o),
(103,479,o),
(130,468,c),
(130,3,ls),
(130,-2,o),
(130,-6,o),
(129,-11,c),
(123,-99,o),
(89,-177,o),
(46,-225,c),
(66,-247,l)
);
}
);
width = 340;
}
);
metricLeft = J;
metricRight = J;
unicode = 7434;
},
{
color = 6;
glyphname = k.sc;
kernLeft = h.sc;
kernRight = k.sc;
lastChange = "2022-03-18 09:39:33 +0000";
layers = (
{
anchors = (
{
name = BOTTOM;
pos = (331,0);
}
);
layerId = "6D97EE47-94AA-478E-ABFB-936E6C32B491";
shapes = (
{
closed = 1;
nodes = (
(577,0,l),
(510,22,o),
(495,47,o),
(457,92,cs),
(414,142,o),
(338,249,o),
(310,288,c),
(478,469,l),
(504,479,o),
(538,482,o),
(555,482,c),
(555,509,l),
(341,509,l),
(341,482,l),
(356,482,o),
(388,479,o),
(413,468,c),
(228,269,l),
(250,240,o),
(356,80,o),
(393,42,cs),
(433,1,o),
(466,-28,o),
(572,-27,c)
);
},
{
closed = 1;
nodes = (
(293,0,l),
(293,27,l),
(275,27,o),
(238,30,o),
(210,41,c),
(210,468,l),
(237,479,o),
(272,482,o),
(289,482,c),
(289,509,l),
(50,509,l),
(50,482,l),
(67,482,o),
(102,479,o),
(129,468,c),
(129,41,l),
(102,30,o),
(67,27,o),
(50,27,c),
(50,0,l)
);
}
);
width = 571;
}
);
metricLeft = K;
metricRight = K;
unicode = 7435;
},
{
color = 6;
glyphname = l.sc;
kernLeft = h.sc;
kernRight = e.sc;
lastChange = "2022-03-18 09:39:33 +0000";
layers = (
{
anchors = (
{
name = BOTTOM;
pos = (268,0);
},
{
name = TOP;
pos = (170,509);
}
);
layerId = "6D97EE47-94AA-478E-ABFB-936E6C32B491";
shapes = (
{
closed = 1;
nodes = (
(435,0,l),
(476,130,l),
(449,139,l),
(442,122,o),
(416,71,o),
(396,46,c),
(210,46,l),
(210,468,l),
(237,479,o),
(272,482,o),
(289,482,c),
(289,509,l),
(50,509,l),
(50,482,l),
(67,482,o),
(102,479,o),
(129,468,c),
(129,41,l),
(102,30,o),
(67,27,o),
(50,27,c),
(50,0,l)
);
}
);
width = 480;
}
);
metricLeft = L;
metricRight = L;
unicode = 671;
},
{
color = 6;
glyphname = m.sc;
kernLeft = m.sc;
kernRight = m.sc;
lastChange = "2022-03-18 09:39:33 +0000";
layers = (
{
layerId = "6D97EE47-94AA-478E-ABFB-936E6C32B491";
shapes = (
{
closed = 1;
nodes = (
(246,0,l),
(246,27,l),
(229,27,o),
(194,30,o),
(167,41,c),
(186,406,l),
(351,0,l),
(544,374,l),
(557,41,l),
(530,30,o),
(495,27,o),
(478,27,c),
(478,0,l),
(717,0,l),
(717,27,l),
(700,27,o),
(665,30,o),
(638,41,c),
(622,468,l),
(649,479,o),
(684,482,o),
(701,482,c),
(701,509,l),
(561,509,l),
(377,151,l),
(232,509,l),
(62,509,l),
(62,482,l),
(79,482,o),
(114,479,o),
(141,468,c),
(119,41,l),
(92,30,o),
(57,27,o),
(40,27,c),
(40,0,l)
);
}
);
width = 767;
}
);
metricLeft = M;
metricRight = M;
unicode = 7437;
},
{
color = 6;
glyphname = n.sc;
kernLeft = h.sc;
kernRight = h.sc;
lastChange = "2022-03-18 09:39:33 +0000";
layers = (
{
anchors = (
{
name = BOTTOM;
pos = (321,0);
},
{
name = TOP;
pos = (321,509);
}
);
layerId = "6D97EE47-94AA-478E-ABFB-936E6C32B491";
shapes = (
{
closed = 1;
nodes = (
(517,-8,l),
(517,468,l),
(544,479,o),
(579,482,o),
(596,482,c),
(596,509,l),
(390,509,l),
(390,482,l),
(407,482,o),
(442,479,o),
(469,468,c),
(469,133,l),
(186,509,l),
(40,509,l),
(40,482,l),
(57,482,o),
(92,479,o),
(119,468,c),
(119,41,l),
(92,30,o),
(57,27,o),
(40,27,c),
(40,0,l),
(246,0,l),
(246,27,l),
(229,27,o),
(194,30,o),
(167,41,c),
(167,399,l),
(474,-8,l)
);
}
);
width = 636;
}
);
metricLeft = N;
metricRight = N;
unicode = 628;
},
{
color = 6;
glyphname = o.sc;
kernLeft = o.sc;
kernRight = o.sc;
lastChange = "2022-03-18 09:39:33 +0000";
layers = (
{
anchors = (
{
name = BOTTOM;
pos = (328,0);
},
{
name = TOP;
pos = (318,509);
}
);
layerId = "6D97EE47-94AA-478E-ABFB-936E6C32B491";
shapes = (
{
closed = 1;
nodes = (
(347,-8,o),
(381,-2,o),
(414,11,cs),
(517,53,o),
(582,154,o),
(582,259,cs),
(582,291,o),
(576,324,o),
(563,355,cs),
(522,457,o),
(421,517,o),
(317,517,cs),
(284,517,o),
(250,511,o),
(218,498,cs),
(115,457,o),
(50,356,o),
(50,251,cs),
(50,218,o),
(56,186,o),
(69,154,cs),
(109,52,o),
(209,-8,o),
(314,-8,cs)
);
},
{
closed = 1;
nodes = (
(268,38,o),
(190,96,o),
(155,188,cs),
(143,221,o),
(136,255,o),
(136,287,cs),
(136,366,o),
(173,435,o),
(235,461,cs),
(252,468,o),
(269,471,o),
(287,471,cs),
(361,471,o),
(440,413,o),
(476,322,cs),
(488,289,o),
(495,255,o),
(495,223,cs),
(495,143,o),
(458,74,o),
(397,49,cs),
(379,42,o),
(362,38,o),
(343,38,cs)
);
}
);
width = 632;
}
);
metricLeft = O;
metricRight = O;
unicode = 7439;
},
{
color = 6;
glyphname = p.sc;
kernLeft = h.sc;
kernRight = p.sc;
lastChange = "2022-03-18 09:39:33 +0000";
layers = (
{
layerId = "6D97EE47-94AA-478E-ABFB-936E6C32B491";
shapes = (
{
closed = 1;
nodes = (
(298,0,l),
(298,27,l),
(279,27,o),
(240,30,o),
(210,41,c),
(210,473,l),
(303,488,o),
(365,427,o),
(377,354,cs),
(390,278,o),
(359,223,o),
(258,218,c),
(262,186,l),
(395,178,o),
(478,259,o),
(464,366,cs),
(452,459,o),
(352,517,o),
(265,517,cs),
(210,517,o),
(147,511,o),
(87,505,cs),
(50,502,l),
(52,475,l),
(69,477,o),
(102,477,o),
(129,469,c),
(129,41,l),
(102,30,o),
(67,27,o),
(50,27,c),
(50,0,l)
);
}
);
width = 516;
}
);
metricLeft = P;
metricRight = P;
unicode = 7448;
},
{
color = 6;
glyphname = r.sc;
kernLeft = h.sc;
kernRight = r.sc;
lastChange = "2022-03-18 09:39:33 +0000";
layers = (
{
anchors = (
{
name = BOTTOM;
pos = (323,0);
},
{
name = TOP;
pos = (259,509);
}
);
layerId = "6D97EE47-94AA-478E-ABFB-936E6C32B491";
shapes = (
{
closed = 1;
nodes = (
(555,7,l),
(495,31,o),
(476,51,o),
(438,100,cs),
(404,143,o),
(366,204,o),
(339,249,c),
(439,297,o),
(455,384,o),
(435,435,cs),
(413,491,o),
(350,517,o),
(267,517,cs),
(196,517,o),
(131,509,o),
(66,503,cs),
(50,502,l),
(52,475,l),
(68,477,o),
(102,477,o),
(129,469,c),
(129,41,l),
(102,30,o),
(67,27,o),
(50,27,c),
(50,0,l),
(293,0,l),
(293,27,l),
(275,27,o),
(238,30,o),
(210,41,c),
(210,216,l),
(229,218,o),
(247,221,o),
(264,224,c),
(292,175,o),
(340,86,o),
(368,54,cs),
(407,9,o),
(444,-15,o),
(548,-20,c)
);
},
{
closed = 1;
nodes = (
(210,472,l),
(291,479,o),
(338,455,o),
(354,400,cs),
(375,327,o),
(314,256,o),
(210,250,c)
);
}
);
width = 549;
}
);
metricLeft = R;
metricRight = R;
unicode = 640;
},
{
color = 6;
glyphname = s.sc;
kernLeft = s.sc;
kernRight = s.sc;
lastChange = "2022-03-18 09:39:33 +0000";
layers = (
{
anchors = (
{
name = BOTTOM;
pos = (220,0);
},
{
name = TOP;
pos = (233,509);
}
);
layerId = "6D97EE47-94AA-478E-ABFB-936E6C32B491";
shapes = (
{
closed = 1;
nodes = (
(242,-8,o),
(269,-5,o),
(291,4,cs),
(351,29,o),
(380,70,o),
(380,127,cs),
(380,193,o),
(341,240,o),
(278,280,cs),
(242,303,o),
(186,336,o),
(170,366,cs),
(164,377,o),
(162,389,o),
(162,400,cs),
(162,435,o),
(189,469,o),
(237,469,cs),
(259,469,o),
(281,462,o),
(296,451,cs),
(316,437,o),
(335,412,o),
(340,372,c),
(371,376,l),
(355,503,l),
(341,504,o),
(300,517,o),
(250,517,cs),
(236,517,o),
(221,516,o),
(206,513,cs),
(124,497,o),
(81,452,o),
(81,382,cs),
(81,302,o),
(168,250,o),
(213,219,cs),
(255,190,o),
(293,160,o),
(296,124,cs),
(300,78,o),
(270,45,o),
(224,40,cs),
(219,39,o),
(213,39,o),
(207,39,cs),
(168,39,o),
(140,54,o),
(119,81,cs),
(103,101,o),
(87,136,o),
(79,173,c),
(46,166,l),
(70,21,l),
(75,14,o),
(146,-8,o),
(215,-8,cs)
);
}
);
width = 431;
}
);
metricLeft = S;
metricRight = S;
unicode = 42801;
},
{
color = 6;
glyphname = t.sc;
kernLeft = t.sc;
kernRight = t.sc;
lastChange = "2022-03-18 09:39:33 +0000";
layers = (
{
anchors = (
{
name = BOTTOM;
pos = (248,0);
},
{
name = TOP;
pos = (248,491);
}
);
layerId = "6D97EE47-94AA-478E-ABFB-936E6C32B491";
shapes = (
{
closed = 1;
nodes = (
(368,0,l),
(368,27,l),
(351,27,o),
(316,30,o),
(289,41,c),
(289,463,l),
(437,463,l),
(442,423,o),
(442,384,o),
(441,349,c),
(470,346,l),
(493,509,l),
(10,509,l),
(10,349,l),
(39,349,l),
(45,385,o),
(51,423,o),
(62,463,c),
(208,463,l),
(208,41,l),
(181,30,o),
(146,27,o),
(129,27,c),
(129,0,l)
);
}
);
width = 503;
}
);
metricLeft = T;
metricRight = T;
unicode = 7451;
},
{
color = 6;
glyphname = u.sc;
kernLeft = u.sc;
kernRight = u.sc;
lastChange = "2022-03-18 09:39:33 +0000";
layers = (
{
anchors = (
{
name = BOTTOM;
pos = (350,0);
},
{
name = TOP;
pos = (352,509);
}
);
layerId = "6D97EE47-94AA-478E-ABFB-936E6C32B491";
shapes = (
{
closed = 1;
nodes = (
(401,-8,o),
(499,13,o),
(529,105,cs),
(544,149,o),
(544,225,o),
(544,286,cs),
(544,468,l),
(571,479,o),
(606,482,o),
(623,482,c),
(623,509,l),
(417,509,l),
(417,482,l),
(434,482,o),
(469,479,o),
(496,468,c),
(496,291,ls),
(496,224,o),
(497,164,o),
(486,127,cs),
(470,73,o),
(420,46,o),
(349,46,cs),
(283,46,o),
(236,80,o),
(220,129,cs),
(208,166,o),
(210,247,o),
(210,283,cs),
(210,468,l),
(237,479,o),
(272,482,o),
(289,482,c),
(289,509,l),
(50,509,l),
(50,482,l),
(67,482,o),
(102,479,o),
(129,468,c),
(129,279,ls),
(129,207,o),
(129,143,o),
(147,101,cs),
(176,33,o),
(247,-8,o),
(342,-8,cs)
);
}
);
width = 663;
}
);
metricLeft = U;
metricRight = U;
unicode = 7452;
},
{
color = 6;
glyphname = v.sc;
kernLeft = v.sc;
kernRight = v.sc;
lastChange = "2022-03-18 09:39:33 +0000";
layers = (
{
layerId = "6D97EE47-94AA-478E-ABFB-936E6C32B491";
shapes = (
{
closed = 1;
nodes = (
(294,-8,l),
(489,469,l),
(512,479,o),
(540,482,o),
(555,482,c),
(555,509,l),
(360,509,l),
(360,482,l),
(377,482,o),
(412,479,o),
(439,468,c),
(297,120,l),
(164,468,l),
(191,479,o),
(226,482,o),
(243,482,c),
(243,509,l),
(4,509,l),
(4,482,l),
(20,482,o),
(52,479,o),
(77,468,c),
(260,-8,l)
);
}
);
width = 559;
}
);
metricLeft = V;
metricRight = V;
unicode = 7456;
},
{
color = 6;
glyphname = w.sc;
kernLeft = w.sc;
kernRight = w.sc;
lastChange = "2022-03-18 09:39:33 +0000";
layers = (
{
layerId = "6D97EE47-94AA-478E-ABFB-936E6C32B491";
shapes = (
{
closed = 1;
nodes = (
(238,-8,l),
(382,327,l),
(512,-8,l),
(546,-8,l),
(674,468,l),
(697,479,o),
(725,482,o),
(740,482,c),
(740,509,l),
(548,509,l),
(548,482,l),
(565,482,o),
(600,479,o),
(627,468,c),
(539,144,l),
(420,452,l),
(386,452,l),
(249,134,l),
(159,468,l),
(186,479,o),
(221,482,o),
(238,482,c),
(238,509,l),
(4,509,l),
(4,482,l),
(19,482,o),
(50,479,o),
(75,468,c),
(204,-8,l)
);
}
);
width = 716;
}
);
metricLeft = W;
metricRight = W;
unicode = 7457;
},
{
color = 6;
glyphname = y.sc;
kernLeft = v.sc;
kernRight = v.sc;
lastChange = "2022-03-18 09:39:33 +0000";
layers = (
{
anchors = (
{
name = TOP;
pos = (274,509);
}
);
layerId = "6D97EE47-94AA-478E-ABFB-936E6C32B491";
shapes = (
{
closed = 1;
nodes = (
(383,0,l),
(383,27,l),
(366,27,o),
(331,30,o),
(304,41,c),
(304,219,l),
(443,468,l),
(464,479,o),
(490,482,o),
(504,482,c),
(504,509,l),
(318,509,l),
(318,482,l),
(333,482,o),
(365,479,o),
(390,468,c),
(276,262,l),
(162,468,l),
(187,479,o),
(219,482,o),
(234,482,c),
(234,509,l),
(4,509,l),
(4,482,l),
(19,482,o),
(47,479,o),
(70,468,c),
(223,193,l),
(223,41,l),
(196,30,o),
(161,27,o),
(144,27,c),
(144,0,l)
);
}
);
width = 508;
}
);
metricLeft = Y;
metricRight = Y;
unicode = 655;
},
{
color = 6;
glyphname = z.sc;
kernLeft = z.sc;
kernRight = z.sc;
lastChange = "2022-03-18 09:39:33 +0000";
layers = (
{
anchors = (
{
name = TOP;
pos = (226,509);
}
);
layerId = "6D97EE47-94AA-478E-ABFB-936E6C32B491";
shapes = (
{
closed = 1;
nodes = (
(415,0,l),
(450,148,l),
(422,156,l),
(419,143,o),
(393,81,o),
(366,46,c),
(126,46,l),
(415,474,l),
(399,509,l),
(37,509,l),
(32,368,l),
(59,366,l),
(65,399,o),
(69,430,o),
(79,463,c),
(314,463,l),
(25,35,l),
(39,0,l)
);
}
);
width = 475;
}
);
metricLeft = Z;
metricRight = Z;
unicode = 7458;
},
{
color = 3;
glyphname = c_t.dlig;
kernLeft = o;
kernRight = t;
lastChange = "2022-03-18 09:39:33 +0000";
layers = (
{
layerId = "6D97EE47-94AA-478E-ABFB-936E6C32B491";
shapes = (
{
closed = 1;
nodes = (
(327,425,l),
(266,506,o),
(282,676,o),
(402,676,cs),
(461,676,o),
(494,642,o),
(510,594,c),
(510,456,l),
(588,456,l),
(588,607,l),
(559,681,o),
(502,721,o),
(422,721,cs),
(241,721,o),
(217,509,o),
(299,411,c)
);
},
{
ref = c;
},
{
pos = (434,0);
ref = t;
}
);
width = 743;
}
);
metricLeft = o;
metricRight = t;
},
{
color = 6;
glyphname = f_b.liga;
kernLeft = f;
kernRight = o;
lastChange = "2022-03-18 09:39:33 +0000";
layers = (
{
layerId = "6D97EE47-94AA-478E-ABFB-936E6C32B491";
shapes = (
{
closed = 1;
nodes = (
(283,0,l),
(283,30,l),
(263,30,o),
(220,33,o),
(188,46,c),
(188,400,l),
(334,400,l),
(334,456,l),
(186,456,l),
(187,504,o),
(177,636,o),
(225,689,cs),
(282,752,o),
(388,733,o),
(438,654,c),
(474,742,l),
(403,813,o),
(284,821,o),
(189,729,cs),
(110,653,o),
(107,548,o),
(107,456,c),
(57,456,l),
(46,400,l),
(107,400,l),
(107,46,l),
(80,33,o),
(45,30,o),
(28,30,c),
(28,0,l)
);
},
{
closed = 1;
nodes = (
(513,23,l),
(513,783,l),
(493,797,l),
(432,768,l),
(432,23,l)
);
},
{
closed = 1;
nodes = (
(528,-29,o),
(643,-18,o),
(721,37,cs),
(810,101,o),
(866,249,o),
(805,371,cs),
(751,477,o),
(604,499,o),
(502,383,c),
(502,342,l),
(568,412,o),
(681,408,o),
(729,325,cs),
(769,257,o),
(770,117,o),
(692,67,cs),
(619,20,o),
(534,41,o),
(501,97,c),
(432,23,l)
);
}
);
width = 855;
}
);
metricLeft = f;
metricRight = b;
},
{
color = 6;
glyphname = f_f.liga;
kernLeft = f;
kernRight = f;
lastChange = "2022-03-18 09:39:33 +0000";
layers = (
{
layerId = "6D97EE47-94AA-478E-ABFB-936E6C32B491";
shapes = (
{
closed = 1;
nodes = (
(283,0,l),
(283,30,l),
(263,30,o),
(220,33,o),
(188,46,c),
(188,404,l),
(334,404,l),
(334,440,l),
(312,456,l),
(186,456,l),
(187,504,o),
(176,628,o),
(225,680,cs),
(282,741,o),
(410,733,o),
(476,618,c),
(517,711,l),
(419,801,o),
(286,810,o),
(189,720,cs),
(109,645,o),
(107,548,o),
(107,456,c),
(57,456,l),
(46,400,l),
(107,400,l),
(107,46,l),
(80,33,o),
(45,30,o),
(28,30,c),
(28,0,l)
);
},
{
closed = 1;
nodes = (
(431,404,l),
(431,456,l),
(275,456,l),
(275,404,l)
);
},
{
closed = 1;
nodes = (
(608,0,l),
(608,30,l),
(588,30,o),
(545,33,o),
(513,46,c),
(513,400,l),
(659,400,l),
(659,456,l),
(511,456,l),
(512,504,o),
(502,636,o),
(550,689,cs),
(599,744,o),
(680,738,o),
(729,684,c),
(799,752,l),
(743,807,o),
(611,823,o),
(514,729,cs),
(435,653,o),
(432,548,o),
(432,456,c),
(382,456,l),
(371,404,l),
(432,404,l),
(432,46,l),
(405,33,o),
(370,30,o),
(353,30,c),
(353,0,l)
);
}
);
width = 689;
}
);
metricLeft = f;
metricRight = f;
},
{
color = 6;
glyphname = f_f_b.liga;
kernLeft = f;
kernRight = o;
lastChange = "2022-03-18 09:39:33 +0000";
layers = (
{
layerId = "6D97EE47-94AA-478E-ABFB-936E6C32B491";
shapes = (
{
closed = 1;
nodes = (
(608,0,l),
(608,30,l),
(588,30,o),
(545,33,o),
(513,46,c),
(513,400,l),
(659,400,l),
(659,456,l),
(511,456,l),
(512,504,o),
(502,636,o),
(550,689,cs),
(607,752,o),
(713,733,o),
(763,654,c),
(799,742,l),
(728,813,o),
(609,821,o),
(514,729,cs),
(435,653,o),
(432,548,o),
(432,456,c),
(275,456,l),
(275,404,l),
(432,404,l),
(432,46,l),
(405,33,o),
(370,30,o),
(353,30,c),
(353,0,l)
);
},
{
closed = 1;
nodes = (
(283,0,l),
(283,30,l),
(263,30,o),
(220,33,o),
(188,46,c),
(188,404,l),
(334,404,l),
(334,440,l),
(312,456,l),
(186,456,l),
(187,504,o),
(176,628,o),
(225,680,cs),
(282,741,o),
(410,733,o),
(476,618,c),
(517,711,l),
(419,801,o),
(286,810,o),
(189,720,cs),
(109,645,o),
(107,548,o),
(107,456,c),
(57,456,l),
(46,400,l),
(107,400,l),
(107,46,l),
(80,33,o),
(45,30,o),
(28,30,c),
(28,0,l)
);
},
{
closed = 1;
nodes = (
(838,23,l),
(838,783,l),
(818,797,l),
(757,768,l),
(757,23,l)
);
},
{
closed = 1;
nodes = (
(853,-29,o),
(968,-18,o),
(1046,37,cs),
(1135,101,o),
(1191,249,o),
(1130,371,cs),
(1076,477,o),
(929,499,o),
(827,383,c),
(827,342,l),
(893,412,o),
(1006,408,o),
(1054,325,cs),
(1094,257,o),
(1095,117,o),
(1017,67,cs),
(944,20,o),
(859,41,o),
(826,97,c),
(757,23,l)
);
}
);
width = 1180;
}
);
metricLeft = f;
metricRight = b;
},
{
color = 6;
glyphname = f_f_f_l.liga;
kernLeft = f;
kernRight = n;
lastChange = "2022-03-18 09:39:33 +0000";
layers = (
{
layerId = "6D97EE47-94AA-478E-ABFB-936E6C32B491";
shapes = (
{
closed = 1;
nodes = (
(608,0,l),
(608,30,l),
(588,30,o),
(545,33,o),
(513,46,c),
(513,404,l),
(659,404,l),
(659,440,l),
(637,456,l),
(511,456,l),
(512,504,o),
(501,628,o),
(550,680,cs),
(607,741,o),
(735,733,o),
(801,618,c),
(842,711,l),
(744,801,o),
(611,810,o),
(514,720,cs),
(434,645,o),
(432,548,o),
(432,456,c),
(276,456,l),
(276,404,l),
(432,404,l),
(432,46,l),
(405,33,o),
(370,30,o),
(353,30,c),
(353,0,l)
);
},
{
closed = 1;
nodes = (
(283,0,l),
(283,30,l),
(263,30,o),
(220,33,o),
(188,46,c),
(188,404,l),
(334,404,l),
(334,440,l),
(312,456,l),
(186,456,l),
(187,504,o),
(177,612,o),
(225,665,cs),
(282,728,o),
(400,742,o),
(472,608,c),
(517,699,l),
(421,793,o),
(286,799,o),
(189,705,cs),
(110,629,o),
(107,548,o),
(107,456,c),
(57,456,l),
(46,400,l),
(107,400,l),
(107,46,l),
(80,33,o),
(45,30,o),
(28,30,c),
(28,0,l)
);
},
{
closed = 1;
nodes = (
(933,0,l),
(933,30,l),
(913,30,o),
(870,33,o),
(838,46,c),
(838,400,l),
(984,400,l),
(984,456,l),
(836,456,l),
(837,504,o),
(827,636,o),
(875,689,cs),
(932,752,o),
(1038,733,o),
(1088,654,c),
(1124,742,l),
(1053,813,o),
(934,821,o),
(839,729,cs),
(760,653,o),
(757,548,o),
(757,456,c),
(608,456,l),
(608,404,l),
(757,404,l),
(757,46,l),
(730,33,o),
(695,30,o),
(678,30,c),
(678,0,l)
);
},
{
closed = 1;
nodes = (
(1242,0,l),
(1242,30,l),
(1225,30,o),
(1190,33,o),
(1163,46,c),
(1163,783,l),
(1143,797,l),
(1082,768,l),
(1082,46,l),
(1055,33,o),
(1020,30,o),
(1003,30,c),
(1003,0,l)
);
}
);
width = 1264;
}
);
metricLeft = f;
metricRight = l;
},
{
color = 6;
glyphname = f_f_h.liga;
kernLeft = f;
kernRight = n;
lastChange = "2022-03-18 09:39:33 +0000";
layers = (
{
layerId = "6D97EE47-94AA-478E-ABFB-936E6C32B491";
shapes = (
{
closed = 1;
nodes = (
(283,0,l),
(283,30,l),
(263,30,o),
(220,33,o),
(188,46,c),
(188,404,l),
(431,404,l),
(431,456,l),
(186,456,l),
(187,504,o),
(176,628,o),
(225,680,cs),
(282,741,o),
(410,733,o),
(476,618,c),
(517,711,l),
(419,801,o),
(286,810,o),
(189,720,cs),
(109,645,o),
(107,548,o),
(107,456,c),
(57,456,l),
(46,400,l),
(107,400,l),
(107,46,l),
(80,33,o),
(45,30,o),
(28,30,c),
(28,0,l)
);
},
{
closed = 1;
nodes = (
(608,0,l),
(608,30,l),
(588,30,o),
(545,33,o),
(513,46,c),
(513,400,l),
(659,400,l),
(659,456,l),
(511,456,l),
(512,504,o),
(502,636,o),
(550,689,cs),
(607,752,o),
(713,733,o),
(763,654,c),
(799,742,l),
(728,813,o),
(609,821,o),
(514,729,cs),
(435,653,o),
(432,548,o),
(432,456,c),
(382,456,l),
(371,404,l),
(432,404,l),
(432,46,l),
(405,33,o),
(370,30,o),
(353,30,c),
(353,0,l)
);
},
{
closed = 1;
nodes = (
(917,0,l),
(917,30,l),
(900,30,o),
(865,33,o),
(838,46,c),
(838,783,l),
(818,797,l),
(757,768,l),
(757,46,l),
(730,33,o),
(695,30,o),
(678,30,c),
(678,0,l)
);
},
{
closed = 1;
nodes = (
(1217,0,l),
(1217,30,l),
(1200,30,o),
(1165,33,o),
(1138,46,c),
(1138,314,ls),
(1138,374,o),
(1125,419,o),
(1074,447,cs),
(1055,458,o),
(1033,464,o),
(1009,464,cs),
(937,464,o),
(849,391,o),
(811,364,c),
(827,332,l),
(856,354,o),
(913,402,o),
(961,402,cs),
(983,402,o),
(1003,398,o),
(1017,387,cs),
(1055,358,o),
(1057,327,o),
(1057,276,cs),
(1057,46,l),
(1030,33,o),
(995,30,o),
(978,30,c),
(978,0,l)
);
}
);
width = 1239;
}
);
metricLeft = f;
metricRight = h;
},
{
color = 6;
glyphname = f_f_i.liga;
kernLeft = f;
kernRight = i;
lastChange = "2022-03-18 09:39:33 +0000";
layers = (
{
layerId = "6D97EE47-94AA-478E-ABFB-936E6C32B491";
shapes = (
{
closed = 1;
nodes = (
(188,0,l),
(188,404,l),
(334,404,l),
(334,440,l),
(312,456,l),
(186,456,l),
(187,504,o),
(176,628,o),
(225,680,cs),
(282,741,o),
(410,733,o),
(476,618,c),
(517,711,l),
(419,801,o),
(286,810,o),
(189,720,cs),
(109,645,o),
(107,548,o),
(107,456,c),
(57,456,l),
(46,400,l),
(107,400,l),
(107,0,l)
);
},
{
closed = 1;
nodes = (
(107,0,l),
(107,46,l),
(80,33,o),
(45,30,o),
(28,30,c),
(28,0,l)
);
},
{
closed = 1;
nodes = (
(283,0,l),
(283,30,l),
(263,30,o),
(220,33,o),
(188,46,c),
(188,0,l)
);
},
{
closed = 1;
nodes = (
(432,0,l),
(432,46,l),
(405,33,o),
(370,30,o),
(353,30,c),
(353,0,l)
);
},
{
closed = 1;
nodes = (
(608,0,l),
(608,30,l),
(588,30,o),
(545,33,o),
(513,46,c),
(513,0,l)
);
},
{
closed = 1;
nodes = (
(757,0,l),
(757,46,l),
(730,33,o),
(695,30,o),
(678,30,c),
(678,0,l)
);
},
{
closed = 1;
nodes = (
(401,404,l),
(401,456,l),
(275,456,l),
(275,404,l)
);
},
{
closed = 1;
nodes = (
(917,0,l),
(917,30,l),
(900,30,o),
(865,33,o),
(838,46,c),
(838,0,l)
);
},
{
closed = 1;
nodes = (
(513,0,l),
(513,404,l),
(659,404,l),
(659,440,l),
(637,456,l),
(511,456,l),
(512,504,o),
(502,636,o),
(550,689,cs),
(617,764,o),
(728,726,o),
(759,640,c),
(809,652,o),
(833,698,o),
(817,732,cs),
(799,771,o),
(753,794,o),
(697,796,cs),
(632,798,o),
(574,787,o),
(514,729,cs),
(435,653,o),
(432,548,o),
(432,456,c),
(382,456,l),
(371,404,l),
(432,404,l),
(432,0,l)
);
},
{
closed = 1;
nodes = (
(838,0,l),
(838,429,l),
(757,415,l),
(757,0,l)
);
},
{
closed = 1;
nodes = (
(838,404,l),
(838,438,l),
(812,456,l),
(593,456,l),
(593,404,l)
);
}
);
width = 939;
}
);
metricLeft = f;
metricRight = i;
},
{
color = 6;
glyphname = f_f_j.liga;
kernLeft = f;
kernRight = j;
lastChange = "2022-03-18 09:39:33 +0000";
layers = (
{
layerId = "6D97EE47-94AA-478E-ABFB-936E6C32B491";
shapes = (
{
closed = 1;
nodes = (
(188,0,l),
(188,404,l),
(334,404,l),
(334,440,l),
(312,456,l),
(186,456,l),
(187,504,o),
(176,628,o),
(225,680,cs),
(282,741,o),
(410,733,o),
(476,618,c),
(517,711,l),
(419,801,o),
(286,810,o),
(189,720,cs),
(109,645,o),
(107,548,o),
(107,456,c),
(57,456,l),
(46,400,l),
(107,400,l),
(107,0,l)
);
},
{
closed = 1;
nodes = (
(107,0,l),
(107,46,l),
(80,33,o),
(45,30,o),
(28,30,c),
(28,0,l)
);
},
{
closed = 1;
nodes = (
(283,0,l),
(283,30,l),
(263,30,o),
(220,33,o),
(188,46,c),
(188,0,l)
);
},
{
closed = 1;
nodes = (
(432,0,l),
(432,46,l),
(405,33,o),
(370,30,o),
(353,30,c),
(353,0,l)
);
},
{
closed = 1;
nodes = (
(608,0,l),
(608,30,l),
(588,30,o),
(545,33,o),
(513,46,c),
(513,0,l)
);
},
{
closed = 1;
nodes = (
(409,404,l),
(409,456,l),
(283,456,l),
(283,404,l)
);
},
{
closed = 1;
nodes = (
(677,-270,o),
(800,-182,o),
(838,-20,c),
(838,428,l),
(757,411,l),
(757,13,ls),
(757,-16,o),
(754,-46,o),
(749,-69,cs),
(727,-159,o),
(672,-231,o),
(638,-262,c),
(655,-284,l)
);
},
{
closed = 1;
nodes = (
(513,0,l),
(513,404,l),
(659,404,l),
(659,440,l),
(637,456,l),
(511,456,l),
(512,504,o),
(502,636,o),
(550,689,cs),
(617,764,o),
(728,726,o),
(759,640,c),
(809,652,o),
(833,698,o),
(817,732,cs),
(799,771,o),
(753,794,o),
(697,796,cs),
(632,798,o),
(574,787,o),
(514,729,cs),
(435,653,o),
(432,548,o),
(432,456,c),
(382,456,l),
(371,404,l),
(432,404,l),
(432,0,l)
);
},
{
closed = 1;
nodes = (
(838,404,l),
(838,438,l),
(812,456,l),
(593,456,l),
(593,404,l)
);
}
);
width = 884;
}
);
metricLeft = f;
metricRight = j;
},
{
color = 6;
glyphname = f_f_k.liga;
kernLeft = f;
kernRight = k;
lastChange = "2022-03-18 09:39:33 +0000";
layers = (
{
layerId = "6D97EE47-94AA-478E-ABFB-936E6C32B491";
shapes = (
{
closed = 1;
nodes = (
(188,0,l),
(188,404,l),
(334,404,l),
(334,440,l),
(312,456,l),
(186,456,l),
(187,504,o),
(176,628,o),
(225,680,cs),
(282,741,o),
(410,733,o),
(476,618,c),
(517,711,l),
(419,801,o),
(286,810,o),
(189,720,cs),
(109,645,o),
(107,548,o),
(107,456,c),
(57,456,l),
(46,400,l),
(107,400,l),
(107,0,l)
);
},
{
closed = 1;
nodes = (
(107,0,l),
(107,46,l),
(80,33,o),
(45,30,o),
(28,30,c),
(28,0,l)
);
},
{
closed = 1;
nodes = (
(283,0,l),
(283,30,l),
(263,30,o),
(220,33,o),
(188,46,c),
(188,0,l)
);
},
{
closed = 1;
nodes = (
(432,0,l),
(432,46,l),
(405,33,o),
(370,30,o),
(353,30,c),
(353,0,l)
);
},
{
closed = 1;
nodes = (
(608,0,l),
(608,30,l),
(588,30,o),
(545,33,o),
(513,46,c),
(513,0,l)
);
},
{
closed = 1;
nodes = (
(757,0,l),
(757,46,l),
(730,33,o),
(695,30,o),
(678,30,c),
(678,0,l)
);
},
{
closed = 1;
nodes = (
(409,404,l),
(409,456,l),
(283,456,l),
(283,404,l)
);
},
{
closed = 1;
nodes = (
(917,0,l),
(917,30,l),
(900,30,o),
(865,33,o),
(838,46,c),
(838,0,l)
);
},
{
closed = 1;
nodes = (
(513,0,l),
(513,400,l),
(659,400,l),
(659,456,l),
(511,456,l),
(512,504,o),
(502,636,o),
(550,689,cs),
(607,752,o),
(713,733,o),
(763,654,c),
(799,742,l),
(728,813,o),
(609,821,o),
(514,729,cs),
(435,653,o),
(432,548,o),
(432,456,c),
(382,456,l),
(371,404,l),
(432,404,l),
(432,0,l)
);
},
{
closed = 1;
nodes = (
(1184,-2,l),
(1131,17,o),
(1109,42,o),
(1074,81,cs),
(1031,129,o),
(961,222,o),
(931,264,c),
(852,246,l),
(874,216,o),
(973,68,o),
(1008,31,cs),
(1046,-6,o),
(1079,-28,o),
(1179,-31,c)
);
},
{
closed = 1;
nodes = (
(838,0,l),
(838,783,l),
(818,797,l),
(757,768,l),
(757,0,l)
);
},
{
closed = 1;
nodes = (
(1127,448,l),
(1056,448,l),
(852,246,l),
(887,210,l)
);
},
{
closed = 1;
nodes = (
(1015,456,l),
(936,456,l),
(936,426,l),
(953,426,o),
(988,423,o),
(1015,410,c)
);
},
{
closed = 1;
nodes = (
(1086,408,l),
(1086,456,l),
(1015,456,l),
(1015,408,l)
);
},
{
closed = 1;
nodes = (
(1110,423,o),
(1142,426,o),
(1157,426,c),
(1157,456,l),
(1086,456,l),
(1086,410,l)
);
}
);
width = 1194;
}
);
metricLeft = f;
metricRight = k;
},
{
color = 6;
glyphname = f_f_l.liga;
kernLeft = f;
kernRight = n;
lastChange = "2022-03-18 09:39:33 +0000";
layers = (
{
layerId = "6D97EE47-94AA-478E-ABFB-936E6C32B491";
shapes = (
{
closed = 1;
nodes = (
(188,0,l),
(188,404,l),
(334,404,l),
(334,440,l),
(312,456,l),
(186,456,l),
(187,504,o),
(176,628,o),
(225,680,cs),
(282,741,o),
(410,733,o),
(476,618,c),
(517,711,l),
(419,801,o),
(286,810,o),
(189,720,cs),
(109,645,o),
(107,548,o),
(107,456,c),
(57,456,l),
(46,400,l),
(107,400,l),
(107,0,l)
);
},
{
closed = 1;
nodes = (
(107,0,l),
(107,46,l),
(80,33,o),
(45,30,o),
(28,30,c),
(28,0,l)
);
},
{
closed = 1;
nodes = (
(283,0,l),
(283,30,l),
(263,30,o),
(220,33,o),
(188,46,c),
(188,0,l)
);
},
{
closed = 1;
nodes = (
(432,0,l),
(432,46,l),
(405,33,o),
(370,30,o),
(353,30,c),
(353,0,l)
);
},
{
closed = 1;
nodes = (
(608,0,l),
(608,30,l),
(588,30,o),
(545,33,o),
(513,46,c),
(513,0,l)
);
},
{
closed = 1;
nodes = (
(757,0,l),
(757,46,l),
(730,33,o),
(695,30,o),
(678,30,c),
(678,0,l)
);
},
{
closed = 1;
nodes = (
(409,404,l),
(409,456,l),
(283,456,l),
(283,404,l)
);
},
{
closed = 1;
nodes = (
(917,0,l),
(917,30,l),
(900,30,o),
(865,33,o),
(838,46,c),
(838,0,l)
);
},
{
closed = 1;
nodes = (
(513,0,l),
(513,400,l),
(659,400,l),
(659,456,l),
(511,456,l),
(512,504,o),
(502,636,o),
(550,689,cs),
(607,752,o),
(713,733,o),
(763,654,c),
(799,742,l),
(728,813,o),
(609,821,o),
(514,729,cs),
(435,653,o),
(432,548,o),
(432,456,c),
(382,456,l),
(371,404,l),
(432,404,l),
(432,0,l)
);
},
{
closed = 1;
nodes = (
(838,0,l),
(838,783,l),
(818,797,l),
(757,768,l),
(757,0,l)
);
}
);
width = 939;
}
);
metricLeft = f;
metricRight = l;
},
{
color = 6;
glyphname = f_f_t.liga;
kernLeft = f;
kernRight = t;
lastChange = "2022-03-18 09:39:33 +0000";
layers = (
{
anchors = (
{
name = BOTTOM;
pos = (852,0);
}
);
layerId = "6D97EE47-94AA-478E-ABFB-936E6C32B491";
shapes = (
{
closed = 1;
nodes = (
(188,0,l),
(188,404,l),
(334,404,l),
(334,440,l),
(312,456,l),
(186,456,l),
(187,504,o),
(176,628,o),
(225,680,cs),
(282,741,o),
(410,733,o),
(476,618,c),
(517,711,l),
(419,801,o),
(286,810,o),
(189,720,cs),
(109,645,o),
(107,548,o),
(107,456,c),
(57,456,l),
(46,400,l),
(107,400,l),
(107,0,l)
);
},
{
closed = 1;
nodes = (
(107,0,l),
(107,46,l),
(80,33,o),
(45,30,o),
(28,30,c),
(28,0,l)
);
},
{
closed = 1;
nodes = (
(283,0,l),
(283,30,l),
(263,30,o),
(220,33,o),
(188,46,c),
(188,0,l)
);
},
{
closed = 1;
nodes = (
(432,0,l),
(432,46,l),
(405,33,o),
(370,30,o),
(353,30,c),
(353,0,l)
);
},
{
closed = 1;
nodes = (
(608,0,l),
(608,30,l),
(588,30,o),
(545,33,o),
(513,46,c),
(513,0,l)
);
},
{
closed = 1;
nodes = (
(409,404,l),
(409,456,l),
(283,456,l),
(283,404,l)
);
},
{
closed = 1;
nodes = (
(513,0,l),
(513,404,l),
(659,404,l),
(659,440,l),
(637,456,l),
(511,456,l),
(512,504,o),
(502,636,o),
(550,689,cs),
(599,744,o),
(680,738,o),
(729,684,c),
(799,752,l),
(743,807,o),
(611,823,o),
(514,729,cs),
(435,653,o),
(432,548,o),
(432,456,c),
(382,456,l),
(371,404,l),
(432,404,l),
(432,0,l)
);
},
{
closed = 1;
nodes = (
(896,-8,o),
(959,24,o),
(979,41,c),
(965,66,l),
(946,56,o),
(884,39,o),
(859,56,cs),
(840,68,o),
(838,85,o),
(838,127,cs),
(838,400,l),
(977,400,l),
(977,456,l),
(838,456,l),
(838,533,l),
(818,542,l),
(790,507,o),
(743,454,o),
(704,431,c),
(704,404,l),
(757,404,l),
(757,102,ls),
(757,34,o),
(788,-8,o),
(842,-8,cs)
);
},
{
closed = 1;
nodes = (
(767,404,l),
(767,456,l),
(607,456,l),
(607,404,l)
);
}
);
width = 993;
}
);
metricLeft = f;
metricRight = t;
},
{
color = 6;
glyphname = f_h.liga;
kernLeft = f;
kernRight = n;
lastChange = "2022-03-18 09:39:33 +0000";
layers = (
{
layerId = "6D97EE47-94AA-478E-ABFB-936E6C32B491";
shapes = (
{
closed = 1;
nodes = (
(188,0,l),
(188,400,l),
(334,400,l),
(334,456,l),
(186,456,l),
(187,504,o),
(177,636,o),
(225,689,cs),
(282,752,o),
(388,733,o),
(438,654,c),
(474,742,l),
(403,813,o),
(284,821,o),
(189,729,cs),
(110,653,o),
(107,548,o),
(107,456,c),
(57,456,l),
(46,400,l),
(107,400,l),
(107,0,l)
);
},
{
closed = 1;
nodes = (
(107,0,l),
(107,46,l),
(80,33,o),
(45,30,o),
(28,30,c),
(28,0,l)
);
},
{
closed = 1;
nodes = (
(283,0,l),
(283,30,l),
(263,30,o),
(220,33,o),
(188,46,c),
(188,0,l)
);
},
{
closed = 1;
nodes = (
(432,0,l),
(432,46,l),
(405,33,o),
(370,30,o),
(353,30,c),
(353,0,l)
);
},
{
closed = 1;
nodes = (
(592,0,l),
(592,30,l),
(575,30,o),
(540,33,o),
(513,46,c),
(513,0,l)
);
},
{
closed = 1;
nodes = (
(732,0,l),
(732,46,l),
(705,33,o),
(670,30,o),
(653,30,c),
(653,0,l)
);
},
{
closed = 1;
nodes = (
(513,0,l),
(513,783,l),
(493,797,l),
(432,768,l),
(432,0,l)
);
},
{
closed = 1;
nodes = (
(892,0,l),
(892,30,l),
(875,30,o),
(840,33,o),
(813,46,c),
(813,0,l)
);
},
{
closed = 1;
nodes = (
(813,0,l),
(813,314,ls),
(813,374,o),
(800,419,o),
(749,447,cs),
(730,458,o),
(708,464,o),
(684,464,cs),
(612,464,o),
(524,391,o),
(486,364,c),
(502,332,l),
(531,354,o),
(588,402,o),
(636,402,cs),
(658,402,o),
(678,398,o),
(692,387,cs),
(730,358,o),
(732,327,o),
(732,276,cs),
(732,0,l)
);
}
);
width = 914;
}
);
metricLeft = f;
metricRight = h;
},
{
color = 6;
glyphname = f_i.liga;
kernLeft = f;
kernRight = i;
lastChange = "2022-03-18 09:39:33 +0000";
layers = (
{
layerId = "6D97EE47-94AA-478E-ABFB-936E6C32B491";
shapes = (
{
closed = 1;
nodes = (
(188,0,l),
(188,404,l),
(334,404,l),
(334,440,l),
(312,456,l),
(186,456,l),
(187,504,o),
(177,636,o),
(225,689,cs),
(292,764,o),
(403,726,o),
(434,640,c),
(484,652,o),
(508,698,o),
(492,732,cs),
(474,771,o),
(428,794,o),
(372,796,cs),
(307,798,o),
(249,787,o),
(189,729,cs),
(110,653,o),
(107,548,o),
(107,456,c),
(57,456,l),
(46,400,l),
(107,400,l),
(107,0,l)
);
},
{
closed = 1;
nodes = (
(107,0,l),
(107,46,l),
(80,33,o),
(45,30,o),
(28,30,c),
(28,0,l)
);
},
{
closed = 1;
nodes = (
(283,0,l),
(283,30,l),
(263,30,o),
(220,33,o),
(188,46,c),
(188,0,l)
);
},
{
closed = 1;
nodes = (
(432,0,l),
(432,46,l),
(405,33,o),
(370,30,o),
(353,30,c),
(353,0,l)
);
},
{
closed = 1;
nodes = (
(592,0,l),
(592,30,l),
(575,30,o),
(540,33,o),
(513,46,c),
(513,0,l)
);
},
{
closed = 1;
nodes = (
(513,0,l),
(513,429,l),
(432,415,l),
(432,0,l)
);
},
{
closed = 1;
nodes = (
(513,404,l),
(513,438,l),
(487,456,l),
(268,456,l),
(268,404,l)
);
}
);
width = 614;
}
);
metricLeft = f;
metricRight = i;
},
{
color = 6;
glyphname = f_j.liga;
kernLeft = f;
kernRight = j;
lastChange = "2022-03-18 09:39:33 +0000";
layers = (
{
layerId = "6D97EE47-94AA-478E-ABFB-936E6C32B491";
shapes = (
{
closed = 1;
nodes = (
(188,0,l),
(188,404,l),
(334,404,l),
(334,440,l),
(312,456,l),
(186,456,l),
(187,504,o),
(177,636,o),
(225,689,cs),
(292,764,o),
(403,726,o),
(434,640,c),
(484,652,o),
(508,698,o),
(492,732,cs),
(474,771,o),
(428,794,o),
(372,796,cs),
(307,798,o),
(249,787,o),
(189,729,cs),
(110,653,o),
(107,548,o),
(107,456,c),
(57,456,l),
(46,400,l),
(107,400,l),
(107,0,l)
);
},
{
closed = 1;
nodes = (
(107,0,l),
(107,46,l),
(80,33,o),
(45,30,o),
(28,30,c),
(28,0,l)
);
},
{
closed = 1;
nodes = (
(283,0,l),
(283,30,l),
(263,30,o),
(220,33,o),
(188,46,c),
(188,0,l)
);
},
{
closed = 1;
nodes = (
(352,-270,o),
(475,-182,o),
(513,-20,c),
(513,428,l),
(432,411,l),
(432,13,ls),
(432,-16,o),
(429,-46,o),
(424,-69,cs),
(402,-159,o),
(347,-231,o),
(313,-262,c),
(330,-284,l)
);
},
{
closed = 1;
nodes = (
(513,404,l),
(513,438,l),
(487,456,l),
(268,456,l),
(268,404,l)
);
}
);
width = 559;
}
);
metricLeft = f;
metricRight = j;
},
{
color = 6;
glyphname = f_k.liga;
kernLeft = f;
kernRight = k;
lastChange = "2022-03-18 09:39:33 +0000";
layers = (
{
layerId = "6D97EE47-94AA-478E-ABFB-936E6C32B491";
shapes = (
{
closed = 1;
nodes = (
(188,0,l),
(188,400,l),
(334,400,l),
(334,456,l),
(186,456,l),
(187,504,o),
(177,636,o),
(225,689,cs),
(282,752,o),
(388,733,o),
(438,654,c),
(474,742,l),
(403,813,o),
(284,821,o),
(189,729,cs),
(110,653,o),
(107,548,o),
(107,456,c),
(57,456,l),
(46,400,l),
(107,400,l),
(107,0,l)
);
},
{
closed = 1;
nodes = (
(107,0,l),
(107,46,l),
(80,33,o),
(45,30,o),
(28,30,c),
(28,0,l)
);
},
{
closed = 1;
nodes = (
(283,0,l),
(283,30,l),
(263,30,o),
(220,33,o),
(188,46,c),
(188,0,l)
);
},
{
closed = 1;
nodes = (
(432,0,l),
(432,46,l),
(405,33,o),
(370,30,o),
(353,30,c),
(353,0,l)
);
},
{
closed = 1;
nodes = (
(592,0,l),
(592,30,l),
(575,30,o),
(540,33,o),
(513,46,c),
(513,0,l)
);
},
{
closed = 1;
nodes = (
(859,-2,l),
(806,17,o),
(784,42,o),
(749,81,cs),
(706,129,o),
(636,222,o),
(606,264,c),
(527,246,l),
(549,216,o),
(648,68,o),
(683,31,cs),
(721,-6,o),
(754,-28,o),
(854,-31,c)
);
},
{
closed = 1;
nodes = (
(513,0,l),
(513,783,l),
(493,797,l),
(432,768,l),
(432,0,l)
);
},
{
closed = 1;
nodes = (
(802,448,l),
(731,448,l),
(527,246,l),
(562,210,l)
);
},
{
closed = 1;
nodes = (
(690,456,l),
(611,456,l),
(611,426,l),
(628,426,o),
(663,423,o),
(690,410,c)
);
},
{
closed = 1;
nodes = (
(761,408,l),
(761,456,l),
(690,456,l),
(690,408,l)
);
},
{
closed = 1;
nodes = (
(785,423,o),
(817,426,o),
(832,426,c),
(832,456,l),
(761,456,l),
(761,410,l)
);
}
);
width = 869;
}
);
metricLeft = f;
metricRight = k;
},
{
color = 6;
glyphname = f_l.liga;
kernLeft = f;
kernRight = n;
lastChange = "2022-03-18 09:39:33 +0000";
layers = (
{
layerId = "6D97EE47-94AA-478E-ABFB-936E6C32B491";
shapes = (
{
closed = 1;
nodes = (
(188,0,l),
(188,400,l),
(334,400,l),
(334,456,l),
(186,456,l),
(187,504,o),
(177,636,o),
(225,689,cs),
(282,752,o),
(388,733,o),
(438,654,c),
(474,742,l),
(403,813,o),
(284,821,o),
(189,729,cs),
(110,653,o),
(107,548,o),
(107,456,c),
(57,456,l),
(46,400,l),
(107,400,l),
(107,0,l)
);
},
{
closed = 1;
nodes = (
(107,0,l),
(107,46,l),
(80,33,o),
(45,30,o),
(28,30,c),
(28,0,l)
);
},
{
closed = 1;
nodes = (
(283,0,l),
(283,30,l),
(263,30,o),
(220,33,o),
(188,46,c),
(188,0,l)
);
},
{
closed = 1;
nodes = (
(432,0,l),
(432,46,l),
(405,33,o),
(370,30,o),
(353,30,c),
(353,0,l)
);
},
{
closed = 1;
nodes = (
(592,0,l),
(592,30,l),
(575,30,o),
(540,33,o),
(513,46,c),
(513,0,l)
);
},
{
closed = 1;
nodes = (
(513,0,l),
(513,783,l),
(493,797,l),
(432,768,l),
(432,0,l)
);
}
);
width = 614;
}
);
metricLeft = f;
metricRight = l;
},
{
color = 6;
glyphname = f_t.liga;
kernLeft = f;
kernRight = t;
lastChange = "2022-03-18 09:39:33 +0000";
layers = (
{
anchors = (
{
name = BOTTOM;
pos = (527,0);
}
);
layerId = "6D97EE47-94AA-478E-ABFB-936E6C32B491";
shapes = (
{
closed = 1;
nodes = (
(188,0,l),
(188,404,l),
(294,404,l),
(294,440,l),
(272,456,l),
(186,456,l),
(187,504,o),
(177,636,o),
(225,689,cs),
(274,744,o),
(355,738,o),
(404,684,c),
(474,752,l),
(418,807,o),
(286,823,o),
(189,729,cs),
(110,653,o),
(107,548,o),
(107,456,c),
(57,456,l),
(46,400,l),
(107,400,l),
(107,0,l)
);
},
{
closed = 1;
nodes = (
(107,0,l),
(107,46,l),
(80,33,o),
(45,30,o),
(28,30,c),
(28,0,l)
);
},
{
closed = 1;
nodes = (
(283,0,l),
(283,30,l),
(263,30,o),
(220,33,o),
(188,46,c),
(188,0,l)
);
},
{
closed = 1;
nodes = (
(531,-8,o),
(594,24,o),
(614,41,c),
(600,66,l),
(581,56,o),
(519,39,o),
(494,56,cs),
(475,68,o),
(473,85,o),
(473,127,cs),
(473,400,l),
(612,400,l),
(612,456,l),
(473,456,l),
(473,533,l),
(453,542,l),
(425,507,o),
(378,454,o),
(339,431,c),
(339,404,l),
(392,404,l),
(392,102,ls),
(392,34,o),
(423,-8,o),
(477,-8,cs)
);
},
{
closed = 1;
nodes = (
(402,404,l),
(402,456,l),
(242,456,l),
(242,404,l)
);
}
);
width = 628;
}
);
metricLeft = f;
metricRight = t;
},
{
color = 3;
glyphname = s_p.dlig;
kernLeft = s;
kernRight = o;
lastChange = "2022-03-18 09:39:33 +0000";
layers = (
{
layerId = "6D97EE47-94AA-478E-ABFB-936E6C32B491";
shapes = (
{
closed = 1;
nodes = (
(288,425,l),
(227,506,o),
(243,676,o),
(363,676,cs),
(422,676,o),
(455,642,o),
(471,594,c),
(471,426,l),
(549,456,l),
(549,607,l),
(520,681,o),
(463,721,o),
(383,721,cs),
(202,721,o),
(178,509,o),
(260,411,c)
);
},
{
ref = s;
},
{
pos = (361,0);
ref = p;
}
);
width = 890;
}
);
metricLeft = s;
metricRight = o;
},
{
color = 3;
glyphname = s_t.dlig;
kernLeft = s;
kernRight = t;
lastChange = "2022-03-18 09:39:33 +0000";
layers = (
{
layerId = "6D97EE47-94AA-478E-ABFB-936E6C32B491";
shapes = (
{
closed = 1;
nodes = (
(601,-8,o),
(664,24,o),
(684,41,c),
(670,66,l),
(651,56,o),
(590,40,o),
(564,56,cs),
(545,68,o),
(543,85,o),
(543,127,cs),
(543,400,l),
(682,400,l),
(682,456,l),
(543,456,l),
(497,511,l),
(470,481,o),
(438,448,o),
(409,431,c),
(409,400,l),
(462,400,l),
(462,102,ls),
(462,34,o),
(493,-8,o),
(547,-8,cs)
);
},
{
ref = s;
},
{
closed = 1;
nodes = (
(282,425,l),
(221,506,o),
(237,676,o),
(357,676,cs),
(416,676,o),
(449,642,o),
(465,594,c),
(465,456,l),
(543,456,l),
(543,607,l),
(514,681,o),
(457,721,o),
(377,721,cs),
(196,721,o),
(172,509,o),
(254,411,c)
);
}
);
width = 698;
}
);
metricLeft = s;
metricRight = t;
},
{
color = 6;
glyphname = longs_b.liga;
kernLeft = f;
kernRight = o;
lastChange = "2022-03-18 09:39:33 +0000";
layers = (
{
layerId = "6D97EE47-94AA-478E-ABFB-936E6C32B491";
shapes = (
{
closed = 1;
nodes = (
(188,0,l),
(188,489,ls),
(188,601,o),
(189,649,o),
(225,689,cs),
(282,752,o),
(388,733,o),
(438,654,c),
(474,742,l),
(403,813,o),
(284,821,o),
(189,729,cs),
(110,653,o),
(107,548,o),
(107,456,c),
(47,456,l),
(36,400,l),
(107,400,l),
(107,0,l)
);
},
{
closed = 1;
nodes = (
(107,0,l),
(107,46,l),
(80,33,o),
(45,30,o),
(28,30,c),
(28,0,l)
);
},
{
closed = 1;
nodes = (
(275,0,l),
(275,30,l),
(256,30,o),
(218,33,o),
(188,46,c),
(188,0,l)
);
},
{
closed = 1;
nodes = (
(513,23,l),
(513,783,l),
(493,797,l),
(432,768,l),
(432,23,l)
);
},
{
closed = 1;
nodes = (
(528,-29,o),
(643,-18,o),
(721,37,cs),
(811,100,o),
(866,249,o),
(805,371,cs),
(752,477,o),
(604,499,o),
(502,383,c),
(502,342,l),
(568,412,o),
(681,408,o),
(729,325,cs),
(768,257,o),
(770,117,o),
(692,67,cs),
(619,20,o),
(534,41,o),
(501,97,c),
(432,23,l)
);
}
);
width = 855;
}
);
metricLeft = longs;
metricRight = b;
},
{
color = 6;
glyphname = longs_h.liga;
kernLeft = f;
kernRight = n;
lastChange = "2022-03-18 09:39:33 +0000";
layers = (
{
layerId = "6D97EE47-94AA-478E-ABFB-936E6C32B491";
shapes = (
{
closed = 1;
nodes = (
(188,0,l),
(188,489,ls),
(188,601,o),
(189,649,o),
(225,689,cs),
(282,752,o),
(388,733,o),
(438,654,c),
(474,742,l),
(403,813,o),
(284,821,o),
(189,729,cs),
(110,653,o),
(107,548,o),
(107,456,c),
(47,456,l),
(36,400,l),
(107,400,l),
(107,0,l)
);
},
{
closed = 1;
nodes = (
(107,0,l),
(107,46,l),
(80,33,o),
(45,30,o),
(28,30,c),
(28,0,l)
);
},
{
closed = 1;
nodes = (
(283,0,l),
(283,30,l),
(263,30,o),
(220,33,o),
(188,46,c),
(188,0,l)
);
},
{
closed = 1;
nodes = (
(432,0,l),
(432,46,l),
(405,33,o),
(370,30,o),
(353,30,c),
(353,0,l)
);
},
{
closed = 1;
nodes = (
(592,0,l),
(592,30,l),
(575,30,o),
(540,33,o),
(513,46,c),
(513,0,l)
);
},
{
closed = 1;
nodes = (
(732,0,l),
(732,46,l),
(705,33,o),
(670,30,o),
(653,30,c),
(653,0,l)
);
},
{
closed = 1;
nodes = (
(513,0,l),
(513,783,l),
(493,797,l),
(432,768,l),
(432,0,l)
);
},
{
closed = 1;
nodes = (
(892,0,l),
(892,30,l),
(875,30,o),
(840,33,o),
(813,46,c),
(813,0,l)
);
},
{
closed = 1;
nodes = (
(813,0,l),
(813,314,ls),
(813,374,o),
(799,418,o),
(749,447,cs),
(730,458,o),
(708,464,o),
(684,464,cs),
(612,464,o),
(524,391,o),
(486,364,c),
(502,332,l),
(531,354,o),
(588,402,o),
(636,402,cs),
(658,402,o),
(678,398,o),
(692,387,cs),
(730,357,o),
(732,327,o),
(732,276,cs),
(732,0,l)
);
}
);
width = 914;
}
);
metricLeft = longs;
metricRight = h;
},
{
color = 3;
glyphname = longs_i.liga;
kernLeft = f;
kernRight = i;
lastChange = "2022-03-18 09:39:33 +0000";
layers = (
{
layerId = "6D97EE47-94AA-478E-ABFB-936E6C32B491";
shapes = (
{
closed = 1;
nodes = (
(188,0,l),
(188,489,ls),
(188,601,o),
(189,649,o),
(225,689,cs),
(293,764,o),
(403,726,o),
(434,640,c),
(484,652,o),
(508,698,o),
(492,732,cs),
(474,771,o),
(428,794,o),
(372,796,cs),
(307,798,o),
(249,787,o),
(189,729,cs),
(110,653,o),
(107,548,o),
(107,456,c),
(47,456,l),
(36,400,l),
(107,400,l),
(107,0,l)
);
},
{
closed = 1;
nodes = (
(107,0,l),
(107,46,l),
(80,33,o),
(45,30,o),
(28,30,c),
(28,0,l)
);
},
{
closed = 1;
nodes = (
(283,0,l),
(283,30,l),
(263,30,o),
(220,33,o),
(188,46,c),
(188,0,l)
);
},
{
pos = (325,0);
ref = idotless;
}
);
width = 614;
}
);
metricLeft = longs;
metricRight = i;
},
{
color = 3;
glyphname = longs_j.liga;
kernLeft = f;
kernRight = j;
lastChange = "2022-03-18 09:39:33 +0000";
layers = (
{
layerId = "6D97EE47-94AA-478E-ABFB-936E6C32B491";
shapes = (
{
closed = 1;
nodes = (
(188,0,l),
(188,489,ls),
(188,601,o),
(189,649,o),
(225,689,cs),
(293,764,o),
(403,726,o),
(434,640,c),
(484,652,o),
(508,698,o),
(492,732,cs),
(474,771,o),
(428,794,o),
(372,796,cs),
(307,798,o),
(249,787,o),
(189,729,cs),
(110,653,o),
(107,548,o),
(107,456,c),
(47,456,l),
(36,400,l),
(107,400,l),
(107,0,l)
);
},
{
closed = 1;
nodes = (
(107,0,l),
(107,46,l),
(80,33,o),
(45,30,o),
(28,30,c),
(28,0,l)
);
},
{
closed = 1;
nodes = (
(283,0,l),
(283,30,l),
(263,30,o),
(220,33,o),
(188,46,c),
(188,0,l)
);
},
{
pos = (343,0);
ref = jdotless;
}
);
width = 567;
}
);
metricLeft = longs;
metricRight = j;
},
{
color = 6;
glyphname = longs_k.liga;
kernLeft = f;
kernRight = k;
lastChange = "2022-03-18 09:39:33 +0000";
layers = (
{
layerId = "6D97EE47-94AA-478E-ABFB-936E6C32B491";
shapes = (
{
closed = 1;
nodes = (
(283,0,l),
(283,30,l),
(263,30,o),
(220,33,o),
(188,46,c),
(188,489,ls),
(188,601,o),
(189,649,o),
(225,689,cs),
(282,752,o),
(388,733,o),
(438,654,c),
(474,742,l),
(403,813,o),
(284,821,o),
(189,729,cs),
(110,653,o),
(107,548,o),
(107,456,c),
(47,456,l),
(36,400,l),
(107,400,l),
(107,46,l),
(80,33,o),
(45,30,o),
(28,30,c),
(28,0,l)
);
},
{
closed = 1;
nodes = (
(592,0,l),
(592,30,l),
(575,30,o),
(540,33,o),
(513,46,c),
(513,783,l),
(493,797,l),
(432,768,l),
(432,46,l),
(405,33,o),
(370,30,o),
(353,30,c),
(353,0,l)
);
},
{
closed = 1;
nodes = (
(859,-2,l),
(806,17,o),
(784,42,o),
(749,81,cs),
(708,127,o),
(642,214,o),
(610,258,c),
(766,413,l),
(790,423,o),
(818,426,o),
(832,426,c),
(832,456,l),
(611,456,l),
(611,426,l),
(628,426,o),
(663,423,o),
(690,410,c),
(690,408,l),
(691,408,l),
(527,246,l),
(549,216,o),
(647,67,o),
(683,31,cs),
(721,-7,o),
(754,-28,o),
(854,-31,c)
);
}
);
width = 869;
}
);
metricLeft = longs;
metricRight = k;
},
{
color = 6;
glyphname = longs_l.liga;
kernLeft = f;
kernRight = n;
lastChange = "2022-03-18 09:39:33 +0000";
layers = (
{
layerId = "6D97EE47-94AA-478E-ABFB-936E6C32B491";
shapes = (
{
closed = 1;
nodes = (
(188,0,l),
(188,489,ls),
(188,601,o),
(189,649,o),
(225,689,cs),
(282,752,o),
(388,733,o),
(438,654,c),
(474,742,l),
(403,813,o),
(284,821,o),
(189,729,cs),
(110,653,o),
(107,548,o),
(107,456,c),
(47,456,l),
(36,400,l),
(107,400,l),
(107,0,l)
);
},
{
closed = 1;
nodes = (
(107,0,l),
(107,46,l),
(80,33,o),
(45,30,o),
(28,30,c),
(28,0,l)
);
},
{
closed = 1;
nodes = (
(283,0,l),
(283,30,l),
(263,30,o),
(220,33,o),
(188,46,c),
(188,0,l)
);
},
{
closed = 1;
nodes = (
(432,0,l),
(432,46,l),
(405,33,o),
(370,30,o),
(353,30,c),
(353,0,l)
);
},
{
closed = 1;
nodes = (
(592,0,l),
(592,30,l),
(575,30,o),
(540,33,o),
(513,46,c),
(513,0,l)
);
},
{
closed = 1;
nodes = (
(513,0,l),
(513,783,l),
(493,797,l),
(432,768,l),
(432,0,l)
);
}
);
width = 614;
}
);
metricLeft = longs;
metricRight = l;
},
{
color = 6;
glyphname = longs_longs.liga;
kernLeft = f;
kernRight = longs;
lastChange = "2022-03-18 09:39:33 +0000";
layers = (
{
layerId = "6D97EE47-94AA-478E-ABFB-936E6C32B491";
shapes = (
{
closed = 1;
nodes = (
(188,0,l),
(188,489,ls),
(188,601,o),
(188,641,o),
(225,680,cs),
(282,741,o),
(410,733,o),
(476,618,c),
(517,711,l),
(419,801,o),
(285,812,o),
(189,720,cs),
(110,644,o),
(107,548,o),
(107,456,c),
(47,456,l),
(36,400,l),
(107,400,l),
(107,0,l)
);
},
{
closed = 1;
nodes = (
(107,0,l),
(107,46,l),
(80,33,o),
(45,30,o),
(28,30,c),
(28,0,l)
);
},
{
closed = 1;
nodes = (
(283,0,l),
(283,30,l),
(263,30,o),
(220,33,o),
(188,46,c),
(188,0,l)
);
},
{
closed = 1;
nodes = (
(432,0,l),
(432,46,l),
(405,33,o),
(370,30,o),
(353,30,c),
(353,0,l)
);
},
{
closed = 1;
nodes = (
(608,0,l),
(608,30,l),
(588,30,o),
(545,33,o),
(513,46,c),
(513,0,l)
);
},
{
closed = 1;
nodes = (
(513,0,l),
(513,489,ls),
(513,601,o),
(514,649,o),
(550,689,cs),
(599,744,o),
(680,738,o),
(729,684,c),
(799,752,l),
(743,807,o),
(611,823,o),
(514,729,cs),
(435,653,o),
(432,548,o),
(432,456,c),
(372,456,l),
(361,400,l),
(432,400,l),
(432,0,l)
);
}
);
width = 629;
}
);
metricLeft = longs;
metricRight = longs;
},
{
color = 6;
glyphname = longs_longs_b.liga;
kernLeft = f;
kernRight = o;
lastChange = "2022-03-18 09:39:33 +0000";
layers = (
{
layerId = "6D97EE47-94AA-478E-ABFB-936E6C32B491";
shapes = (
{
closed = 1;
nodes = (
(188,0,l),
(188,489,ls),
(188,601,o),
(188,641,o),
(225,680,cs),
(282,741,o),
(410,733,o),
(476,618,c),
(517,711,l),
(419,801,o),
(285,812,o),
(189,720,cs),
(110,644,o),
(107,548,o),
(107,456,c),
(47,456,l),
(36,400,l),
(107,400,l),
(107,0,l)
);
},
{
closed = 1;
nodes = (
(107,0,l),
(107,46,l),
(80,33,o),
(45,30,o),
(28,30,c),
(28,0,l)
);
},
{
closed = 1;
nodes = (
(283,0,l),
(283,30,l),
(263,30,o),
(220,33,o),
(188,46,c),
(188,0,l)
);
},
{
closed = 1;
nodes = (
(432,0,l),
(432,46,l),
(405,33,o),
(370,30,o),
(353,30,c),
(353,0,l)
);
},
{
closed = 1;
nodes = (
(608,0,l),
(608,30,l),
(588,30,o),
(545,33,o),
(513,46,c),
(513,0,l)
);
},
{
closed = 1;
nodes = (
(513,0,l),
(513,489,ls),
(513,601,o),
(514,649,o),
(550,689,cs),
(607,752,o),
(713,733,o),
(763,654,c),
(799,742,l),
(728,813,o),
(609,821,o),
(514,729,cs),
(435,653,o),
(432,548,o),
(432,456,c),
(372,456,l),
(361,400,l),
(432,400,l),
(432,0,l)
);
},
{
closed = 1;
nodes = (
(838,23,l),
(838,783,l),
(818,797,l),
(757,768,l),
(757,23,l)
);
},
{
closed = 1;
nodes = (
(853,-29,o),
(968,-18,o),
(1046,37,cs),
(1136,100,o),
(1191,249,o),
(1130,371,cs),
(1077,477,o),
(929,499,o),
(827,383,c),
(827,342,l),
(893,412,o),
(1006,408,o),
(1054,325,cs),
(1093,257,o),
(1095,117,o),
(1017,67,cs),
(944,20,o),
(859,41,o),
(826,97,c),
(757,23,l)
);
}
);
width = 1180;
}
);
metricLeft = longs;
metricRight = b;
},
{
color = 6;
glyphname = longs_longs_h.liga;
kernLeft = f;
kernRight = n;
lastChange = "2022-03-18 09:39:33 +0000";
layers = (
{
layerId = "6D97EE47-94AA-478E-ABFB-936E6C32B491";
shapes = (
{
closed = 1;
nodes = (
(188,0,l),
(188,489,ls),
(188,601,o),
(188,641,o),
(225,680,cs),
(282,741,o),
(410,733,o),
(476,618,c),
(517,711,l),
(419,801,o),
(285,812,o),
(189,720,cs),
(110,644,o),
(107,548,o),
(107,456,c),
(47,456,l),
(36,400,l),
(107,400,l),
(107,0,l)
);
},
{
closed = 1;
nodes = (
(107,0,l),
(107,46,l),
(80,33,o),
(45,30,o),
(28,30,c),
(28,0,l)
);
},
{
closed = 1;
nodes = (
(283,0,l),
(283,30,l),
(263,30,o),
(220,33,o),
(188,46,c),
(188,0,l)
);
},
{
closed = 1;
nodes = (
(432,0,l),
(432,46,l),
(405,33,o),
(370,30,o),
(353,30,c),
(353,0,l)
);
},
{
closed = 1;
nodes = (
(608,0,l),
(608,30,l),
(588,30,o),
(545,33,o),
(513,46,c),
(513,0,l)
);
},
{
closed = 1;
nodes = (
(757,0,l),
(757,46,l),
(730,33,o),
(695,30,o),
(678,30,c),
(678,0,l)
);
},
{
closed = 1;
nodes = (
(917,0,l),
(917,30,l),
(900,30,o),
(865,33,o),
(838,46,c),
(838,0,l)
);
},
{
closed = 1;
nodes = (
(513,0,l),
(513,489,ls),
(513,601,o),
(514,649,o),
(550,689,cs),
(607,752,o),
(713,733,o),
(763,654,c),
(799,742,l),
(728,813,o),
(609,821,o),
(514,729,cs),
(435,653,o),
(432,548,o),
(432,456,c),
(372,456,l),
(361,400,l),
(432,400,l),
(432,0,l)
);
},
{
closed = 1;
nodes = (
(1057,0,l),
(1057,46,l),
(1030,33,o),
(995,30,o),
(978,30,c),
(978,0,l)
);
},
{
closed = 1;
nodes = (
(838,0,l),
(838,783,l),
(818,797,l),
(757,768,l),
(757,0,l)
);
},
{
closed = 1;
nodes = (
(1217,0,l),
(1217,30,l),
(1200,30,o),
(1165,33,o),
(1138,46,c),
(1138,0,l)
);
},
{
closed = 1;
nodes = (
(1138,0,l),
(1138,314,ls),
(1138,374,o),
(1124,418,o),
(1074,447,cs),
(1055,458,o),
(1033,464,o),
(1009,464,cs),
(937,464,o),
(849,391,o),
(811,364,c),
(827,332,l),
(856,354,o),
(913,402,o),
(961,402,cs),
(983,402,o),
(1003,398,o),
(1017,387,cs),
(1055,357,o),
(1057,327,o),
(1057,276,cs),
(1057,0,l)
);
}
);
width = 1239;
}
);
metricLeft = longs;
metricRight = h;
},
{
color = 6;
glyphname = longs_longs_i.liga;
kernLeft = f;
kernRight = i;
lastChange = "2022-03-18 09:39:33 +0000";
layers = (
{
anchors = (
{
name = BOTTOM_1;
pos = (798,0);
},
{
name = TOP_1;
pos = (797,456);
}
);
layerId = "6D97EE47-94AA-478E-ABFB-936E6C32B491";
shapes = (
{
closed = 1;
nodes = (
(188,0,l),
(188,489,ls),
(188,601,o),
(188,641,o),
(225,680,cs),
(282,741,o),
(410,733,o),
(476,618,c),
(517,711,l),
(419,801,o),
(285,812,o),
(189,720,cs),
(110,644,o),
(107,548,o),
(107,456,c),
(47,456,l),
(36,400,l),
(107,400,l),
(107,0,l)
);
},
{
closed = 1;
nodes = (
(107,0,l),
(107,46,l),
(80,33,o),
(45,30,o),
(28,30,c),
(28,0,l)
);
},
{
closed = 1;
nodes = (
(283,0,l),
(283,30,l),
(263,30,o),
(220,33,o),
(188,46,c),
(188,0,l)
);
},
{
closed = 1;
nodes = (
(432,0,l),
(432,46,l),
(405,33,o),
(370,30,o),
(353,30,c),
(353,0,l)
);
},
{
closed = 1;
nodes = (
(608,0,l),
(608,30,l),
(588,30,o),
(545,33,o),
(513,46,c),
(513,0,l)
);
},
{
closed = 1;
nodes = (
(513,0,l),
(513,489,ls),
(513,601,o),
(514,649,o),
(550,689,cs),
(618,764,o),
(728,726,o),
(759,640,c),
(809,652,o),
(833,698,o),
(817,732,cs),
(799,771,o),
(753,794,o),
(697,796,cs),
(632,798,o),
(574,787,o),
(514,729,cs),
(435,653,o),
(432,548,o),
(432,456,c),
(372,456,l),
(361,400,l),
(432,400,l),
(432,0,l)
);
},
{
closed = 1;
nodes = (
(917,0,l),
(917,30,l),
(900,30,o),
(865,33,o),
(838,46,c),
(838,456,l),
(818,470,l),
(686,415,l),
(695,389,l),
(714,392,o),
(739,392,o),
(757,385,c),
(757,46,l),
(730,33,o),
(695,30,o),
(678,30,c),
(678,0,l)
);
}
);
width = 939;
}
);
metricLeft = longs;
metricRight = i;
},
{
color = 6;
glyphname = longs_longs_j.liga;
kernLeft = f;
kernRight = j;
lastChange = "2022-03-18 09:39:33 +0000";
layers = (
{
anchors = (
{
name = TOP_1;
pos = (805,456);
}
);
layerId = "6D97EE47-94AA-478E-ABFB-936E6C32B491";
shapes = (
{
closed = 1;
nodes = (
(188,0,l),
(188,489,ls),
(188,601,o),
(188,641,o),
(225,680,cs),
(282,741,o),
(410,733,o),
(476,618,c),
(517,711,l),
(419,801,o),
(285,812,o),
(189,720,cs),
(110,644,o),
(107,548,o),
(107,456,c),
(47,456,l),
(36,400,l),
(107,400,l),
(107,0,l)
);
},
{
closed = 1;
nodes = (
(107,0,l),
(107,46,l),
(80,33,o),
(45,30,o),
(28,30,c),
(28,0,l)
);
},
{
closed = 1;
nodes = (
(283,0,l),
(283,30,l),
(263,30,o),
(220,33,o),
(188,46,c),
(188,0,l)
);
},
{
closed = 1;
nodes = (
(432,0,l),
(432,46,l),
(405,33,o),
(370,30,o),
(353,30,c),
(353,0,l)
);
},
{
closed = 1;
nodes = (
(608,0,l),
(608,30,l),
(588,30,o),
(545,33,o),
(513,46,c),
(513,0,l)
);
},
{
closed = 1;
nodes = (
(685,-270,o),
(808,-182,o),
(846,-20,c),
(846,456,l),
(826,470,l),
(694,415,l),
(703,389,l),
(722,392,o),
(747,392,o),
(765,385,c),
(765,13,ls),
(764,-16,o),
(762,-46,o),
(757,-69,cs),
(735,-159,o),
(680,-231,o),
(646,-262,c),
(663,-284,l)
);
},
{
closed = 1;
nodes = (
(513,0,l),
(513,489,ls),
(513,601,o),
(514,649,o),
(550,689,cs),
(618,764,o),
(728,726,o),
(759,640,c),
(809,652,o),
(833,698,o),
(817,732,cs),
(799,771,o),
(753,794,o),
(697,796,cs),
(632,798,o),
(574,787,o),
(514,729,cs),
(435,653,o),
(432,548,o),
(432,456,c),
(372,456,l),
(361,400,l),
(432,400,l),
(432,0,l)
);
}
);
width = 892;
}
);
metricLeft = longs;
metricRight = j;
},
{
color = 6;
glyphname = longs_longs_k.liga;
kernLeft = f;
kernRight = k;
lastChange = "2022-03-18 09:39:33 +0000";
layers = (
{
layerId = "6D97EE47-94AA-478E-ABFB-936E6C32B491";
shapes = (
{
closed = 1;
nodes = (
(188,0,l),
(188,489,ls),
(188,601,o),
(188,641,o),
(225,680,cs),
(282,741,o),
(410,733,o),
(476,618,c),
(517,711,l),
(419,801,o),
(285,812,o),
(189,720,cs),
(110,644,o),
(107,548,o),
(107,456,c),
(47,456,l),
(36,400,l),
(107,400,l),
(107,0,l)
);
},
{
closed = 1;
nodes = (
(107,0,l),
(107,46,l),
(80,33,o),
(45,30,o),
(28,30,c),
(28,0,l)
);
},
{
closed = 1;
nodes = (
(283,0,l),
(283,30,l),
(263,30,o),
(220,33,o),
(188,46,c),
(188,0,l)
);
},
{
closed = 1;
nodes = (
(432,0,l),
(432,46,l),
(405,33,o),
(370,30,o),
(353,30,c),
(353,0,l)
);
},
{
closed = 1;
nodes = (
(608,0,l),
(608,30,l),
(588,30,o),
(545,33,o),
(513,46,c),
(513,0,l)
);
},
{
closed = 1;
nodes = (
(757,0,l),
(757,46,l),
(730,33,o),
(695,30,o),
(678,30,c),
(678,0,l)
);
},
{
closed = 1;
nodes = (
(917,0,l),
(917,30,l),
(900,30,o),
(865,33,o),
(838,46,c),
(838,0,l)
);
},
{
closed = 1;
nodes = (
(513,0,l),
(513,489,ls),
(513,601,o),
(514,649,o),
(550,689,cs),
(607,752,o),
(713,733,o),
(763,654,c),
(799,742,l),
(728,813,o),
(609,821,o),
(514,729,cs),
(435,653,o),
(432,548,o),
(432,456,c),
(372,456,l),
(361,400,l),
(432,400,l),
(432,0,l)
);
},
{
closed = 1;
nodes = (
(838,0,l),
(838,783,l),
(818,797,l),
(757,768,l),
(757,0,l)
);
},
{
closed = 1;
nodes = (
(1184,-2,l),
(1131,17,o),
(1109,42,o),
(1074,81,cs),
(1033,127,o),
(967,214,o),
(935,258,c),
(1091,413,l),
(1115,423,o),
(1143,426,o),
(1157,426,c),
(1157,456,l),
(936,456,l),
(936,426,l),
(953,426,o),
(988,423,o),
(1015,410,c),
(1015,408,l),
(1016,408,l),
(852,246,l),
(874,216,o),
(972,67,o),
(1008,31,cs),
(1046,-7,o),
(1079,-28,o),
(1179,-31,c)
);
}
);
width = 1194;
}
);
metricLeft = longs;
metricRight = k;
},
{
color = 6;
glyphname = longs_longs_l.liga;
kernLeft = f;
kernRight = n;
lastChange = "2022-03-18 09:39:33 +0000";
layers = (
{
layerId = "6D97EE47-94AA-478E-ABFB-936E6C32B491";
shapes = (
{
closed = 1;
nodes = (
(188,0,l),
(188,489,ls),
(188,601,o),
(188,641,o),
(225,680,cs),
(282,741,o),
(410,733,o),
(476,618,c),
(517,711,l),
(419,801,o),
(285,812,o),
(189,720,cs),
(110,644,o),
(107,548,o),
(107,456,c),
(47,456,l),
(36,400,l),
(107,400,l),
(107,0,l)
);
},
{
closed = 1;
nodes = (
(107,0,l),
(107,46,l),
(80,33,o),
(45,30,o),
(28,30,c),
(28,0,l)
);
},
{
closed = 1;
nodes = (
(283,0,l),
(283,30,l),
(263,30,o),
(220,33,o),
(188,46,c),
(188,0,l)
);
},
{
closed = 1;
nodes = (
(432,0,l),
(432,46,l),
(405,33,o),
(370,30,o),
(353,30,c),
(353,0,l)
);
},
{
closed = 1;
nodes = (
(608,0,l),
(608,30,l),
(588,30,o),
(545,33,o),
(513,46,c),
(513,0,l)
);
},
{
closed = 1;
nodes = (
(757,0,l),
(757,46,l),
(730,33,o),
(695,30,o),
(678,30,c),
(678,0,l)
);
},
{
closed = 1;
nodes = (
(917,0,l),
(917,30,l),
(900,30,o),
(865,33,o),
(838,46,c),
(838,0,l)
);
},
{
closed = 1;
nodes = (
(513,0,l),
(513,489,ls),
(513,601,o),
(514,649,o),
(550,689,cs),
(607,752,o),
(713,733,o),
(763,654,c),
(799,742,l),
(728,813,o),
(609,821,o),
(514,729,cs),
(435,653,o),
(432,548,o),
(432,456,c),
(372,456,l),
(361,400,l),
(432,400,l),
(432,0,l)
);
},
{
closed = 1;
nodes = (
(838,0,l),
(838,783,l),
(818,797,l),
(757,768,l),
(757,0,l)
);
}
);
width = 939;
}
);
metricLeft = longs;
metricRight = l;
},
{
color = 6;
glyphname = longs_longs_t.liga;
kernLeft = f;
kernRight = t;
lastChange = "2022-03-18 09:39:33 +0000";
layers = (
{
anchors = (
{
name = BOTTOM_1;
pos = (852,0);
}
);
layerId = "6D97EE47-94AA-478E-ABFB-936E6C32B491";
shapes = (
{
closed = 1;
nodes = (
(513,0,l),
(513,489,ls),
(513,601,o),
(514,649,o),
(550,689,cs),
(607,752,o),
(713,733,o),
(763,654,c),
(838,716,l),
(732,821,o),
(609,821,o),
(514,729,cs),
(435,653,o),
(432,548,o),
(432,456,c),
(372,456,l),
(361,400,l),
(432,400,l),
(432,0,l)
);
},
{
closed = 1;
nodes = (
(107,0,l),
(107,46,l),
(80,33,o),
(45,30,o),
(28,30,c),
(28,0,l)
);
},
{
closed = 1;
nodes = (
(283,0,l),
(283,30,l),
(263,30,o),
(220,33,o),
(188,46,c),
(188,0,l)
);
},
{
closed = 1;
nodes = (
(432,0,l),
(432,46,l),
(405,33,o),
(370,30,o),
(353,30,c),
(353,0,l)
);
},
{
closed = 1;
nodes = (
(608,0,l),
(608,30,l),
(588,30,o),
(545,33,o),
(513,46,c),
(513,0,l)
);
},
{
closed = 1;
nodes = (
(188,0,l),
(188,489,ls),
(188,601,o),
(188,641,o),
(225,680,cs),
(282,741,o),
(410,733,o),
(476,618,c),
(517,711,l),
(419,801,o),
(285,812,o),
(189,720,cs),
(110,644,o),
(107,548,o),
(107,456,c),
(47,456,l),
(36,400,l),
(107,400,l),
(107,0,l)
);
},
{
closed = 1;
nodes = (
(896,-8,o),
(959,24,o),
(979,41,c),
(965,66,l),
(946,56,o),
(884,39,o),
(859,56,cs),
(840,68,o),
(838,85,o),
(838,127,cs),
(838,400,l),
(977,400,l),
(977,456,l),
(838,456,l),
(838,533,l),
(818,542,l),
(790,507,o),
(743,454,o),
(704,431,c),
(704,400,l),
(757,400,l),
(757,102,ls),
(757,34,o),
(788,-8,o),
(842,-8,cs)
);
},
{
closed = 1;
nodes = (
(838,533,l),
(838,716,l),
(757,693,l),
(757,452,l)
);
}
);
width = 993;
}
);
metricLeft = longs;
metricRight = t;
},
{
color = 6;
glyphname = longs_t.liga;
kernLeft = f;
kernRight = t;
lastChange = "2022-03-18 09:39:33 +0000";
layers = (
{
anchors = (
{
name = BOTTOM_1;
pos = (527,0);
}
);
layerId = "6D97EE47-94AA-478E-ABFB-936E6C32B491";
shapes = (
{
closed = 1;
nodes = (
(188,0,l),
(188,489,ls),
(188,601,o),
(189,649,o),
(225,689,cs),
(282,752,o),
(388,733,o),
(438,654,c),
(513,716,l),
(407,821,o),
(284,821,o),
(189,729,cs),
(110,653,o),
(107,548,o),
(107,456,c),
(47,456,l),
(36,400,l),
(107,400,l),
(107,0,l)
);
},
{
closed = 1;
nodes = (
(107,0,l),
(107,46,l),
(80,33,o),
(45,30,o),
(28,30,c),
(28,0,l)
);
},
{
closed = 1;
nodes = (
(283,0,l),
(283,30,l),
(263,30,o),
(220,33,o),
(188,46,c),
(188,0,l)
);
},
{
closed = 1;
nodes = (
(571,-8,o),
(634,24,o),
(654,41,c),
(640,66,l),
(621,56,o),
(559,39,o),
(534,56,cs),
(515,68,o),
(513,85,o),
(513,127,cs),
(513,400,l),
(652,400,l),
(652,456,l),
(513,456,l),
(513,533,l),
(493,542,l),
(465,507,o),
(418,454,o),
(379,431,c),
(379,400,l),
(432,400,l),
(432,102,ls),
(432,34,o),
(463,-8,o),
(517,-8,cs)
);
},
{
closed = 1;
nodes = (
(513,533,l),
(513,716,l),
(432,693,l),
(432,452,l)
);
}
);
width = 668;
}
);
metricLeft = longs;
metricRight = t;
},
{
color = 6;
glyphname = t_f.liga;
kernLeft = t;
kernRight = f;
lastChange = "2022-03-18 09:39:33 +0000";
layers = (
{
anchors = (
{
name = BOTTOM;
pos = (168,0);
}
);
layerId = "6D97EE47-94AA-478E-ABFB-936E6C32B491";
shapes = (
{
closed = 1;
nodes = (
(497,0,l),
(497,400,l),
(643,400,l),
(643,456,l),
(495,456,l),
(496,504,o),
(486,636,o),
(534,689,cs),
(583,744,o),
(664,738,o),
(713,684,c),
(783,752,l),
(727,807,o),
(595,823,o),
(498,729,cs),
(419,653,o),
(416,548,o),
(416,456,c),
(366,456,l),
(355,404,l),
(416,404,l),
(416,0,l)
);
},
{
closed = 1;
nodes = (
(416,0,l),
(416,46,l),
(389,33,o),
(354,30,o),
(337,30,c),
(337,0,l)
);
},
{
closed = 1;
nodes = (
(212,-8,o),
(275,24,o),
(295,41,c),
(281,66,l),
(262,56,o),
(200,39,o),
(175,56,cs),
(156,68,o),
(154,85,o),
(154,127,cs),
(154,404,l),
(293,404,l),
(293,456,l),
(154,456,l),
(154,533,l),
(134,542,l),
(106,507,o),
(59,454,o),
(20,431,c),
(20,400,l),
(73,400,l),
(73,102,ls),
(73,34,o),
(104,-8,o),
(158,-8,cs)
);
},
{
closed = 1;
nodes = (
(592,0,l),
(592,30,l),
(572,30,o),
(529,33,o),
(497,46,c),
(497,0,l)
);
},
{
closed = 1;
nodes = (
(355,404,l),
(366,456,l),
(293,456,l),
(293,404,l)
);
}
);
width = 673;
}
);
metricLeft = t;
metricRight = f;
},
{
color = 6;
glyphname = t_longs.liga;
kernLeft = t;
kernRight = longs;
lastChange = "2022-03-18 09:39:33 +0000";
layers = (
{
layerId = "6D97EE47-94AA-478E-ABFB-936E6C32B491";
shapes = (
{
closed = 1;
nodes = (
(212,-8,o),
(275,24,o),
(295,41,c),
(281,66,l),
(262,56,o),
(200,39,o),
(175,56,cs),
(156,68,o),
(154,85,o),
(154,127,cs),
(154,400,l),
(416,400,l),
(416,46,l),
(389,33,o),
(354,30,o),
(337,30,c),
(337,0,l),
(584,0,l),
(584,30,l),
(565,30,o),
(527,33,o),
(497,46,c),
(497,489,ls),
(497,601,o),
(498,649,o),
(534,689,cs),
(583,744,o),
(664,738,o),
(713,684,c),
(783,752,l),
(727,807,o),
(595,823,o),
(498,729,cs),
(419,653,o),
(416,548,o),
(416,456,c),
(154,456,l),
(154,533,l),
(134,542,l),
(106,507,o),
(59,454,o),
(20,431,c),
(20,400,l),
(73,400,l),
(73,102,ls),
(73,34,o),
(104,-8,o),
(158,-8,cs)
);
}
);
width = 613;
}
);
metricLeft = t;
metricRight = longs;
},
{
color = 6;
glyphname = t_t.sc.liga;
kernLeft = t.sc;
kernRight = t.sc;
lastChange = "2022-03-18 09:39:33 +0000";
layers = (
{
layerId = "6D97EE47-94AA-478E-ABFB-936E6C32B491";
shapes = (
{
closed = 1;
nodes = (
(680,0,l),
(680,509,l),
(599,509,l),
(599,0,l)
);
},
{
closed = 1;
nodes = (
(208,0,l),
(208,41,l),
(181,30,o),
(146,27,o),
(129,27,c),
(129,0,l)
);
},
{
closed = 1;
nodes = (
(368,0,l),
(368,27,l),
(351,27,o),
(316,30,o),
(289,41,c),
(289,0,l)
);
},
{
closed = 1;
nodes = (
(39,349,l),
(47,399,o),
(55,451,o),
(76,509,c),
(10,509,l),
(10,349,l)
);
},
{
closed = 1;
nodes = (
(289,0,l),
(289,509,l),
(208,509,l),
(208,0,l)
);
},
{
closed = 1;
nodes = (
(599,0,l),
(599,41,l),
(572,30,o),
(537,27,o),
(520,27,c),
(520,0,l)
);
},
{
closed = 1;
nodes = (
(759,0,l),
(759,27,l),
(742,27,o),
(707,30,o),
(680,41,c),
(680,0,l)
);
},
{
closed = 1;
nodes = (
(455,349,l),
(463,399,o),
(471,451,o),
(492,509,c),
(426,509,l),
(426,349,l)
);
},
{
closed = 1;
nodes = (
(850,463,l),
(850,509,l),
(38,509,l),
(38,463,l)
);
},
{
closed = 1;
nodes = (
(884,509,l),
(807,509,l),
(826,477,l),
(833,432,o),
(833,388,o),
(832,349,c),
(861,346,l)
);
}
);
width = 894;
}
);
metricLeft = t.sc;
metricRight = t.sc;
},
{
color = 6;
glyphname = ae.sc;
kernLeft = ae.sc;
kernRight = e.sc;
lastChange = "2022-03-18 09:39:33 +0000";
layers = (
{
anchors = (
{
name = TOP;
pos = (464,509);
}
);
layerId = "6D97EE47-94AA-478E-ABFB-936E6C32B491";
shapes = (
{
closed = 1;
nodes = (
(219,0,l),
(219,30,l),
(202,30,o),
(167,33,o),
(140,46,c),
(200,159,l),
(352,159,l),
(352,46,l),
(330,33,o),
(302,30,o),
(289,30,c),
(289,0,l),
(653,0,l),
(683,137,l),
(654,144,l),
(652,133,o),
(629,77,o),
(606,46,c),
(428,46,l),
(428,233,l),
(552,233,l),
(560,212,o),
(560,185,o),
(560,172,c),
(588,172,l),
(588,341,l),
(560,341,l),
(560,327,o),
(560,301,o),
(552,279,c),
(428,279,l),
(428,463,l),
(597,463,l),
(608,438,o),
(611,410,o),
(613,391,c),
(640,393,l),
(637,509,l),
(232,509,l),
(232,479,l),
(248,479,o),
(279,476,o),
(305,466,c),
(82,45,l),
(55,33,o),
(21,30,o),
(4,30,c),
(4,0,l)
);
},
{
closed = 1;
nodes = (
(352,445,l),
(352,205,l),
(225,205,l)
);
}
);
width = 708;
}
);
metricLeft = AE;
metricRight = AE;
},
{
color = 3;
glyphname = eth.sc;
kernLeft = h.sc;
kernRight = o.sc;
lastChange = "2022-03-18 09:39:33 +0000";
layers = (
{
layerId = "6D97EE47-94AA-478E-ABFB-936E6C32B491";
shapes = (
{
closed = 1;
nodes = (
(357,239,l),
(357,277,l),
(53,277,l),
(53,239,l)
);
},
{
ref = d.sc;
}
);
width = 655;
}
);
metricLeft = D;
metricRight = D;
},
{
color = 3;
glyphname = dcroat.sc;
kernLeft = h.sc;
kernRight = o.sc;
lastChange = "2022-03-18 09:39:33 +0000";
layers = (
{
layerId = "6D97EE47-94AA-478E-ABFB-936E6C32B491";
shapes = (
{
closed = 1;
nodes = (
(357,239,l),
(357,277,l),
(53,277,l),
(53,239,l)
);
},
{
ref = d.sc;
}
);
width = 655;
}
);
},
{
color = 6;
glyphname = schwa.sc;
kernLeft = schwa.sc;
kernRight = o.sc;
lastChange = "2022-03-18 09:39:33 +0000";
layers = (
{
layerId = "6D97EE47-94AA-478E-ABFB-936E6C32B491";
shapes = (
{
closed = 1;
nodes = (
(296,-8,o),
(350,-3,o),
(402,36,cs),
(458,78,o),
(507,135,o),
(507,258,cs),
(507,403,o),
(393,517,o),
(247,517,cs),
(145,517,o),
(82,456,o),
(65,432,c),
(96,402,l),
(117,425,o),
(170,467,o),
(231,467,cs),
(339,467,o),
(427,361,o),
(427,229,cs),
(427,109,o),
(366,38,o),
(263,38,cs),
(184,38,o),
(132,112,o),
(128,170,c),
(460,170,l),
(469,216,l),
(42,216,l),
(41,206,o),
(40,196,o),
(40,186,cs),
(40,81,o),
(137,-8,o),
(251,-8,cs)
);
}
);
width = 557;
}
);
metricLeft = Schwa;
metricRight = Schwa;
},
{
color = 3;
glyphname = hbar.sc;
kernLeft = h.sc;
kernRight = h.sc;
lastChange = "2022-03-18 09:39:33 +0000";
layers = (
{
layerId = "6D97EE47-94AA-478E-ABFB-936E6C32B491";
shapes = (
{
closed = 1;
nodes = (
(624,343,l),
(624,381,l),
(48,381,l),
(48,343,l)
);
},
{
pos = (-8,0);
ref = i.sc;
},
{
closed = 1;
nodes = (
(492,226,l),
(492,270,l),
(176,270,l),
(176,226,l)
);
},
{
pos = (337,0);
ref = i.sc;
}
);
width = 664;
}
);
metricLeft = Hbar;
metricRight = Hbar;
},
{
color = 3;
glyphname = lslash.sc;
kernLeft = h.sc;
kernRight = e.sc;
lastChange = "2022-03-18 09:39:33 +0000";
layers = (
{
layerId = "6D97EE47-94AA-478E-ABFB-936E6C32B491";
shapes = (
{
closed = 1;
nodes = (
(359,318,l),
(342,352,l),
(50,209,l),
(69,176,l)
);
},
{
pos = (3,0);
ref = l.sc;
}
);
width = 483;
}
);
metricLeft = L;
metricRight = L;
},
{
color = 6;
glyphname = nhookleft.sc;
kernLeft = nhookleft.sc;
kernRight = h.sc;
lastChange = "2022-03-18 09:39:33 +0000";
layers = (
{
layerId = "6D97EE47-94AA-478E-ABFB-936E6C32B491";
shapes = (
{
closed = 1;
nodes = (
(475,-8,l),
(475,509,l),
(427,509,l),
(427,98,l),
(448,105,l),
(144,509,l),
(77,509,l),
(77,0,l),
(125,0,l),
(125,429,l),
(108,422,l),
(432,-8,l)
);
},
{
closed = 1;
nodes = (
(13,-177,o),
(50,-172,o),
(77,-154,cs),
(111,-131,o),
(120,-93,o),
(123,-66,cs),
(126,-38,o),
(125,68,o),
(125,105,c),
(77,61,l),
(77,-38,o),
(78,-71,o),
(61,-87,cs),
(45,-102,o),
(3,-105,o),
(-34,-93,c),
(-29,-168,l)
);
},
{
closed = 1;
nodes = (
(77,509,l),
(-2,509,l),
(-2,482,l),
(15,482,o),
(50,479,o),
(77,468,c)
);
},
{
closed = 1;
nodes = (
(427,509,l),
(348,509,l),
(348,482,l),
(365,482,o),
(400,479,o),
(427,468,c)
);
},
{
closed = 1;
nodes = (
(502,479,o),
(537,482,o),
(554,482,c),
(554,509,l),
(475,509,l),
(475,468,l)
);
}
);
width = 594;
}
);
metricLeft = Nhookleft;
metricRight = Nhookleft;
},
{
color = 6;
glyphname = eng.sc;
kernLeft = h.sc;
kernRight = h.sc;
lastChange = "2022-03-18 09:39:33 +0000";
layers = (
{
layerId = "6D97EE47-94AA-478E-ABFB-936E6C32B491";
shapes = (
{
closed = 1;
nodes = (
(410,-177,o),
(442,-173,o),
(469,-154,cs),
(503,-131,o),
(510,-93,o),
(513,-66,cs),
(516,-38,o),
(517,68,o),
(517,105,cs),
(517,509,l),
(469,509,l),
(469,98,l),
(487,109,l),
(186,509,l),
(119,509,l),
(119,0,l),
(167,0,l),
(167,434,l),
(146,427,l),
(487,-25,l),
(467,61,l),
(472,-48,o),
(470,-71,o),
(454,-87,cs),
(438,-102,o),
(400,-105,o),
(363,-93,c),
(368,-168,l)
);
},
{
closed = 1;
nodes = (
(119,0,l),
(119,41,l),
(92,30,o),
(57,27,o),
(40,27,c),
(40,0,l)
);
},
{
closed = 1;
nodes = (
(245,0,l),
(245,27,l),
(228,27,o),
(193,30,o),
(166,41,c),
(166,0,l)
);
},
{
closed = 1;
nodes = (
(119,509,l),
(40,509,l),
(40,482,l),
(57,482,o),
(92,479,o),
(119,468,c)
);
},
{
closed = 1;
nodes = (
(469,509,l),
(390,509,l),
(390,482,l),
(407,482,o),
(442,479,o),
(469,468,c)
);
},
{
closed = 1;
nodes = (
(544,479,o),
(579,482,o),
(596,482,c),
(596,509,l),
(517,509,l),
(517,468,l)
);
}
);
width = 636;
}
);
metricLeft = Eng;
metricRight = Eng;
},
{
color = 3;
glyphname = oslash.sc;
kernLeft = o.sc;
kernRight = o.sc;
lastChange = "2022-03-18 09:39:33 +0000";
layers = (
{
layerId = "6D97EE47-94AA-478E-ABFB-936E6C32B491";
shapes = (
{
closed = 1;
nodes = (
(514,557,l),
(479,577,l),
(116,-51,l),
(151,-71,l)
);
},
{
ref = o.sc;
}
);
width = 632;
}
);
metricLeft = O;
metricRight = O;
},
{
color = 3;
glyphname = oslashacute.sc;
kernLeft = o.sc;
kernRight = o.sc;
lastChange = "2022-03-18 09:39:33 +0000";
layers = (
{
layerId = "6D97EE47-94AA-478E-ABFB-936E6C32B491";
shapes = (
{
closed = 1;
nodes = (
(514,557,l),
(479,577,l),
(116,-51,l),
(151,-71,l)
);
},
{
ref = o.sc;
},
{
pos = (238,0);
ref = acutecomb.sc;
}
);
width = 632;
}
);
},
{
color = 6;
glyphname = oe.sc;
kernLeft = o.sc;
kernRight = e.sc;
lastChange = "2022-03-18 09:39:33 +0000";
layers = (
{
layerId = "6D97EE47-94AA-478E-ABFB-936E6C32B491";
shapes = (
{
closed = 1;
nodes = (
(740,0,l),
(770,137,l),
(741,144,l),
(738,133,o),
(716,77,o),
(692,46,c),
(515,46,l),
(515,233,l),
(638,233,l),
(647,212,o),
(647,185,o),
(647,172,c),
(675,172,l),
(675,341,l),
(647,341,l),
(647,327,o),
(647,301,o),
(638,279,c),
(515,279,l),
(515,463,l),
(684,463,l),
(695,438,o),
(699,407,o),
(699,392,c),
(727,393,l),
(723,509,l),
(384,509,l),
(348,518,o),
(302,521,o),
(252,508,cs),
(106,469,o),
(21,323,o),
(59,184,cs),
(96,48,o),
(238,-36,o),
(380,0,c)
);
},
{
closed = 1;
nodes = (
(281,19,o),
(174,98,o),
(146,207,cs),
(113,336,o),
(167,440,o),
(265,465,cs),
(335,483,o),
(405,457,o),
(439,432,c),
(439,62,l),
(421,50,o),
(402,43,o),
(377,38,cs)
);
}
);
width = 795;
}
);
metricLeft = OE;
metricRight = OE;
},
{
color = 3;
glyphname = thorn.sc;
kernLeft = h.sc;
kernRight = thorn.sc;
lastChange = "2022-03-18 09:39:33 +0000";
layers = (
{
layerId = "6D97EE47-94AA-478E-ABFB-936E6C32B491";
shapes = (
{
closed = 1;
nodes = (
(360,115,o),
(431,181,o),
(419,267,cs),
(408,348,o),
(330,384,o),
(282,390,cs),
(256,393,o),
(230,392,o),
(201,390,c),
(198,355,l),
(283,372,o),
(339,319,o),
(348,258,cs),
(357,195,o),
(330,150,o),
(247,146,c),
(250,120,l)
);
},
{
alignment = -1;
ref = i.sc;
}
);
width = 470;
}
);
metricLeft = Thorn;
metricRight = Thorn;
},
{
color = 3;
glyphname = q.sc;
kernLeft = o.sc;
kernRight = o.sc;
lastChange = "2022-03-18 09:39:33 +0000";
layers = (
{
layerId = "6D97EE47-94AA-478E-ABFB-936E6C32B491";
shapes = (
{
closed = 1;
nodes = (
(606,-106,l),
(531,-102,o),
(449,-51,o),
(382,25,c),
(296,6,l),
(382,-89,o),
(473,-132,o),
(602,-138,c)
);
},
{
ref = o.sc;
}
);
width = 586;
}
);
metricLeft = Q;
metricRight = Q;
},
{
color = 6;
glyphname = germandbls.sc;
kernLeft = h.sc;
kernRight = b.sc;
lastChange = "2022-03-18 09:39:33 +0000";
layers = (
{
layerId = "6D97EE47-94AA-478E-ABFB-936E6C32B491";
shapes = (
{
closed = 1;
nodes = (
(473,-8,o),
(502,10,o),
(530,35,cs),
(560,65,o),
(577,105,o),
(571,152,cs),
(562,220,o),
(488,287,o),
(401,351,c),
(406,302,l),
(494,442,l),
(454,479,o),
(421,493,o),
(398,502,cs),
(375,511,o),
(342,517,o),
(312,517,cs),
(286,517,o),
(268,516,o),
(245,509,cs),
(218,501,o),
(191,486,o),
(171,467,cs),
(109,408,o),
(107,358,o),
(107,269,cs),
(107,41,l),
(80,30,o),
(45,27,o),
(28,27,c),
(28,0,l),
(258,0,l),
(258,27,l),
(243,27,o),
(212,30,o),
(188,41,c),
(188,297,ls),
(188,332,o),
(188,358,o),
(191,383,cs),
(194,409,o),
(200,427,o),
(217,445,cs),
(238,468,o),
(278,483,o),
(320,473,cs),
(365,461,o),
(395,433,o),
(440,372,c),
(438,430,l),
(349,283,l),
(397,246,o),
(421,225,o),
(456,193,cs),
(479,172,o),
(498,148,o),
(502,127,cs),
(507,102,o),
(504,72,o),
(486,54,cs),
(471,39,o),
(448,31,o),
(423,32,cs),
(401,33,o),
(376,46,o),
(357,70,cs),
(341,91,o),
(329,122,o),
(322,165,c),
(287,159,l),
(308,24,l),
(328,9,o),
(382,-8,o),
(414,-8,cs)
);
}
);
width = 597;
}
);
metricLeft = Germandbls;
metricRight = Germandbls;
},
{
color = 3;
glyphname = tbar.sc;
kernLeft = t.sc;
kernRight = t.sc;
lastChange = "2022-03-18 09:39:33 +0000";
layers = (
{
layerId = "6D97EE47-94AA-478E-ABFB-936E6C32B491";
shapes = (
{
closed = 1;
nodes = (
(384,214,l),
(384,252,l),
(118,252,l),
(118,214,l)
);
},
{
ref = t.sc;
}
);
width = 503;
}
);
metricLeft = T;
metricRight = T;
},
{
color = 6;
glyphname = x.sc;
kernLeft = x.sc;
kernRight = x.sc;
lastChange = "2022-03-18 09:39:33 +0000";
layers = (
{
layerId = "6D97EE47-94AA-478E-ABFB-936E6C32B491";
shapes = (
{
closed = 1;
nodes = (
(457,0,l),
(457,41,l),
(171,468,l),
(171,509,l),
(76,509,l),
(76,469,l),
(361,41,l),
(361,0,l)
);
},
{
closed = 1;
nodes = (
(71,0,l),
(71,41,l),
(48,30,o),
(19,27,o),
(4,27,c),
(4,0,l)
);
},
{
closed = 1;
nodes = (
(199,0,l),
(199,27,l),
(183,27,o),
(150,30,o),
(125,41,c),
(125,0,l)
);
},
{
closed = 1;
nodes = (
(126,0,l),
(126,41,l),
(279,262,l),
(223,262,l),
(70,41,l),
(70,0,l)
);
},
{
closed = 1;
nodes = (
(361,0,l),
(361,41,l),
(336,30,o),
(303,27,o),
(287,27,c),
(287,0,l)
);
},
{
closed = 1;
nodes = (
(523,0,l),
(523,27,l),
(508,27,o),
(479,30,o),
(456,41,c),
(456,0,l)
);
},
{
closed = 1;
nodes = (
(77,509,l),
(10,509,l),
(10,482,l),
(25,482,o),
(54,479,o),
(77,468,c)
);
},
{
closed = 1;
nodes = (
(196,479,o),
(228,482,o),
(243,482,c),
(243,509,l),
(171,509,l),
(171,468,l)
);
},
{
closed = 1;
nodes = (
(293,262,l),
(437,470,l),
(437,509,l),
(380,509,l),
(380,468,l),
(237,262,l)
);
},
{
closed = 1;
nodes = (
(380,509,l),
(308,509,l),
(308,482,l),
(323,482,o),
(355,479,o),
(380,468,c)
);
},
{
closed = 1;
nodes = (
(456,479,o),
(483,482,o),
(497,482,c),
(497,509,l),
(435,509,l),
(435,468,l)
);
}
);
width = 527;
}
);
metricLeft = X;
metricRight = X;
},
{
color = 6;
glyphname = k.sc.ss01;
kernLeft = h.sc;
kernRight = k.sc.ss01;
lastChange = "2022-03-18 09:39:33 +0000";
layers = (
{
anchors = (
{
name = BOTTOM;
pos = (311,0);
}
);
layerId = "6D97EE47-94AA-478E-ABFB-936E6C32B491";
shapes = (
{
closed = 1;
nodes = (
(687,-132,l),
(623,-112,o),
(608,-82,o),
(569,-40,cs),
(527,6,o),
(360,224,o),
(315,283,c),
(485,466,l),
(485,468,l),
(512,479,o),
(547,482,o),
(564,482,c),
(564,509,l),
(340,509,l),
(340,482,l),
(355,482,o),
(387,479,o),
(412,468,c),
(412,466,l),
(228,269,l),
(251,240,o),
(467,-57,o),
(503,-94,cs),
(543,-136,o),
(576,-163,o),
(680,-163,c)
);
},
{
closed = 1;
nodes = (
(293,0,l),
(293,27,l),
(275,27,o),
(238,30,o),
(210,41,c),
(210,468,l),
(237,479,o),
(272,482,o),
(289,482,c),
(289,509,l),
(50,509,l),
(50,482,l),
(67,482,o),
(102,479,o),
(129,468,c),
(129,41,l),
(102,30,o),
(67,27,o),
(50,27,c),
(50,0,l)
);
}
);
width = 579;
}
);
metricLeft = K.ss01;
},
{
color = 3;
glyphname = q.sc.ss01;
kernLeft = o.sc;
kernRight = q.sc.ss01;
lastChange = "2022-03-18 09:39:33 +0000";
layers = (
{
layerId = "6D97EE47-94AA-478E-ABFB-936E6C32B491";
shapes = (
{
closed = 1;
nodes = (
(815,-180,o),
(918,-158,o),
(1020,-88,c),
(1001,-63,l),
(941,-101,o),
(879,-118,o),
(787,-116,cs),
(685,-113,o),
(428,8,o),
(374,29,c),
(268,12,l),
(269,-6,l),
(329,-16,o),
(591,-148,o),
(691,-163,cs)
);
},
{
ref = o.sc;
}
);
width = 610;
}
);
},
{
color = 6;
glyphname = r.sc.ss01;
kernLeft = h.sc;
kernRight = r.sc.ss01;
lastChange = "2022-03-18 09:39:33 +0000";
layers = (
{
anchors = (
{
name = BOTTOM;
pos = (323,0);
},
{
name = TOP;
pos = (259,509);
}
);
layerId = "6D97EE47-94AA-478E-ABFB-936E6C32B491";
shapes = (
{
closed = 1;
nodes = (
(289,0,l),
(289,27,l),
(272,27,o),
(237,30,o),
(210,41,c),
(210,216,l),
(424,236,o),
(461,367,o),
(435,435,cs),
(413,491,o),
(350,517,o),
(267,517,cs),
(196,517,o),
(131,509,o),
(66,503,cs),
(50,502,l),
(52,474,l),
(69,475,o),
(102,475,o),
(129,467,c),
(129,41,l),
(102,30,o),
(67,27,o),
(50,27,c),
(50,0,l)
);
},
{
closed = 1;
nodes = (
(642,-133,l),
(577,-110,o),
(558,-85,o),
(522,-40,cs),
(481,14,o),
(332,243,o),
(317,272,c),
(250,254,l),
(245,242,l),
(265,211,o),
(421,-49,o),
(455,-88,cs),
(493,-133,o),
(530,-157,o),
(634,-163,c)
);
},
{
closed = 1;
nodes = (
(210,472,l),
(291,479,o),
(338,455,o),
(354,400,cs),
(375,327,o),
(314,256,o),
(210,250,c)
);
}
);
width = 534;
}
);
metricLeft = R.ss01;
},
{
color = 6;
glyphname = y.sc.ss01;
kernLeft = v.sc;
kernRight = v.sc;
lastChange = "2022-03-18 09:39:33 +0000";
layers = (
{
anchors = (
{
name = TOP;
pos = (220,509);
}
);
layerId = "6D97EE47-94AA-478E-ABFB-936E6C32B491";
shapes = (
{
closed = 1;
nodes = (
(340,0,l),
(340,27,l),
(323,27,o),
(288,30,o),
(261,41,c),
(261,173,ls),
(261,324,o),
(323,441,o),
(428,486,c),
(412,520,l),
(328,488,o),
(265,428,o),
(225,346,c),
(187,431,o),
(118,493,o),
(19,520,c),
(4,485,l),
(107,440,o),
(180,317,o),
(180,166,cs),
(180,41,l),
(153,30,o),
(118,27,o),
(101,27,c),
(101,0,l)
);
}
);
width = 432;
}
);
metricLeft = Y.ss01;
metricRight = Y.ss01;
},
{
color = 6;
glyphname = z.sc.ss01;
kernLeft = z.sc;
kernRight = z.sc;
lastChange = "2022-03-18 09:39:33 +0000";
layers = (
{
anchors = (
{
name = TOP;
pos = (203,509);
}
);
layerId = "6D97EE47-94AA-478E-ABFB-936E6C32B491";
shapes = (
{
closed = 1;
nodes = (
(382,0,l),
(418,154,l),
(390,162,l),
(388,152,o),
(371,108,o),
(350,72,c),
(109,72,l),
(380,474,l),
(364,509,l),
(35,509,l),
(29,358,l),
(56,356,l),
(61,382,o),
(65,410,o),
(71,439,c),
(296,439,l),
(25,35,l),
(39,0,l)
);
}
);
width = 443;
}
);
metricLeft = Z.ss01;
metricRight = Z.ss01;
},
{
color = 6;
glyphname = a.sc.ss10;
lastChange = "2022-03-18 09:39:33 +0000";
layers = (
{
layerId = "6D97EE47-94AA-478E-ABFB-936E6C32B491";
shapes = (
{
closed = 1;
nodes = (
(1032,-340,l),
(1032,839,l),
(100,839,l),
(100,-340,l)
);
},
{
closed = 1;
nodes = (
(120,819,l),
(1012,819,l),
(1012,-320,l),
(120,-320,l)
);
},
{
closed = 1;
nodes = (
(962,-270,l),
(962,769,l),
(170,769,l),
(170,-270,l)
);
},
{
closed = 1;
nodes = (
(290,27,l),
(305,27,o),
(336,30,o),
(361,41,c),
(537,476,l),
(526,505,l),
(596,530,l),
(773,41,l),
(797,30,o),
(827,27,o),
(842,27,c),
(842,0,l),
(616,0,l),
(616,27,l),
(633,27,o),
(668,30,o),
(695,41,c),
(652,159,l),
(464,159,l),
(416,41,l),
(443,30,o),
(478,27,o),
(495,27,c),
(495,0,l),
(290,0,l)
);
},
{
closed = 1;
nodes = (
(635,205,l),
(563,404,l),
(482,205,l)
);
}
);
width = 1132;
}
);
},
{
color = 6;
glyphname = b.sc.ss10;
lastChange = "2022-03-18 09:39:33 +0000";
layers = (
{
layerId = "6D97EE47-94AA-478E-ABFB-936E6C32B491";
shapes = (
{
closed = 1;
nodes = (
(910,-340,l),
(910,839,l),
(100,839,l),
(100,-340,l)
);
},
{
closed = 1;
nodes = (
(624,65,o),
(645,110,o),
(632,161,cs),
(624,196,o),
(597,225,o),
(559,238,cs),
(526,251,o),
(485,253,o),
(450,252,c),
(450,56,l),
(472,41,o),
(538,38,o),
(576,50,cs)
);
},
{
closed = 1;
nodes = (
(120,819,l),
(890,819,l),
(890,-320,l),
(120,-320,l)
);
},
{
closed = 1;
nodes = (
(840,-270,l),
(840,769,l),
(170,769,l),
(170,-270,l)
);
},
{
closed = 1;
nodes = (
(290,27,l),
(307,27,o),
(342,30,o),
(369,41,c),
(369,469,l),
(342,477,o),
(308,477,o),
(292,475,c),
(290,502,l),
(313,504,ls),
(377,510,o),
(447,517,o),
(522,517,cs),
(590,517,o),
(641,491,o),
(662,443,cs),
(687,389,o),
(661,323,o),
(611,291,c),
(647,275,o),
(701,239,o),
(716,180,cs),
(736,101,o),
(675,0,o),
(539,0,cs),
(290,0,l)
);
},
{
closed = 1;
nodes = (
(478,288,o),
(533,292,o),
(560,310,cs),
(591,330,o),
(603,374,o),
(588,413,cs),
(568,460,o),
(526,481,o),
(450,473,c),
(450,290,l)
);
}
);
width = 1010;
}
);
},
{
color = 6;
glyphname = c.sc.ss10;
lastChange = "2022-03-18 09:39:33 +0000";
layers = (
{
layerId = "6D97EE47-94AA-478E-ABFB-936E6C32B491";
shapes = (
{
closed = 1;
nodes = (
(964,-340,l),
(964,839,l),
(100,839,l),
(100,-340,l)
);
},
{
closed = 1;
nodes = (
(508,-45,o),
(344,20,o),
(299,184,cs),
(261,323,o),
(346,469,o),
(492,508,cs),
(582,532,o),
(683,503,o),
(726,491,c),
(743,379,l),
(713,373,l),
(689,450,o),
(600,489,o),
(505,465,cs),
(407,440,o),
(353,336,o),
(386,207,cs),
(414,98,o),
(521,19,o),
(617,38,cs),
(674,49,o),
(706,73,o),
(747,139,c),
(774,124,l),
(714,11,l)
);
},
{
closed = 1;
nodes = (
(120,819,l),
(944,819,l),
(944,-320,l),
(120,-320,l)
);
},
{
closed = 1;
nodes = (
(894,-270,l),
(894,769,l),
(170,769,l),
(170,-270,l)
);
}
);
width = 1064;
}
);
},
{
color = 6;
glyphname = d.sc.ss10;
lastChange = "2022-03-18 09:39:33 +0000";
layers = (
{
layerId = "6D97EE47-94AA-478E-ABFB-936E6C32B491";
shapes = (
{
closed = 1;
nodes = (
(1035,-340,l),
(1035,839,l),
(100,839,l),
(100,-340,l)
);
},
{
closed = 1;
nodes = (
(120,819,l),
(1015,819,l),
(1015,-320,l),
(120,-320,l)
);
},
{
closed = 1;
nodes = (
(965,-270,l),
(965,769,l),
(170,769,l),
(170,-270,l)
);
},
{
closed = 1;
nodes = (
(290,27,l),
(307,27,o),
(342,30,o),
(369,41,c),
(369,467,l),
(342,475,o),
(308,475,o),
(292,473,c),
(290,500,l),
(302,501,ls),
(369,507,o),
(447,517,o),
(518,517,cs),
(565,517,o),
(612,513,o),
(658,499,cs),
(746,472,o),
(812,410,o),
(836,325,cs),
(842,304,o),
(845,283,o),
(845,264,cs),
(845,151,o),
(761,46,o),
(635,13,cs),
(608,5,o),
(555,0,o),
(506,0,cs),
(290,0,l)
);
},
{
closed = 1;
nodes = (
(574,42,o),
(598,45,o),
(622,51,cs),
(707,74,o),
(755,156,o),
(755,245,cs),
(755,264,o),
(752,282,o),
(747,302,cs),
(721,405,o),
(630,474,o),
(503,474,cs),
(485,474,o),
(468,473,o),
(450,471,c),
(450,61,l),
(481,49,o),
(516,42,o),
(551,42,cs)
);
}
);
width = 1135;
}
);
},
{
color = 6;
glyphname = e.sc.ss10;
lastChange = "2022-03-18 09:39:33 +0000";
layers = (
{
layerId = "6D97EE47-94AA-478E-ABFB-936E6C32B491";
shapes = (
{
closed = 1;
nodes = (
(895,-340,l),
(895,839,l),
(100,839,l),
(100,-340,l)
);
},
{
closed = 1;
nodes = (
(120,819,l),
(875,819,l),
(875,-320,l),
(120,-320,l)
);
},
{
closed = 1;
nodes = (
(825,-270,l),
(825,769,l),
(170,769,l),
(170,-270,l)
);
},
{
closed = 1;
nodes = (
(290,27,l),
(307,27,o),
(342,30,o),
(369,41,c),
(369,468,l),
(342,479,o),
(307,482,o),
(290,482,c),
(290,509,l),
(658,509,l),
(662,393,l),
(634,391,l),
(632,410,o),
(630,438,o),
(619,463,c),
(450,463,l),
(450,279,l),
(573,279,l),
(582,301,o),
(582,327,o),
(582,341,c),
(610,341,l),
(610,172,l),
(582,172,l),
(582,185,o),
(582,212,o),
(573,233,c),
(450,233,l),
(450,46,l),
(628,46,l),
(652,77,o),
(674,133,o),
(677,144,c),
(705,137,l),
(675,0,l),
(290,0,l)
);
}
);
width = 995;
}
);
},
{
color = 6;
glyphname = f.sc.ss10;
lastChange = "2022-03-18 09:39:33 +0000";
layers = (
{
layerId = "6D97EE47-94AA-478E-ABFB-936E6C32B491";
shapes = (
{
closed = 1;
nodes = (
(852,-340,l),
(852,839,l),
(100,839,l),
(100,-340,l)
);
},
{
closed = 1;
nodes = (
(120,819,l),
(832,819,l),
(832,-320,l),
(120,-320,l)
);
},
{
closed = 1;
nodes = (
(782,-270,l),
(782,769,l),
(170,769,l),
(170,-270,l)
);
},
{
closed = 1;
nodes = (
(290,27,l),
(307,27,o),
(342,30,o),
(369,41,c),
(369,468,l),
(342,479,o),
(307,482,o),
(290,482,c),
(290,509,l),
(658,509,l),
(662,393,l),
(634,391,l),
(632,410,o),
(630,438,o),
(619,463,c),
(450,463,l),
(450,267,l),
(568,267,l),
(577,289,o),
(577,315,o),
(577,329,c),
(604,329,l),
(604,160,l),
(577,160,l),
(577,173,o),
(577,199,o),
(568,221,c),
(450,221,l),
(450,41,l),
(480,30,o),
(519,27,o),
(538,27,c),
(538,0,l),
(290,0,l)
);
}
);
width = 952;
}
);
},
{
color = 6;
glyphname = g.sc.ss10;
lastChange = "2022-03-18 09:39:33 +0000";
layers = (
{
layerId = "6D97EE47-94AA-478E-ABFB-936E6C32B491";
shapes = (
{
closed = 1;
nodes = (
(1003,-340,l),
(1003,839,l),
(100,839,l),
(100,-340,l)
);
},
{
closed = 1;
nodes = (
(426,1,o),
(328,73,o),
(299,185,cs),
(261,324,o),
(350,469,o),
(492,507,cs),
(581,531,o),
(700,504,o),
(741,491,c),
(758,379,l),
(727,373,l),
(702,451,o),
(604,491,o),
(505,465,cs),
(408,439,o),
(356,323,o),
(386,207,cs),
(414,102,o),
(529,-17,o),
(683,56,c),
(683,164,l),
(660,175,o),
(629,178,o),
(614,178,c),
(614,205,l),
(813,205,l),
(813,178,l),
(801,178,o),
(778,175,o),
(760,164,c),
(760,59,l),
(763,55,o),
(775,48,o),
(783,46,c),
(783,13,l),
(716,12,o),
(646,-13,o),
(554,-7,cs)
);
},
{
closed = 1;
nodes = (
(120,819,l),
(983,819,l),
(983,-320,l),
(120,-320,l)
);
},
{
closed = 1;
nodes = (
(933,-270,l),
(933,769,l),
(170,769,l),
(170,-270,l)
);
}
);
width = 1103;
}
);
},
{
color = 6;
glyphname = h.sc.ss10;
lastChange = "2022-03-18 09:39:33 +0000";
layers = (
{
layerId = "6D97EE47-94AA-478E-ABFB-936E6C32B491";
shapes = (
{
closed = 1;
nodes = (
(1064,-340,l),
(1064,839,l),
(100,839,l),
(100,-340,l)
);
},
{
closed = 1;
nodes = (
(120,819,l),
(1044,819,l),
(1044,-320,l),
(120,-320,l)
);
},
{
closed = 1;
nodes = (
(994,-270,l),
(994,769,l),
(170,769,l),
(170,-270,l)
);
},
{
closed = 1;
nodes = (
(290,27,l),
(307,27,o),
(342,30,o),
(369,41,c),
(369,468,l),
(342,479,o),
(307,482,o),
(290,482,c),
(290,509,l),
(529,509,l),
(529,482,l),
(512,482,o),
(477,479,o),
(450,468,c),
(450,281,l),
(714,281,l),
(714,468,l),
(687,479,o),
(652,482,o),
(635,482,c),
(635,509,l),
(874,509,l),
(874,482,l),
(857,482,o),
(822,479,o),
(795,468,c),
(795,41,l),
(822,30,o),
(857,27,o),
(874,27,c),
(874,0,l),
(635,0,l),
(635,27,l),
(652,27,o),
(687,30,o),
(714,41,c),
(714,235,l),
(450,235,l),
(450,41,l),
(477,30,o),
(512,27,o),
(529,27,c),
(529,0,l),
(290,0,l)
);
}
);
width = 1164;
}
);
},
{
color = 6;
glyphname = i.sc.ss10;
lastChange = "2022-03-18 09:39:33 +0000";
layers = (
{
anchors = (
{
name = BOTTOM;
pos = (410,0);
},
{
name = TOP;
pos = (410,509);
}
);
layerId = "6D97EE47-94AA-478E-ABFB-936E6C32B491";
shapes = (
{
closed = 1;
nodes = (
(719,-340,l),
(719,839,l),
(100,839,l),
(100,-340,l)
);
},
{
closed = 1;
nodes = (
(120,819,l),
(699,819,l),
(699,-320,l),
(120,-320,l)
);
},
{
closed = 1;
nodes = (
(649,-270,l),
(649,769,l),
(170,769,l),
(170,-270,l)
);
},
{
closed = 1;
nodes = (
(290,27,l),
(307,27,o),
(342,30,o),
(369,41,c),
(369,468,l),
(342,479,o),
(307,482,o),
(290,482,c),
(290,509,l),
(529,509,l),
(529,482,l),
(512,482,o),
(477,479,o),
(450,468,c),
(450,41,l),
(477,30,o),
(512,27,o),
(529,27,c),
(529,0,l),
(290,0,l)
);
}
);
width = 819;
}
);
},
{
color = 6;
glyphname = j.sc.ss10;
lastChange = "2022-03-18 09:39:33 +0000";
layers = (
{
layerId = "6D97EE47-94AA-478E-ABFB-936E6C32B491";
shapes = (
{
closed = 1;
nodes = (
(737,-340,l),
(737,839,l),
(100,839,l),
(100,-340,l)
);
},
{
closed = 1;
nodes = (
(303,-145,l),
(346,-97,o),
(380,-19,o),
(386,69,cs),
(387,83,l),
(387,468,l),
(360,479,o),
(325,482,o),
(308,482,c),
(308,509,l),
(547,509,l),
(547,482,l),
(530,482,o),
(495,479,o),
(468,468,c),
(468,80,l),
(443,-62,o),
(339,-157,o),
(323,-167,c)
);
},
{
closed = 1;
nodes = (
(120,819,l),
(717,819,l),
(717,-320,l),
(120,-320,l)
);
},
{
closed = 1;
nodes = (
(667,-270,l),
(667,769,l),
(170,769,l),
(170,-270,l)
);
}
);
width = 837;
}
);
},
{
color = 6;
glyphname = k.sc.ss10;
lastChange = "2022-03-18 09:39:33 +0000";
layers = (
{
layerId = "6D97EE47-94AA-478E-ABFB-936E6C32B491";
shapes = (
{
closed = 1;
nodes = (
(1007,-340,l),
(1007,839,l),
(100,839,l),
(100,-340,l)
);
},
{
closed = 1;
nodes = (
(290,27,l),
(307,27,o),
(342,30,o),
(369,41,c),
(369,468,l),
(342,479,o),
(307,482,o),
(290,482,c),
(290,509,l),
(529,509,l),
(529,482,l),
(512,482,o),
(477,479,o),
(450,468,c),
(450,41,l),
(478,30,o),
(515,27,o),
(533,27,c),
(533,0,l),
(290,0,l)
);
},
{
closed = 1;
nodes = (
(120,819,l),
(987,819,l),
(987,-320,l),
(120,-320,l)
);
},
{
closed = 1;
nodes = (
(937,-270,l),
(937,769,l),
(170,769,l),
(170,-270,l)
);
},
{
closed = 1;
nodes = (
(706,-28,o),
(673,1,o),
(633,42,cs),
(596,80,o),
(490,240,o),
(468,269,c),
(653,468,l),
(628,479,o),
(596,482,o),
(581,482,c),
(581,509,l),
(795,509,l),
(795,482,l),
(778,482,o),
(744,479,o),
(717,468,c),
(550,288,l),
(578,249,o),
(654,142,o),
(697,92,cs),
(735,47,o),
(750,22,o),
(817,0,c),
(812,-27,l)
);
}
);
width = 1107;
}
);
},
{
color = 6;
glyphname = l.sc.ss10;
lastChange = "2022-03-18 09:39:33 +0000";
layers = (
{
layerId = "6D97EE47-94AA-478E-ABFB-936E6C32B491";
shapes = (
{
closed = 1;
nodes = (
(906,-340,l),
(906,839,l),
(100,839,l),
(100,-340,l)
);
},
{
closed = 1;
nodes = (
(120,819,l),
(886,819,l),
(886,-320,l),
(120,-320,l)
);
},
{
closed = 1;
nodes = (
(836,-270,l),
(836,769,l),
(170,769,l),
(170,-270,l)
);
},
{
closed = 1;
nodes = (
(290,27,l),
(307,27,o),
(342,30,o),
(369,41,c),
(369,468,l),
(342,479,o),
(307,482,o),
(290,482,c),
(290,509,l),
(529,509,l),
(529,482,l),
(512,482,o),
(477,479,o),
(450,468,c),
(450,46,l),
(636,46,l),
(656,71,o),
(682,122,o),
(689,139,c),
(716,130,l),
(675,0,l),
(290,0,l)
);
}
);
width = 1006;
}
);
},
{
color = 6;
glyphname = m.sc.ss10;
lastChange = "2022-03-18 09:39:33 +0000";
layers = (
{
layerId = "6D97EE47-94AA-478E-ABFB-936E6C32B491";
shapes = (
{
closed = 1;
nodes = (
(1157,-340,l),
(1157,839,l),
(100,839,l),
(100,-340,l)
);
},
{
closed = 1;
nodes = (
(120,819,l),
(1137,819,l),
(1137,-320,l),
(120,-320,l)
);
},
{
closed = 1;
nodes = (
(1087,-270,l),
(1087,769,l),
(170,769,l),
(170,-270,l)
);
},
{
closed = 1;
nodes = (
(290,27,l),
(307,27,o),
(342,30,o),
(369,41,c),
(391,468,l),
(364,479,o),
(329,482,o),
(312,482,c),
(312,509,l),
(482,509,l),
(627,151,l),
(811,509,l),
(951,509,l),
(951,482,l),
(934,482,o),
(899,479,o),
(872,468,c),
(888,41,l),
(915,30,o),
(950,27,o),
(967,27,c),
(967,0,l),
(728,0,l),
(728,27,l),
(745,27,o),
(780,30,o),
(807,41,c),
(794,374,l),
(601,0,l),
(436,406,l),
(417,41,l),
(444,30,o),
(479,27,o),
(496,27,c),
(496,0,l),
(290,0,l)
);
}
);
width = 1257;
}
);
},
{
color = 6;
glyphname = n.sc.ss10;
lastChange = "2022-03-18 09:39:33 +0000";
layers = (
{
layerId = "6D97EE47-94AA-478E-ABFB-936E6C32B491";
shapes = (
{
closed = 1;
nodes = (
(1036,-340,l),
(1036,839,l),
(100,839,l),
(100,-340,l)
);
},
{
closed = 1;
nodes = (
(120,819,l),
(1016,819,l),
(1016,-320,l),
(120,-320,l)
);
},
{
closed = 1;
nodes = (
(966,-270,l),
(966,769,l),
(170,769,l),
(170,-270,l)
);
},
{
closed = 1;
nodes = (
(417,399,l),
(417,41,l),
(444,30,o),
(479,27,o),
(496,27,c),
(496,0,l),
(290,0,l),
(290,27,l),
(307,27,o),
(342,30,o),
(369,41,c),
(369,468,l),
(342,479,o),
(307,482,o),
(290,482,c),
(290,509,l),
(436,509,l),
(719,133,l),
(719,468,l),
(692,479,o),
(657,482,o),
(640,482,c),
(640,509,l),
(846,509,l),
(846,482,l),
(829,482,o),
(794,479,o),
(767,468,c),
(767,-8,l),
(724,-8,l)
);
}
);
width = 1136;
}
);
},
{
color = 6;
glyphname = o.sc.ss10;
lastChange = "2022-03-18 09:39:33 +0000";
layers = (
{
anchors = (
{
name = BOTTOM;
pos = (568,0);
},
{
name = TOP;
pos = (558,509);
}
);
layerId = "6D97EE47-94AA-478E-ABFB-936E6C32B491";
shapes = (
{
closed = 1;
nodes = (
(1012,-340,l),
(1012,839,l),
(100,839,l),
(100,-340,l)
);
},
{
closed = 1;
nodes = (
(120,819,l),
(992,819,l),
(992,-320,l),
(120,-320,l)
);
},
{
closed = 1;
nodes = (
(942,-270,l),
(942,769,l),
(170,769,l),
(170,-270,l)
);
},
{
closed = 1;
nodes = (
(449,-8,o),
(349,52,o),
(309,154,cs),
(296,186,o),
(290,218,o),
(290,251,cs),
(290,356,o),
(355,457,o),
(458,498,cs),
(490,511,o),
(524,517,o),
(557,517,cs),
(661,517,o),
(762,457,o),
(803,355,cs),
(816,324,o),
(822,291,o),
(822,259,cs),
(822,154,o),
(757,53,o),
(654,11,cs),
(621,-2,o),
(587,-8,o),
(554,-8,cs)
);
},
{
closed = 1;
nodes = (
(602,38,o),
(619,42,o),
(637,49,cs),
(698,74,o),
(735,143,o),
(735,223,cs),
(735,255,o),
(728,289,o),
(716,322,cs),
(680,413,o),
(601,471,o),
(527,471,cs),
(509,471,o),
(492,468,o),
(475,461,cs),
(413,435,o),
(376,366,o),
(376,287,cs),
(376,255,o),
(383,221,o),
(395,188,cs),
(430,96,o),
(508,38,o),
(583,38,cs)
);
}
);
width = 1112;
}
);
},
{
color = 6;
glyphname = p.sc.ss10;
lastChange = "2022-03-18 09:39:33 +0000";
layers = (
{
layerId = "6D97EE47-94AA-478E-ABFB-936E6C32B491";
shapes = (
{
closed = 1;
nodes = (
(895,-340,l),
(895,839,l),
(100,839,l),
(100,-340,l)
);
},
{
closed = 1;
nodes = (
(120,819,l),
(875,819,l),
(875,-320,l),
(120,-320,l)
);
},
{
closed = 1;
nodes = (
(825,-270,l),
(825,769,l),
(170,769,l),
(170,-270,l)
);
},
{
closed = 1;
nodes = (
(290,27,l),
(307,27,o),
(342,30,o),
(369,41,c),
(369,469,l),
(342,477,o),
(308,477,o),
(292,475,c),
(290,502,l),
(312,504,ls),
(376,510,o),
(445,517,o),
(505,517,cs),
(592,517,o),
(692,459,o),
(704,366,cs),
(718,259,o),
(635,178,o),
(502,186,c),
(498,218,l),
(599,223,o),
(630,278,o),
(617,354,cs),
(605,427,o),
(543,488,o),
(450,473,c),
(450,41,l),
(480,30,o),
(519,27,o),
(538,27,c),
(538,0,l),
(290,0,l)
);
}
);
width = 995;
}
);
},
{
color = 6;
glyphname = q.sc.ss10;
lastChange = "2022-03-18 09:39:33 +0000";
layers = (
{
layerId = "6D97EE47-94AA-478E-ABFB-936E6C32B491";
shapes = (
{
closed = 1;
nodes = (
(1036,-340,l),
(1036,839,l),
(100,839,l),
(100,-340,l)
);
},
{
closed = 1;
nodes = (
(719,-132,o),
(631,-93,o),
(549,-8,c),
(446,-6,o),
(349,55,o),
(309,154,cs),
(296,186,o),
(290,218,o),
(290,251,cs),
(290,356,o),
(355,456,o),
(458,498,cs),
(490,511,o),
(524,517,o),
(557,517,cs),
(661,517,o),
(761,456,o),
(803,355,cs),
(816,324,o),
(822,291,o),
(822,259,cs),
(822,154,o),
(757,52,o),
(654,11,cs),
(649,9,o),
(645,7,o),
(640,6,c),
(703,-59,o),
(777,-102,o),
(846,-106,c),
(842,-138,l)
);
},
{
closed = 1;
nodes = (
(602,38,o),
(619,42,o),
(637,49,cs),
(698,73,o),
(735,143,o),
(735,223,cs),
(735,255,o),
(728,289,o),
(716,322,cs),
(683,414,o),
(601,471,o),
(527,471,cs),
(509,471,o),
(492,468,o),
(475,461,cs),
(413,435,o),
(376,366,o),
(376,287,cs),
(376,255,o),
(383,221,o),
(395,188,cs),
(429,95,o),
(508,38,o),
(583,38,cs)
);
},
{
closed = 1;
nodes = (
(120,819,l),
(1016,819,l),
(1016,-320,l),
(120,-320,l)
);
},
{
closed = 1;
nodes = (
(966,-270,l),
(966,769,l),
(170,769,l),
(170,-270,l)
);
}
);
width = 1136;
}
);
},
{
color = 6;
glyphname = r.sc.ss10;
lastChange = "2022-03-18 09:39:33 +0000";
layers = (
{
layerId = "6D97EE47-94AA-478E-ABFB-936E6C32B491";
shapes = (
{
closed = 1;
nodes = (
(986,-340,l),
(986,839,l),
(100,839,l),
(100,-340,l)
);
},
{
closed = 1;
nodes = (
(120,819,l),
(966,819,l),
(966,-320,l),
(120,-320,l)
);
},
{
closed = 1;
nodes = (
(916,-270,l),
(916,769,l),
(170,769,l),
(170,-270,l)
);
},
{
closed = 1;
nodes = (
(684,-15,o),
(647,9,o),
(608,54,cs),
(580,86,o),
(532,175,o),
(504,224,c),
(487,221,o),
(469,218,o),
(450,216,c),
(450,41,l),
(478,30,o),
(515,27,o),
(533,27,c),
(533,0,l),
(290,0,l),
(290,27,l),
(307,27,o),
(342,30,o),
(369,41,c),
(369,469,l),
(342,477,o),
(308,477,o),
(292,475,c),
(290,502,l),
(306,503,ls),
(371,509,o),
(436,517,o),
(507,517,cs),
(590,517,o),
(653,491,o),
(675,435,cs),
(695,383,o),
(678,295,o),
(575,247,c),
(602,202,o),
(640,142,o),
(673,100,cs),
(711,51,o),
(736,34,o),
(796,10,c),
(788,-20,l)
);
},
{
closed = 1;
nodes = (
(554,256,o),
(615,327,o),
(594,400,cs),
(578,455,o),
(531,479,o),
(450,472,c),
(450,250,l)
);
}
);
width = 1086;
}
);
},
{
color = 6;
glyphname = s.sc.ss10;
lastChange = "2022-03-18 09:39:33 +0000";
layers = (
{
layerId = "6D97EE47-94AA-478E-ABFB-936E6C32B491";
shapes = (
{
closed = 1;
nodes = (
(814,-340,l),
(814,839,l),
(100,839,l),
(100,-340,l)
);
},
{
closed = 1;
nodes = (
(120,819,l),
(794,819,l),
(794,-320,l),
(120,-320,l)
);
},
{
closed = 1;
nodes = (
(744,-270,l),
(744,769,l),
(170,769,l),
(170,-270,l)
);
},
{
closed = 1;
nodes = (
(390,-8,o),
(319,14,o),
(314,21,c),
(290,166,l),
(323,173,l),
(331,136,o),
(347,101,o),
(363,81,cs),
(384,54,o),
(412,39,o),
(451,39,cs),
(457,39,o),
(463,39,o),
(468,40,cs),
(514,45,o),
(544,78,o),
(540,124,cs),
(537,160,o),
(499,190,o),
(457,219,cs),
(412,250,o),
(325,302,o),
(325,382,cs),
(325,452,o),
(368,497,o),
(450,513,cs),
(465,516,o),
(480,517,o),
(494,517,cs),
(544,517,o),
(585,504,o),
(599,503,c),
(615,376,l),
(584,372,l),
(579,412,o),
(560,437,o),
(540,451,cs),
(525,462,o),
(503,469,o),
(481,469,cs),
(433,469,o),
(406,435,o),
(406,400,cs),
(406,389,o),
(408,377,o),
(414,366,cs),
(430,336,o),
(486,303,o),
(522,280,cs),
(585,240,o),
(624,193,o),
(624,127,cs),
(624,70,o),
(595,29,o),
(535,4,cs),
(513,-5,o),
(486,-8,o),
(459,-8,cs)
);
}
);
width = 914;
}
);
},
{
color = 6;
glyphname = t.sc.ss10;
lastChange = "2022-03-18 09:39:33 +0000";
layers = (
{
layerId = "6D97EE47-94AA-478E-ABFB-936E6C32B491";
shapes = (
{
closed = 1;
nodes = (
(963,-340,l),
(963,839,l),
(100,839,l),
(100,-340,l)
);
},
{
closed = 1;
nodes = (
(120,819,l),
(943,819,l),
(943,-320,l),
(120,-320,l)
);
},
{
closed = 1;
nodes = (
(893,-270,l),
(893,769,l),
(170,769,l),
(170,-270,l)
);
},
{
closed = 1;
nodes = (
(409,27,l),
(426,27,o),
(461,30,o),
(488,41,c),
(488,463,l),
(342,463,l),
(331,423,o),
(325,385,o),
(319,349,c),
(290,349,l),
(290,509,l),
(773,509,l),
(750,346,l),
(721,349,l),
(722,384,o),
(722,423,o),
(717,463,c),
(569,463,l),
(569,41,l),
(596,30,o),
(631,27,o),
(648,27,c),
(648,0,l),
(409,0,l)
);
}
);
width = 1063;
}
);
},
{
color = 6;
glyphname = u.sc.ss10;
lastChange = "2022-03-18 09:39:33 +0000";
layers = (
{
layerId = "6D97EE47-94AA-478E-ABFB-936E6C32B491";
shapes = (
{
closed = 1;
nodes = (
(1055,-340,l),
(1055,839,l),
(100,839,l),
(100,-340,l)
);
},
{
closed = 1;
nodes = (
(120,819,l),
(1035,819,l),
(1035,-320,l),
(120,-320,l)
);
},
{
closed = 1;
nodes = (
(985,-270,l),
(985,769,l),
(170,769,l),
(170,-270,l)
);
},
{
closed = 1;
nodes = (
(489,-8,o),
(418,33,o),
(389,101,cs),
(371,143,o),
(371,207,o),
(371,279,cs),
(371,468,l),
(344,479,o),
(309,482,o),
(292,482,c),
(292,509,l),
(531,509,l),
(531,482,l),
(514,482,o),
(479,479,o),
(452,468,c),
(452,283,ls),
(452,247,o),
(450,166,o),
(462,129,cs),
(478,80,o),
(525,46,o),
(591,46,cs),
(662,46,o),
(712,73,o),
(728,127,cs),
(739,164,o),
(738,224,o),
(738,291,cs),
(738,468,l),
(711,479,o),
(676,482,o),
(659,482,c),
(659,509,l),
(865,509,l),
(865,482,l),
(848,482,o),
(813,479,o),
(786,468,c),
(786,286,ls),
(786,225,o),
(786,149,o),
(771,105,cs),
(741,13,o),
(643,-8,o),
(584,-8,cs)
);
}
);
width = 1155;
}
);
},
{
color = 6;
glyphname = v.sc.ss10;
lastChange = "2022-03-18 09:39:33 +0000";
layers = (
{
layerId = "6D97EE47-94AA-478E-ABFB-936E6C32B491";
shapes = (
{
closed = 1;
nodes = (
(1031,-340,l),
(1031,839,l),
(100,839,l),
(100,-340,l)
);
},
{
closed = 1;
nodes = (
(120,819,l),
(1011,819,l),
(1011,-320,l),
(120,-320,l)
);
},
{
closed = 1;
nodes = (
(961,-270,l),
(961,769,l),
(170,769,l),
(170,-270,l)
);
},
{
closed = 1;
nodes = (
(363,468,l),
(338,479,o),
(306,482,o),
(290,482,c),
(290,509,l),
(529,509,l),
(529,482,l),
(512,482,o),
(477,479,o),
(450,468,c),
(583,120,l),
(725,468,l),
(698,479,o),
(663,482,o),
(646,482,c),
(646,509,l),
(841,509,l),
(841,482,l),
(827,482,o),
(798,479,o),
(775,468,c),
(580,-8,l),
(546,-8,l)
);
}
);
width = 1131;
}
);
},
{
color = 6;
glyphname = w.sc.ss10;
lastChange = "2022-03-18 09:39:33 +0000";
layers = (
{
layerId = "6D97EE47-94AA-478E-ABFB-936E6C32B491";
shapes = (
{
closed = 1;
nodes = (
(1216,-340,l),
(1216,839,l),
(100,839,l),
(100,-340,l)
);
},
{
closed = 1;
nodes = (
(120,819,l),
(1196,819,l),
(1196,-320,l),
(120,-320,l)
);
},
{
closed = 1;
nodes = (
(1146,-270,l),
(1146,769,l),
(170,769,l),
(170,-270,l)
);
},
{
closed = 1;
nodes = (
(361,468,l),
(337,479,o),
(305,482,o),
(290,482,c),
(290,509,l),
(524,509,l),
(524,482,l),
(507,482,o),
(472,479,o),
(445,468,c),
(535,134,l),
(672,452,l),
(706,452,l),
(825,144,l),
(913,468,l),
(886,479,o),
(851,482,o),
(834,482,c),
(834,509,l),
(1026,509,l),
(1026,482,l),
(1012,482,o),
(982,479,o),
(960,468,c),
(832,-8,l),
(798,-8,l),
(668,327,l),
(524,-8,l),
(490,-8,l)
);
}
);
width = 1316;
}
);
},
{
color = 6;
glyphname = x.sc.ss10;
lastChange = "2022-03-18 09:39:33 +0000";
layers = (
{
layerId = "6D97EE47-94AA-478E-ABFB-936E6C32B491";
shapes = (
{
closed = 1;
nodes = (
(999,-340,l),
(999,839,l),
(100,839,l),
(100,-340,l)
);
},
{
closed = 1;
nodes = (
(120,819,l),
(979,819,l),
(979,-320,l),
(120,-320,l)
);
},
{
closed = 1;
nodes = (
(929,-270,l),
(929,769,l),
(170,769,l),
(170,-270,l)
);
},
{
closed = 1;
nodes = (
(290,27,l),
(304,27,o),
(333,30,o),
(356,41,c),
(504,255,l),
(363,468,l),
(340,479,o),
(311,482,o),
(296,482,c),
(296,509,l),
(529,509,l),
(529,482,l),
(514,482,o),
(482,479,o),
(457,468,c),
(560,315,l),
(666,468,l),
(641,479,o),
(609,482,o),
(594,482,c),
(594,509,l),
(783,509,l),
(783,482,l),
(769,482,o),
(742,479,o),
(722,468,c),
(587,274,l),
(743,41,l),
(766,30,o),
(795,27,o),
(809,27,c),
(809,0,l),
(573,0,l),
(573,27,l),
(589,27,o),
(622,30,o),
(647,41,c),
(532,214,l),
(412,41,l),
(437,30,o),
(469,27,o),
(485,27,c),
(485,0,l),
(290,0,l)
);
}
);
width = 1099;
}
);
},
